v -2.394465 -25.613222 14.210649
v -2.894466 25.586777 14.690450
v -2.894460 -25.613222 14.690450
v 12.077300 -26.613216 14.210649
v -1.394460 -27.113222 14.690450
v 12.077302 -27.113216 14.690450
v -12.197604 27.479050 14.690450
v -12.695798 29.392380 14.690450
v -12.730317 28.986778 14.690454
v -12.695798 28.581177 14.690450
v -12.730318 28.986778 4.012731
v -12.695799 28.581177 4.012731
v -12.695790 -29.418821 14.690450
v -12.695790 -28.607618 14.690450
v -12.730309 -29.013220 14.690454
v -12.730310 -29.013220 4.012731
v -12.695791 -29.418821 4.012731
v -12.593226 29.786316 14.690450
v -12.695799 29.392380 4.012731
v -12.593226 28.187241 14.690450
v -12.593227 28.187241 4.012731
v -12.425544 -30.183691 14.690450
v -12.593219 -28.213686 14.690450
v -12.593219 -29.812757 14.690450
v -12.695791 -28.607618 4.012731
v -12.593220 -29.812757 4.012731
v -12.425551 30.157246 14.690450
v -12.593227 29.786316 4.012731
v -12.425551 27.816307 14.690450
v -12.425552 27.816307 4.012731
v -12.425544 -27.842752 14.690450
v -12.593220 -28.213686 4.012731
v -12.425545 -30.183691 4.012731
v -12.197604 30.494507 14.690450
v -12.425552 30.157246 4.012731
v -12.197605 27.479050 4.012731
v -12.197597 -27.505495 14.690450
v -12.425545 -27.842752 4.012731
v -12.197597 -30.520948 14.690450
v -2.730971 -26.294210 14.690450
v -7.021297 -26.564280 14.690450
v -7.173877 -26.600908 14.690450
v -7.330314 -26.613222 14.690450
v -10.330310 -26.613222 14.690454
v -10.432170 -26.615385 14.690450
v -10.835940 -26.667089 14.690450
v -11.225165 -26.786287 14.690450
v -11.588649 -26.969553 14.690450
v -11.915931 -27.211607 14.690450
v -12.197598 -30.520948 4.012731
v -11.915938 30.788391 14.690450
v -12.197605 30.494507 4.012731
v -11.915938 27.185165 14.690450
v -10.432178 31.384613 14.690450
v -10.835948 31.332909 14.690450
v -11.225173 31.213715 14.690450
v -11.588656 31.030449 14.690450
v -11.915939 27.185165 4.012731
v -12.197598 -27.505495 4.012731
v -11.915931 -30.814833 14.690450
v -11.915932 -30.814833 4.012731
v -11.915940 30.788391 4.012731
v -11.588656 26.943108 14.690450
v -11.588657 26.943108 4.012731
v -11.915932 -27.211607 4.012731
v -11.588649 -31.056894 14.690450
v -11.588650 -31.056894 4.012731
v -11.588658 31.030449 4.012731
v -11.225173 26.759842 14.690450
v -11.225174 26.759842 4.012731
v -11.588650 -26.969553 4.012731
v -2.607984 -26.494902 14.690450
v -11.225165 -31.240156 14.690450
v -11.225166 -31.240156 4.012731
v -11.225175 31.213715 4.012731
v -10.835948 26.640648 14.690450
v -10.835949 26.640648 4.012731
v -11.225166 -26.786287 4.012731
v -10.835940 -31.359358 14.690450
v -10.835941 -31.359358 4.012731
v -10.835950 31.332909 4.012731
v -10.432178 26.588940 14.690450
v -10.432178 26.588940 4.012731
v -10.835941 -26.667089 4.012731
v -10.432170 -31.411058 14.690450
v -10.432171 -31.411058 4.012731
v -10.330317 31.386780 14.690454
v -10.330319 31.386780 13.416342
v -10.432179 31.384613 4.012731
v -10.330317 26.586777 14.690454
v -10.330319 26.586777 13.416342
v -10.330312 -26.613222 13.416342
v -10.432171 -26.615385 4.012731
v -10.330310 -31.413225 14.690454
v -2.455121 -26.673883 14.690450
v -10.330312 -31.413225 13.416342
v -7.330321 26.586777 14.690450
v -7.173884 26.574467 14.690450
v -7.021304 26.537834 14.690450
v -6.876330 26.477783 14.690450
v -1.394466 27.086777 14.690450
v 12.715535 31.386780 14.690450
v -1.629120 27.068310 14.690450
v 12.715533 31.386780 13.416338
v -7.330316 -26.613222 13.416340
v -1.857987 -27.039808 14.690450
v -2.075448 -26.949736 14.690450
v -1.629113 -27.094755 14.690450
v -2.276139 -26.826746 14.690450
v 12.715541 -31.413219 14.690450
v -7.330323 26.586777 13.416340
v -7.173879 -26.600908 13.416340
v -7.173886 26.574467 13.416340
v -7.021298 -26.564280 13.416340
v -7.021306 26.537834 13.416340
v -6.876323 -26.504229 14.690450
v -6.876325 -26.504229 13.416340
v -6.742537 26.395798 14.690450
v -6.876332 26.477783 13.416340
v -6.742530 -26.422239 14.690450
v -6.742532 -26.422239 13.416340
v -1.857994 27.013363 14.690450
v -6.623211 26.293884 14.690450
v -6.742539 26.395798 13.416340
v -6.623204 -26.320326 14.690450
v -6.623206 -26.320326 13.416340
v -6.521302 26.174561 14.690450
v -6.623213 26.293884 13.416340
v -6.521295 -26.201006 14.690450
v -6.521297 -26.201006 13.416340
v -6.439312 26.040768 14.690450
v -6.521304 26.174561 13.416340
v -6.439305 -26.067213 14.690450
v -6.439307 -26.067213 13.416340
v -2.455127 26.647438 14.690450
v -2.276145 26.800301 14.690450
v -6.379265 25.895798 14.690450
v -2.730978 26.267761 14.690450
v -2.607990 26.468456 14.690450
v -2.075455 26.923286 14.690450
v -6.439314 26.040768 13.416340
v -2.875993 -25.847876 14.690450
v -6.379258 -25.922239 14.690450
v -2.821046 -26.076750 14.690450
v -6.379260 -25.922239 13.416340
v -6.342631 25.743210 14.690450
v -2.821052 26.050301 14.690450
v -6.379267 25.895798 13.416340
v -6.342624 -25.769655 14.690450
v -6.342626 -25.769655 13.416340
v -2.875999 25.821430 14.690450
v -6.330323 25.586777 14.690450
v -6.342633 25.743210 13.416340
v -6.330316 -25.613222 14.690450
v -6.330317 -25.613222 13.416340
v -6.330325 25.586777 13.416340
v -2.394472 25.586777 14.210649
v -2.382152 -25.769655 14.210649
v -2.382158 25.743210 14.210649
v -2.345519 -25.922239 14.210649
v -2.345525 25.895798 14.210649
v -2.285470 -26.067213 14.210649
v -2.285476 26.040768 14.210649
v -2.203479 -26.201006 14.210649
v -2.203485 26.174561 14.210649
v -2.101571 -26.320326 14.210649
v -2.101578 26.293884 14.210649
v -1.982249 -26.422239 14.210649
v -1.982256 26.395798 14.210649
v -1.848453 -26.504229 14.210649
v -1.848459 26.477783 14.210649
v -1.703479 -26.564280 14.210649
v -1.703485 26.537834 14.210649
v -1.550899 -26.600908 14.210649
v -1.550905 26.574467 14.210649
v -1.394462 -26.613222 14.210649
v 12.077296 27.086784 14.690450
v -1.394468 26.586777 14.210649
v 12.311946 27.068314 14.690450
v 12.077294 26.586784 14.210649
v 12.311952 -27.094749 14.690450
v 12.233733 -26.600903 14.210649
v 12.540820 27.013367 14.690450
v 12.233727 26.574471 14.210649
v 12.540826 -27.039803 14.690450
v 12.386317 -26.564274 14.210649
v 12.758281 26.923294 14.690450
v 12.386312 26.537838 14.210649
v 12.758286 -26.949730 14.690450
v 12.531287 -26.504223 14.210649
v 13.020379 31.367340 14.690450
v 12.958972 26.800308 14.690450
v 12.531281 26.477791 14.210649
v 13.020385 -31.393776 14.690450
v 12.958978 -26.826740 14.690450
v 12.665084 -26.422234 14.210649
v 13.137954 26.647442 14.690450
v 13.796025 31.129807 14.690450
v 13.418309 31.281586 14.690450
v 12.665078 26.395798 14.210649
v 13.418315 -31.308018 14.690450
v 13.137959 -26.673878 14.690450
v 12.784404 -26.320320 14.210649
v 14.448232 30.647434 14.690450
v 14.142655 30.916374 14.690450
v 13.290820 26.468460 14.690450
v 14.902486 29.975342 14.690450
v 14.703958 30.330719 14.690450
v 12.784398 26.293888 14.210649
v 14.142661 -30.942810 14.690450
v 14.448237 -30.673870 14.690450
v 13.796031 -31.156239 14.690450
v 14.703963 -30.357155 14.690450
v 14.902492 -30.001781 14.690450
v 13.290826 -26.494896 14.690450
v 12.886317 -26.201000 14.210649
v 13.413806 26.267769 14.690450
v 15.106889 29.190315 14.690450
v 15.038095 29.591530 14.690450
v 12.886312 26.174568 14.210649
v 15.106894 -29.216751 14.690450
v 13.413812 -26.294205 14.690450
v 15.038100 -29.617962 14.690450
v 12.968307 -26.067207 14.210649
v 13.503879 26.050308 14.690450
v 15.115537 28.986782 14.690450
v 12.968301 26.040771 14.210649
v 15.115542 -29.013214 14.690450
v 13.503884 -26.076744 14.690450
v 13.028354 -25.922234 14.210649
v 13.558825 25.821434 14.690450
v 13.028348 25.895798 14.210649
v 13.558831 -25.847870 14.690450
v 13.064986 -25.769650 14.210649
v 13.577296 25.586784 14.690450
v 13.064981 25.743217 14.210649
v 13.577302 -25.613216 14.690450
v 13.077300 -25.613216 14.210649
v 13.077294 25.586784 14.210649
v 12.715539 -31.413219 13.416338
v 13.020379 31.367340 4.012727
v 13.020385 -31.393776 4.012727
v 13.418315 -31.308018 4.012727
v 13.418309 31.281586 4.012727
v 13.796031 -31.156239 4.012727
v 13.796025 31.129807 4.012727
v 14.142661 -30.942810 4.012727
v 14.142655 30.916374 4.012727
v 14.448237 -30.673870 4.012727
v 14.448232 30.647434 4.012727
v 14.703963 -30.357155 4.012727
v 14.703958 30.330719 4.012727
v 14.902492 -30.001781 4.012727
v 14.902486 29.975342 4.012727
v 15.038100 -29.617962 4.012727
v 15.038095 29.591530 4.012727
v 15.106894 -29.216751 4.012727
v 15.115535 28.986782 13.416338
v 15.106889 29.190315 4.012727
v 15.115541 -29.013214 13.416338
v -2.394465 -25.613222 13.416340
v -2.394472 25.586777 13.416340
v -2.382152 -25.769655 13.416340
v -2.382158 25.743210 13.416340
v -2.345519 -25.922239 13.416340
v -2.345525 25.895798 13.416340
v -2.285470 -26.067213 13.416340
v -2.285476 26.040768 13.416340
v -2.203479 -26.201006 13.416340
v -2.203485 26.174561 13.416340
v -2.101571 -26.320326 13.416340
v -2.101578 26.293884 13.416340
v -1.982249 -26.422239 13.416340
v -1.982256 26.395798 13.416340
v -1.848453 -26.504229 13.416340
v -1.848459 26.477783 13.416340
v -1.703479 -26.564280 13.416340
v -1.703485 26.537834 13.416340
v -1.550899 -26.600908 13.416340
v -1.550905 26.574467 13.416340
v -1.394462 -26.613222 13.416340
v -1.394468 26.586777 13.416340
v 12.072406 -26.613216 13.416338
v 12.072400 26.586784 13.416338
v 12.228839 -26.600903 13.416338
v 12.228833 26.574471 13.416338
v 12.381423 -26.564274 13.416338
v 12.381417 26.537838 13.416338
v 12.526393 -26.504223 13.416338
v 12.526387 26.477791 13.416338
v 12.660190 -26.422234 13.416338
v 12.660184 26.395798 13.416338
v 12.779510 -26.320320 13.416338
v 12.779504 26.293888 13.416338
v 12.881423 -26.201000 13.416338
v 12.881417 26.174568 13.416338
v 12.963412 -26.067207 13.416338
v 12.963407 26.040771 13.416338
v 13.023459 -25.922234 13.416338
v 13.023454 25.895798 13.416338
v 13.060092 -25.769650 13.416338
v 13.060086 25.743217 13.416338
v 13.072406 -25.613216 13.416338
v 13.072400 25.586784 13.416338
v -10.177590 31.381912 13.411476
v -10.177590 26.591644 13.411476
v -10.177583 -26.618086 13.411476
v -10.177583 -31.408358 13.411476
v 12.209910 -31.359352 13.362471
v 12.410695 -31.393776 13.396900
v 12.613679 -31.411053 13.414177
v 11.635051 -31.156239 13.159361
v 11.820685 -31.240150 13.243273
v 12.012767 -31.308018 13.311140
v 11.457206 -31.056889 13.060009
v -10.025479 26.606216 13.396902
v -9.824691 26.640648 13.362474
v -9.627549 26.691978 13.311142
v -9.435466 26.759842 13.243275
v -9.249835 26.843758 13.159363
v -8.903203 27.057182 12.945934
v -7.330323 27.086777 12.916342
v -9.071986 26.943108 13.060011
v -7.095662 -27.094755 12.916342
v -7.330316 -27.113222 12.916342
v -9.627542 -26.718424 13.311142
v -9.824683 -26.667089 13.362474
v -10.025472 -26.632658 13.396902
v -9.071979 -26.969553 13.060011
v -9.249827 -26.870199 13.159363
v -9.435458 -26.786287 13.243275
v -8.864028 -27.113222 12.916342
v -8.904384 -27.085340 12.944223
v -7.095669 27.068310 12.916342
v -6.866788 -27.039808 12.916342
v -6.866795 27.013363 12.916342
v -6.649329 -26.949736 12.916342
v -6.649336 26.923286 12.916342
v -6.448636 -26.826746 12.916342
v -6.448643 26.800301 12.916342
v -6.269654 -26.673883 12.916342
v -6.269661 26.647438 12.916342
v -6.116790 -26.494902 12.916342
v -6.116797 26.468456 12.916342
v -5.993804 -26.294210 12.916342
v -5.993811 26.267761 12.916342
v -5.903729 -26.076750 12.916342
v -5.903737 26.050301 12.916342
v -5.848783 -25.847876 12.916342
v -5.848790 25.821430 12.916342
v -5.830316 -25.613222 12.916342
v -5.830323 25.586777 12.916342
v -2.894468 25.586777 12.916342
v -2.894462 -25.613222 12.916342
v -2.875995 -25.847876 12.916342
v -2.876001 25.821430 12.916342
v -2.821048 -26.076750 12.916342
v -2.821054 26.050301 12.916342
v -2.730973 -26.294210 12.916342
v -2.730979 26.267761 12.916342
v -2.607985 -26.494902 12.916342
v -2.607992 26.468456 12.916342
v -2.455123 -26.673883 12.916342
v -2.455129 26.647438 12.916342
v -2.276141 -26.826746 12.916342
v -2.276147 26.800301 12.916342
v -2.075450 -26.949736 12.916342
v -2.075457 26.923286 12.916342
v -1.857989 -27.039808 12.916342
v -1.857996 27.013363 12.916342
v -1.629115 -27.094755 12.916342
v -1.629122 27.068310 12.916342
v -1.394462 -27.113222 12.916342
v -1.394468 27.086777 12.916342
v 12.613679 -26.615379 12.916338
v 11.820680 26.759850 12.916338
v 14.142653 27.057190 12.916340
v 14.448230 27.326126 12.916340
v 14.448236 -27.352562 12.916340
v 14.615535 27.520493 12.916340
v 13.796023 26.843758 12.916340
v 13.418313 -26.718418 12.916340
v 13.020383 -26.632652 12.916340
v 14.142659 -27.083622 12.916340
v 13.418307 26.691978 12.916340
v 13.020377 26.606220 12.916340
v 12.613681 -31.411053 4.012727
v 12.613673 31.384621 13.414177
v -9.627549 31.281578 13.311142
v -9.824691 31.332909 13.362474
v -10.025479 31.367340 13.396902
v -9.071986 31.030449 13.060011
v -9.249835 31.129799 13.159363
v -9.435466 31.213715 13.243275
v -8.904391 30.914658 12.944223
v 15.106887 28.783249 13.407692
v 15.115537 28.986782 4.012727
v 15.115542 -29.013214 4.012727
v 15.106893 -28.809685 13.407692
v 15.081012 28.581177 13.381817
v 14.902484 27.998219 13.203287
v 14.978438 28.187248 13.279245
v 15.038093 28.382034 13.338898
v 14.698611 27.646378 12.999418
v 14.810767 27.816315 13.111572
v 12.613675 31.384621 4.012727
v 12.410689 31.367340 13.396900
v -8.864036 30.886780 12.916342
v -10.025479 31.367340 4.012731
v -10.025478 26.606216 4.012731
v -10.025471 -26.632658 4.012731
v -10.025471 -31.393782 4.012731
v -10.025472 -31.393782 13.396902
v 11.249255 -30.913216 12.916340
v 15.106889 28.783249 4.012727
v 15.106894 -28.809685 4.012727
v 15.081017 -28.607613 13.381817
v -9.824683 -31.359358 13.362474
v 12.209907 31.332916 4.012727
v 12.209905 31.332916 13.362471
v 12.209912 -31.359352 4.012727
v 15.038095 28.382034 4.012727
v 15.038100 -28.408470 4.012727
v 15.038098 -28.408470 13.338898
v -9.627548 31.281578 4.012731
v -9.627548 26.691978 4.012731
v -9.627541 -26.718424 4.012731
v -9.627541 -31.308023 4.012731
v -9.627542 -31.308023 13.311142
v 12.012761 31.281586 13.311140
v 14.978444 -28.213680 13.279245
v -9.435458 -31.240156 13.243275
v 11.820682 31.213715 4.012727
v 11.820680 31.213715 13.243273
v 11.820687 -31.240150 4.012727
v 14.902486 27.998219 4.012727
v 14.902492 -28.024654 4.012727
v 14.902490 -28.024654 13.203287
v -9.249834 31.129799 4.012731
v -9.249834 26.843758 4.012731
v -9.249826 -26.870199 4.012731
v -9.249826 -31.156244 4.012731
v -9.249827 -31.156244 13.159363
v 11.635045 31.129807 13.159361
v 14.810773 -27.842747 13.111572
v -9.071979 -31.056894 13.060011
v 11.457202 31.030449 4.012728
v 11.457200 31.030449 13.060009
v 11.457208 -31.056889 4.012728
v 14.703958 27.642841 4.012727
v 14.703963 -27.669277 4.012727
v 14.703961 -27.669277 13.004763
v -8.903202 30.916367 4.012730
v -8.903202 27.057182 4.012730
v -8.903194 -27.083628 4.012730
v -8.903194 -30.942816 4.012730
v -8.903195 -30.942816 12.945934
v 11.249249 30.886780 12.916340
v 14.615541 -27.546928 12.916340
v -8.864036 27.086777 12.916342
v -8.864028 -30.913221 12.916342
v -8.597628 30.647430 4.012730
v -8.597620 -27.352568 4.012730
v 11.129918 30.788391 12.916340
v 10.848248 30.494507 12.916340
v 10.620301 30.157249 12.916340
v 10.452630 29.786316 12.916340
v -8.597629 30.647430 12.916342
v -8.597629 27.326126 12.916342
v -8.597621 -27.352568 12.916342
v 11.129924 -30.814827 12.916340
v 10.848254 -30.520945 12.916340
v 10.620307 -30.183687 12.916340
v -8.597621 -30.673876 12.916342
v -8.341899 30.330719 12.916342
v -8.341899 27.642838 12.916342
v -8.597628 27.326126 4.012730
v -8.341898 27.642838 4.012730
v -8.341891 -27.669283 12.916342
v -8.341891 -30.357161 12.916342
v -8.597620 -30.673876 4.012730
v -8.341890 -30.357161 4.012730
v -8.143374 29.975342 12.916342
v -8.341898 30.330719 4.012730
v -8.143374 27.998215 12.916342
v -8.143373 27.998215 4.012730
v -8.143367 -28.024660 12.916342
v -8.341890 -27.669283 4.012730
v -8.143367 -30.001787 12.916342
v -8.143366 -30.001787 4.012730
v -8.007762 29.591522 12.916342
v -8.143373 29.975342 4.012730
v -8.007762 28.382030 12.916342
v -8.007761 28.382030 4.012730
v -8.007754 -28.408476 12.916342
v -8.143366 -28.024660 4.012730
v -8.007754 -29.617968 12.916342
v -8.007753 -29.617968 4.012730
v -7.938968 29.190311 12.916342
v -8.007761 29.591522 4.012730
v -7.938968 28.783241 12.916342
v -7.938967 28.783241 4.012730
v -7.938960 -28.809690 12.916342
v -8.007753 -28.408476 4.012730
v -7.938960 -29.216757 12.916342
v -7.938959 -29.216757 4.012730
v 10.350057 29.392384 12.916340
v -7.930321 28.986778 4.012730
v -7.938967 29.190311 4.012730
v 10.315537 28.986782 12.916340
v 10.350057 28.581177 12.916340
v 10.620307 -27.842747 12.916340
v 10.452636 -28.213680 12.916340
v 10.350062 -28.607615 12.916340
v 10.315543 -29.013216 12.916340
v -7.930313 -29.013220 4.012730
v -7.938959 -28.809690 4.012730
v 10.452636 -29.812754 12.916340
v 10.350062 -29.418818 12.916340
v 12.613673 26.588943 12.916338
v 10.848254 -27.505489 12.916340
v 12.209910 -26.667084 12.916338
v 11.820685 -26.786282 12.916338
v 11.457206 -26.969547 12.916340
v 11.129924 -27.211601 12.916340
v 12.209905 26.640648 12.916338
v 10.452630 28.187248 12.916340
v 10.315539 28.986782 4.012728
v 10.350059 28.581177 4.012728
v 10.315545 -29.013216 4.012728
v 10.350064 -29.418818 4.012728
v 10.350059 29.392384 4.012728
v 10.452632 28.187248 4.012728
v 10.350064 -28.607615 4.012728
v 10.452638 -29.812754 4.012728
v 10.452632 29.786316 4.012728
v 10.620301 27.816315 12.916340
v 10.620303 27.816315 4.012728
v 10.452638 -28.213680 4.012728
v 10.620309 -30.183687 4.012728
v 10.620303 30.157249 4.012728
v 10.848248 27.479053 12.916340
v 10.848250 27.479053 4.012728
v 10.620309 -27.842747 4.012728
v 10.848256 -30.520945 4.012728
v 11.129918 27.185165 12.916340
v 11.457200 26.943111 12.916340
v 10.848250 30.494507 4.012728
v 11.129920 27.185165 4.012728
v 10.848256 -27.505489 4.012728
v 11.129926 -30.814827 4.012728
v 11.129920 30.788391 4.012728
v 11.457202 26.943111 4.012728
v 11.129926 -27.211601 4.012728
v 11.820682 26.759850 4.012727
v 11.457208 -26.969547 4.012728
v 12.209907 26.640648 4.012727
v 11.820687 -26.786282 4.012727
v 12.613675 26.588943 4.012727
v 12.209912 -26.667084 4.012727
v 13.020379 26.606220 4.012727
v 12.613681 -26.615379 4.012727
v 13.418309 26.691978 4.012727
v 13.020385 -26.632652 4.012727
v 13.796025 26.843758 4.012727
v 13.796029 -26.870193 12.916340
v 13.418315 -26.718418 4.012727
v 14.142655 27.057190 4.012727
v 13.796031 -26.870193 4.012727
v 14.448232 27.326126 4.012727
v 14.142661 -27.083622 4.012727
v 14.448237 -27.352562 4.012727
v -10.090477 27.711838 1.972403
v -10.319458 27.691807 1.972403
v -10.158598 28.098167 1.483591
v -10.319458 28.084095 1.483591
v -10.548439 27.711838 1.972403
v -10.480319 28.098167 1.483591
v -10.770462 27.771332 1.972403
v -10.636291 28.139957 1.483591
v -10.978781 27.868465 1.972403
v -10.782636 28.208202 1.483591
v -11.167068 28.000309 1.972403
v -10.914907 28.300823 1.483591
v -11.329599 28.162842 1.972403
v -11.029088 28.415001 1.483591
v -11.461439 28.351128 1.972403
v -11.121705 28.547276 1.483591
v -11.558580 28.559444 1.972403
v -11.189947 28.693619 1.483591
v -11.618071 28.781467 1.972403
v -11.231740 28.849594 1.483591
v -11.638104 29.010448 1.972403
v -11.245813 29.010448 1.483591
v -11.618071 29.239429 1.972403
v -11.231740 29.171310 1.483591
v -11.558580 29.461452 1.972403
v -11.189947 29.327286 1.483591
v -11.461439 29.669773 1.972403
v -11.121705 29.473629 1.483591
v -11.329599 29.858063 1.972403
v -11.029088 29.605904 1.483591
v -11.167068 30.020596 1.972403
v -10.914908 29.720081 1.483591
v -10.978781 30.152428 1.972403
v -10.782636 29.812698 1.483591
v -10.770463 30.249573 1.972403
v -10.636291 29.880936 1.483591
v -10.548439 30.309067 1.972403
v -10.480319 29.922733 1.483591
v -10.319458 30.329098 1.972403
v -10.319458 29.936806 1.483591
v -10.090478 30.309067 1.972403
v -10.158598 29.922733 1.483591
v -9.868455 30.249573 1.972403
v -10.002626 29.880936 1.483591
v -9.660136 30.152428 1.972403
v -9.856281 29.812698 1.483591
v -9.471850 30.020596 1.972403
v -9.724009 29.720081 1.483591
v -9.309318 29.858063 1.972403
v -9.609830 29.605904 1.483591
v -9.177478 29.669773 1.972403
v -9.517211 29.473629 1.483591
v -9.080337 29.461452 1.972403
v -9.448969 29.327286 1.483591
v -9.020845 29.239429 1.972403
v -9.407176 29.171310 1.483591
v -9.000813 29.010448 1.972403
v -9.393103 29.010448 1.483591
v -9.020845 28.781467 1.972403
v -9.407176 28.849594 1.483591
v -9.080337 28.559444 1.972403
v -9.448969 28.693619 1.483591
v -9.177478 28.351128 1.972403
v -9.517211 28.547276 1.483591
v -9.309318 28.162842 1.972403
v -9.609829 28.415001 1.483591
v -9.471849 28.000309 1.972403
v -9.724009 28.300823 1.483591
v -9.660136 27.868465 1.972403
v -9.856281 28.208202 1.483591
v -9.868455 27.771332 1.972403
v -10.002625 28.139957 1.483591
v -10.148786 27.687313 4.012731
v -10.087105 27.692711 3.996009
v -10.087105 27.692711 4.012731
v -10.319458 27.672382 4.012731
v -10.319458 27.672382 3.996009
v -10.381139 27.677780 4.012731
v -10.551812 27.692711 4.012731
v -10.551812 27.692711 3.996009
v -10.611618 27.708736 4.012731
v -10.777105 27.753078 4.012731
v -10.777105 27.753078 3.996009
v -10.833220 27.779243 4.012731
v -10.988492 27.851643 4.012731
v -10.988492 27.851643 3.996009
v -11.039212 27.887161 4.012731
v -11.179553 27.985432 4.012731
v -11.179553 27.985432 3.996009
v -11.223333 28.029213 4.012731
v -11.344479 28.150356 4.012731
v -11.344479 28.150356 3.996009
v -11.379992 28.201077 4.012731
v -11.478260 28.341415 4.012731
v -11.478260 28.341415 3.996009
v -11.504427 28.397533 4.012731
v -11.576832 28.552803 4.012731
v -11.576832 28.552803 3.996009
v -11.592857 28.612614 4.012731
v -11.637199 28.778095 4.012731
v -11.637199 28.778095 3.996009
v -11.642595 28.839779 4.012731
v -11.657528 29.010448 4.012731
v -11.657528 29.010448 3.996009
v -11.652131 29.072132 4.012731
v -11.637199 29.242802 4.012731
v -11.637199 29.242802 3.996009
v -11.621175 29.302612 4.012731
v -11.576832 29.468094 4.012731
v -11.576832 29.468094 3.996009
v -11.550665 29.524212 4.012731
v -11.478260 29.679485 4.012731
v -11.478260 29.679485 3.996009
v -11.442746 29.730202 4.012731
v -11.344479 29.870548 4.012731
v -11.344479 29.870548 3.996009
v -11.300697 29.914330 4.012731
v -11.179553 30.035473 4.012731
v -11.179553 30.035473 3.996009
v -11.128835 30.070984 4.012731
v -10.988492 30.169250 3.996009
v -10.988492 30.169250 4.012731
v -10.932379 30.195415 4.012731
v -10.777105 30.267826 4.012731
v -10.777105 30.267826 3.996009
v -10.717299 30.283852 4.012731
v -10.551812 30.328194 4.012731
v -10.551812 30.328194 3.996009
v -10.490131 30.333588 4.012731
v -10.319458 30.348522 4.012731
v -10.319458 30.348522 3.996009
v -10.257779 30.343124 4.012731
v -10.087105 30.328194 4.012731
v -10.087105 30.328194 3.996009
v -10.027300 30.312168 4.012731
v -9.861813 30.267826 3.996009
v -9.861813 30.267826 4.012731
v -9.805696 30.241661 4.012731
v -9.650424 30.169250 4.012731
v -9.650424 30.169250 3.996009
v -9.599705 30.133739 4.012731
v -9.459365 30.035473 4.012731
v -9.459365 30.035473 3.996009
v -9.415584 29.991692 4.012731
v -9.294438 29.870548 4.012731
v -9.294438 29.870548 3.996009
v -9.258924 29.819828 4.012731
v -9.160657 29.679485 4.012731
v -9.160657 29.679485 3.996009
v -9.134490 29.623367 4.012731
v -9.062085 29.468094 4.012731
v -9.062085 29.468094 3.996009
v -9.046059 29.408287 4.012731
v -9.001718 29.242802 4.012731
v -9.001718 29.242802 3.996009
v -8.996321 29.181122 4.012731
v -8.981389 29.010448 4.012731
v -8.981389 29.010448 3.996009
v -8.986786 28.948769 4.012731
v -9.001718 28.778095 4.012731
v -9.001718 28.778095 3.996009
v -9.017743 28.718288 4.012731
v -9.062084 28.552803 4.012731
v -9.062084 28.552803 3.996009
v -9.088251 28.496689 4.012731
v -9.160657 28.341415 4.012731
v -9.160657 28.341415 3.996009
v -9.196171 28.290695 4.012731
v -9.294438 28.150356 3.996009
v -9.294438 28.150356 4.012731
v -9.338220 28.106575 4.012731
v -9.459365 27.985432 4.012731
v -9.459365 27.985432 3.996009
v -9.510082 27.949917 4.012731
v -9.650424 27.851643 4.012731
v -9.650424 27.851643 3.996009
v -9.706538 27.825478 4.012731
v -9.861812 27.753078 4.012731
v -9.861812 27.753078 3.996009
v -9.921618 27.737053 4.012731
v -10.090485 -30.288111 1.972403
v -10.319456 -30.308142 1.972403
v -10.160938 -29.888554 1.483591
v -10.319456 -29.902424 1.483591
v -10.548427 -30.288111 1.972403
v -10.477974 -29.888554 1.483591
v -10.770442 -30.228622 1.972403
v -10.631677 -29.847368 1.483591
v -10.978753 -30.131485 1.972403
v -10.775892 -29.780119 1.483591
v -11.167031 -29.999651 1.972403
v -10.906240 -29.688850 1.483591
v -11.329557 -29.837126 1.972403
v -11.018758 -29.576332 1.483591
v -11.461391 -29.648846 1.972403
v -11.110026 -29.445986 1.483591
v -11.558529 -29.440535 1.972403
v -11.177276 -29.301769 1.483591
v -11.618017 -29.218521 1.972403
v -11.218460 -29.148069 1.483591
v -11.638050 -28.989552 1.972403
v -11.232328 -28.989552 1.483591
v -11.618017 -28.760578 1.972403
v -11.218460 -28.831030 1.483591
v -11.558529 -28.538565 1.972403
v -11.177276 -28.677328 1.483591
v -11.461391 -28.330252 1.972403
v -11.110026 -28.533115 1.483591
v -11.329557 -28.141973 1.972403
v -11.018758 -28.402767 1.483591
v -11.167031 -27.979448 1.972403
v -10.906240 -28.290249 1.483591
v -10.978753 -27.847614 1.972403
v -10.775892 -28.198978 1.483591
v -10.770442 -27.750479 1.972403
v -10.631677 -28.131731 1.483591
v -10.548427 -27.690990 1.972403
v -10.477974 -28.090548 1.483591
v -10.319456 -27.670958 1.972403
v -10.319456 -28.076679 1.483591
v -10.090486 -27.690990 1.972403
v -10.160938 -28.090548 1.483591
v -9.868470 -27.750479 1.972403
v -10.007236 -28.131731 1.483591
v -9.660159 -27.847614 1.972403
v -9.863020 -28.198978 1.483591
v -9.471881 -27.979448 1.972403
v -9.732673 -28.290249 1.483591
v -9.309355 -28.141973 1.972403
v -9.620155 -28.402767 1.483591
v -9.177521 -28.330252 1.972403
v -9.528886 -28.533115 1.483591
v -9.080383 -28.538565 1.972403
v -9.461637 -28.677328 1.483591
v -9.020895 -28.760578 1.972403
v -9.420452 -28.831030 1.483591
v -9.000862 -28.989552 1.972403
v -9.406584 -28.989552 1.483591
v -9.020895 -29.218521 1.972403
v -9.420452 -29.148069 1.483591
v -9.080383 -29.440535 1.972403
v -9.461637 -29.301769 1.483591
v -9.177521 -29.648846 1.972403
v -9.528886 -29.445986 1.483591
v -9.309355 -29.837126 1.972403
v -9.620155 -29.576332 1.483591
v -9.471881 -29.999651 1.972403
v -9.732673 -29.688850 1.483591
v -9.660159 -30.131485 1.972403
v -9.863020 -29.780119 1.483591
v -9.868470 -30.228622 1.972403
v -10.007236 -29.847368 1.483591
v -10.146782 -30.328201 4.012731
v -10.084378 -30.322741 3.996009
v -10.084378 -30.322741 4.012731
v -10.319456 -30.343307 4.012731
v -10.319456 -30.343307 3.996009
v -10.381860 -30.337849 4.012731
v -10.554533 -30.322741 4.012731
v -10.554533 -30.322741 3.996009
v -10.615042 -30.306528 4.012731
v -10.782469 -30.261665 4.012731
v -10.782469 -30.261665 3.996009
v -10.839242 -30.235193 4.012731
v -10.996335 -30.161938 4.012731
v -10.996335 -30.161938 3.996009
v -11.047648 -30.126009 4.012731
v -11.189635 -30.026588 4.012731
v -11.189635 -30.026588 3.996009
v -11.233930 -29.982294 4.012731
v -11.356495 -29.859730 4.012731
v -11.356495 -29.859730 3.996009
v -11.392426 -29.808416 4.012731
v -11.491845 -29.666428 4.012731
v -11.491845 -29.666428 3.996009
v -11.518318 -29.609657 4.012731
v -11.591574 -29.452562 4.012731
v -11.591574 -29.452562 3.996009
v -11.607785 -29.392056 4.012731
v -11.652648 -29.224628 4.012731
v -11.652648 -29.224628 3.996009
v -11.658108 -29.162224 4.012731
v -11.673215 -28.989552 4.012731
v -11.673215 -28.989552 3.996009
v -11.667755 -28.927145 4.012731
v -11.652648 -28.754471 4.012731
v -11.652648 -28.754471 3.996009
v -11.636435 -28.693964 4.012731
v -11.591574 -28.526537 4.012731
v -11.591574 -28.526537 3.996009
v -11.565099 -28.469765 4.012731
v -11.491845 -28.312670 4.012731
v -11.491845 -28.312670 3.996009
v -11.455915 -28.261358 4.012731
v -11.356495 -28.119370 4.012731
v -11.356495 -28.119370 3.996009
v -11.312201 -28.075077 4.012731
v -11.189635 -27.952511 4.012731
v -11.189635 -27.952511 3.996009
v -11.138322 -27.916580 4.012731
v -10.996335 -27.817160 4.012731
v -10.996335 -27.817160 3.996009
v -10.939563 -27.790686 4.012731
v -10.782470 -27.717434 4.012731
v -10.782470 -27.717434 3.996009
v -10.721961 -27.701220 4.012731
v -10.554533 -27.656359 4.012731
v -10.554533 -27.656359 3.996009
v -10.492130 -27.650900 4.012731
v -10.319456 -27.635792 4.012731
v -10.319456 -27.635792 3.996009
v -10.257052 -27.641253 4.012731
v -10.084379 -27.656359 4.012731
v -10.084379 -27.656359 3.996009
v -10.023870 -27.672571 4.012731
v -9.856442 -27.717434 4.012731
v -9.856442 -27.717434 3.996009
v -9.799670 -27.743908 4.012731
v -9.642576 -27.817160 4.012731
v -9.642576 -27.817160 3.996009
v -9.591263 -27.853092 4.012731
v -9.449277 -27.952511 4.012731
v -9.449277 -27.952511 3.996009
v -9.404983 -27.996805 4.012731
v -9.282417 -28.119370 4.012731
v -9.282417 -28.119370 3.996009
v -9.246487 -28.170685 4.012731
v -9.147067 -28.312670 4.012731
v -9.147067 -28.312670 3.996009
v -9.120593 -28.369444 4.012731
v -9.047338 -28.526537 3.996009
v -9.047338 -28.526537 4.012730
v -9.031127 -28.587044 4.012730
v -8.986263 -28.754471 4.012730
v -8.986263 -28.754471 3.996009
v -8.980804 -28.816875 4.012730
v -8.965697 -28.989552 4.012730
v -8.965697 -28.989552 3.996009
v -8.971157 -29.051952 4.012730
v -8.986263 -29.224628 4.012730
v -8.986263 -29.224628 3.996009
v -9.002477 -29.285135 4.012730
v -9.047338 -29.452562 4.012730
v -9.047338 -29.452562 3.996009
v -9.073812 -29.509335 4.012730
v -9.147067 -29.666428 4.012730
v -9.147067 -29.666428 3.996009
v -9.182997 -29.717743 4.012730
v -9.282417 -29.859730 4.012730
v -9.282417 -29.859730 3.996009
v -9.326711 -29.904022 4.012730
v -9.449277 -30.026588 4.012730
v -9.449277 -30.026588 3.996009
v -9.500590 -30.062519 4.012730
v -9.642576 -30.161938 4.012731
v -9.642576 -30.161938 3.996009
v -9.699349 -30.188414 4.012731
v -9.856442 -30.261665 4.012731
v -9.856442 -30.261665 3.996009
v -9.916951 -30.277880 4.012731
v 12.909804 27.710217 1.972403
v 12.680537 27.690159 1.972403
v 12.839261 28.110287 1.483591
v 12.680537 28.096401 1.483591
v 12.451274 27.710217 1.972403
v 12.521811 28.110287 1.483591
v 12.228969 27.769783 1.972403
v 12.367913 28.151527 1.483591
v 12.020391 27.867039 1.972403
v 12.223512 28.218857 1.483591
v 11.831868 27.999050 1.972403
v 12.092998 28.310249 1.483591
v 11.669133 28.161781 1.972403
v 11.980336 28.422913 1.483591
v 11.537126 28.350307 1.972403
v 11.888947 28.553432 1.483591
v 11.439866 28.558884 1.972403
v 11.821609 28.697826 1.483591
v 11.380300 28.781178 1.972403
v 11.780370 28.851730 1.483591
v 11.360242 29.010452 1.972403
v 11.766488 29.010452 1.483591
v 11.380300 29.239719 1.972403
v 11.780370 29.169182 1.483591
v 11.439866 29.462017 1.972403
v 11.821609 29.323078 1.483591
v 11.537126 29.670597 1.972403
v 11.888947 29.467480 1.483591
v 11.669133 29.859127 1.972403
v 11.980336 29.597996 1.483591
v 11.831868 30.021862 1.972403
v 12.092998 29.710655 1.483591
v 12.020391 30.153858 1.972403
v 12.223512 29.802044 1.483591
v 12.228969 30.251129 1.972403
v 12.367913 29.869373 1.483591
v 12.451274 30.310688 1.972403
v 12.521811 29.910614 1.483591
v 12.680537 30.330750 1.972403
v 12.680537 29.924503 1.483591
v 12.909804 30.310688 1.972403
v 12.839261 29.910614 1.483591
v 13.132108 30.251129 1.972403
v 12.993159 29.869373 1.483591
v 13.340686 30.153858 1.972403
v 13.137565 29.802044 1.483591
v 13.529206 30.021862 1.972403
v 13.268075 29.710655 1.483591
v 13.691945 29.859127 1.972403
v 13.380742 29.597996 1.483591
v 13.823945 29.670597 1.972403
v 13.472131 29.467480 1.483591
v 13.921208 29.462017 1.972403
v 13.539464 29.323078 1.483591
v 13.980771 29.239719 1.972403
v 13.580701 29.169182 1.483591
v 14.000833 29.010452 1.972403
v 13.594588 29.010452 1.483591
v 13.980771 28.781178 1.972403
v 13.580701 28.851730 1.483591
v 13.921208 28.558884 1.972403
v 13.539464 28.697826 1.483591
v 13.823945 28.350307 1.972403
v 13.472131 28.553432 1.483591
v 13.691945 28.161781 1.972403
v 13.380742 28.422913 1.483591
v 13.529206 27.999050 1.972403
v 13.268075 28.310249 1.483591
v 13.340686 27.867039 1.972403
v 13.137565 28.218857 1.483591
v 13.132108 27.769783 1.972403
v 12.993159 28.151527 1.483591
v 12.852077 27.680599 4.012728
v 12.914069 27.686020 3.996009
v 12.914069 27.686020 4.012728
v 12.680537 27.665592 4.012728
v 12.680537 27.665592 3.996009
v 12.618545 27.671021 4.012728
v 12.447009 27.686020 4.012728
v 12.447009 27.686020 3.996009
v 12.386895 27.702129 4.012728
v 12.220567 27.746696 4.012728
v 12.220567 27.746696 3.996009
v 12.164168 27.772995 4.012728
v 12.008107 27.845764 4.012728
v 12.008107 27.845764 3.996009
v 11.957128 27.881454 4.012728
v 11.816075 27.980228 4.012728
v 11.816075 27.980228 3.996009
v 11.772073 28.024231 4.012728
v 11.650313 28.145988 4.012728
v 11.650313 28.145988 3.996009
v 11.614619 28.196960 4.012728
v 11.515847 28.338024 4.012728
v 11.515847 28.338024 3.996009
v 11.489551 28.394424 4.012728
v 11.416780 28.550480 4.012728
v 11.416780 28.550480 3.996009
v 11.400674 28.610588 4.012728
v 11.356105 28.776913 4.012728
v 11.356105 28.776913 3.996009
v 11.350680 28.838905 4.012728
v 11.335673 29.010452 4.012728
v 11.335673 29.010452 3.996009
v 11.341098 29.072449 4.012728
v 11.356105 29.243984 4.012728
v 11.356105 29.243984 3.996009
v 11.372211 29.304096 4.012728
v 11.416780 29.470421 4.012728
v 11.416780 29.470421 3.996009
v 11.443080 29.526821 4.012728
v 11.515847 29.682880 4.012728
v 11.515847 29.682880 3.996009
v 11.551541 29.733860 4.012728
v 11.650313 29.874920 4.012728
v 11.650313 29.874920 3.996009
v 11.694320 29.918922 4.012728
v 11.816075 30.040684 4.012728
v 11.816075 30.040684 3.996009
v 11.867053 30.076370 4.012728
v 12.008107 30.175133 4.012728
v 12.008107 30.175133 3.996009
v 12.064507 30.201439 4.012728
v 12.220567 30.274216 4.012728
v 12.220567 30.274216 3.996009
v 12.280677 30.290321 4.012728
v 12.447009 30.334885 4.012728
v 12.447009 30.334885 3.996009
v 12.509000 30.340309 4.012728
v 12.680537 30.355316 4.012728
v 12.680537 30.355316 3.996009
v 12.742532 30.349895 4.012728
v 12.914069 30.334885 4.012728
v 12.914069 30.334885 3.996009
v 12.974183 30.318775 4.012728
v 13.140510 30.274216 4.012728
v 13.140510 30.274216 3.996009
v 13.196908 30.247910 4.012728
v 13.352969 30.175133 4.012728
v 13.352969 30.175133 3.996009
v 13.403945 30.139446 4.012728
v 13.544999 30.040684 3.996009
v 13.544999 30.040684 4.012728
v 13.589002 29.996677 4.012728
v 13.710765 29.874920 4.012727
v 13.710765 29.874920 3.996009
v 13.746459 29.823944 4.012727
v 13.845220 29.682880 4.012727
v 13.845220 29.682880 3.996009
v 13.871522 29.626484 4.012727
v 13.944295 29.470421 4.012727
v 13.944295 29.470421 3.996009
v 13.960399 29.410309 4.012727
v 14.004966 29.243984 4.012727
v 14.004966 29.243984 3.996009
v 14.010390 29.181992 4.012727
v 14.025401 29.010452 4.012727
v 14.025401 29.010452 3.996009
v 14.019979 28.948456 4.012727
v 14.004966 28.776913 4.012727
v 14.004966 28.776913 3.996009
v 13.988862 28.716808 4.012727
v 13.944295 28.550480 4.012727
v 13.944295 28.550480 3.996009
v 13.917996 28.494080 4.012727
v 13.845220 28.338024 4.012728
v 13.845220 28.338024 3.996009
v 13.809529 28.287045 4.012728
v 13.710765 28.145988 4.012728
v 13.710765 28.145988 3.996009
v 13.666759 28.101982 4.012728
v 13.544999 27.980228 4.012728
v 13.544999 27.980228 3.996009
v 13.494023 27.944538 4.012728
v 13.352969 27.845764 4.012728
v 13.352969 27.845764 3.996009
v 13.296569 27.819466 4.012728
v 13.140510 27.746696 4.012728
v 13.140510 27.746696 3.996009
v 13.080400 27.730587 4.012728
v 12.906644 -30.271822 1.972403
v 12.680541 -30.291603 1.972403
v 12.837073 -29.877275 1.483591
v 12.680541 -29.890972 1.483591
v 12.454446 -30.271822 1.972403
v 12.524013 -29.877275 1.483591
v 12.235213 -30.213079 1.972403
v 12.372237 -29.836607 1.483591
v 12.029517 -30.117159 1.972403
v 12.229833 -29.770205 1.483591
v 11.843600 -29.986980 1.972403
v 12.101119 -29.680079 1.483591
v 11.683114 -29.826492 1.972403
v 11.990016 -29.568972 1.483591
v 11.552934 -29.640575 1.972403
v 11.899892 -29.440260 1.483591
v 11.457015 -29.434877 1.972403
v 11.833484 -29.297853 1.483591
v 11.398271 -29.215651 1.972403
v 11.792813 -29.146080 1.483591
v 11.378493 -28.989552 1.972403
v 11.779120 -28.989552 1.483591
v 11.398271 -28.763451 1.972403
v 11.792813 -28.833021 1.483591
v 11.457015 -28.544222 1.972403
v 11.833484 -28.681246 1.483591
v 11.552934 -28.338524 1.972403
v 11.899892 -28.538839 1.483591
v 11.683114 -28.152607 1.972403
v 11.990016 -28.410128 1.483591
v 11.843600 -27.992121 1.972403
v 12.101119 -28.299021 1.483591
v 12.029517 -27.861940 1.972403
v 12.229833 -28.208897 1.483591
v 12.235213 -27.766022 1.972403
v 12.372237 -28.142492 1.483591
v 12.454446 -27.707277 1.972403
v 12.524013 -28.101824 1.483591
v 12.680541 -27.687498 1.972403
v 12.680541 -28.088129 1.483591
v 12.906644 -27.707277 1.972403
v 12.837073 -28.101824 1.483591
v 13.125875 -27.766022 1.972403
v 12.988847 -28.142492 1.483591
v 13.331569 -27.861940 1.972403
v 13.131253 -28.208897 1.483591
v 13.517488 -27.992121 1.972403
v 13.259965 -28.299021 1.483591
v 13.677974 -28.152607 1.972403
v 13.371072 -28.410128 1.483591
v 13.808154 -28.338522 1.972403
v 13.461194 -28.538839 1.483591
v 13.904071 -28.544222 1.972403
v 13.527600 -28.681246 1.483591
v 13.962815 -28.763451 1.972403
v 13.568267 -28.833019 1.483591
v 13.982594 -28.989552 1.972403
v 13.581965 -28.989552 1.483591
v 13.962815 -29.215651 1.972403
v 13.568267 -29.146080 1.483591
v 13.904071 -29.434877 1.972403
v 13.527600 -29.297853 1.483591
v 13.808154 -29.640575 1.972403
v 13.461194 -29.440260 1.483591
v 13.677974 -29.826492 1.972403
v 13.371072 -29.568972 1.483591
v 13.517488 -29.986979 1.972403
v 13.259965 -29.680079 1.483591
v 13.331569 -30.117159 1.972403
v 13.131253 -29.770205 1.483591
v 13.125875 -30.213079 1.972403
v 12.988847 -29.836607 1.483591
v 12.852181 -30.320158 4.012727
v 12.914210 -30.314734 3.996009
v 12.914210 -30.314734 4.012727
v 12.680541 -30.335176 4.012728
v 12.680541 -30.335176 3.996009
v 12.618510 -30.329748 4.012728
v 12.446879 -30.314734 4.012728
v 12.446879 -30.314734 3.996009
v 12.386733 -30.298616 4.012728
v 12.220311 -30.254025 4.012728
v 12.220311 -30.254025 3.996009
v 12.163880 -30.227709 4.012728
v 12.007731 -30.154896 4.012728
v 12.007731 -30.154896 3.996009
v 11.956727 -30.119181 4.012728
v 11.815593 -30.020359 4.012728
v 11.815593 -30.020359 3.996009
v 11.771564 -29.976332 4.012728
v 11.649735 -29.854502 4.012728
v 11.649735 -29.854502 3.996009
v 11.614022 -29.803495 4.012728
v 11.515199 -29.662361 4.012728
v 11.515199 -29.662361 3.996009
v 11.488885 -29.605930 4.012728
v 11.416070 -29.449781 4.012728
v 11.416070 -29.449781 3.996009
v 11.399955 -29.389637 4.012728
v 11.355359 -29.223217 4.012728
v 11.355359 -29.223217 3.996009
v 11.349935 -29.161186 4.012728
v 11.334920 -28.989552 4.012728
v 11.334920 -28.989552 3.996009
v 11.340346 -28.927521 4.012728
v 11.355359 -28.755886 4.012728
v 11.355359 -28.755886 3.996009
v 11.371476 -28.695740 4.012728
v 11.416070 -28.529320 4.012728
v 11.416070 -28.529320 3.996009
v 11.442384 -28.472887 4.012728
v 11.515199 -28.316736 4.012728
v 11.515199 -28.316736 3.996009
v 11.550912 -28.265734 4.012728
v 11.649735 -28.124599 4.012728
v 11.649735 -28.124599 3.996009
v 11.693763 -28.080570 4.012728
v 11.815593 -27.958742 4.012728
v 11.815593 -27.958742 3.996009
v 11.866599 -27.923029 4.012728
v 12.007731 -27.824205 3.996009
v 12.007731 -27.824205 4.012728
v 12.064164 -27.797892 4.012728
v 12.220311 -27.725077 4.012728
v 12.220311 -27.725077 3.996009
v 12.280456 -27.708960 4.012728
v 12.446879 -27.664368 4.012728
v 12.446879 -27.664368 3.996009
v 12.508906 -27.658941 4.012728
v 12.680541 -27.643927 4.012728
v 12.680541 -27.643927 3.996009
v 12.742570 -27.649353 4.012728
v 12.914210 -27.664368 4.012728
v 12.914210 -27.664368 3.996009
v 12.974355 -27.680483 4.012728
v 13.140777 -27.725077 4.012728
v 13.140777 -27.725077 3.996009
v 13.197207 -27.751390 4.012728
v 13.353354 -27.824205 4.012728
v 13.353354 -27.824205 3.996009
v 13.404359 -27.859919 4.012728
v 13.545495 -27.958742 4.012728
v 13.545495 -27.958742 3.996009
v 13.589524 -28.002771 4.012728
v 13.711352 -28.124599 4.012728
v 13.711352 -28.124599 3.996009
v 13.747066 -28.175604 4.012728
v 13.845889 -28.316736 4.012728
v 13.845889 -28.316736 3.996009
v 13.872203 -28.373169 4.012728
v 13.945016 -28.529320 4.012728
v 13.945016 -28.529320 3.996009
v 13.961133 -28.589462 4.012728
v 14.005727 -28.755886 3.996009
v 14.005727 -28.755886 4.012728
v 14.011151 -28.817913 4.012728
v 14.026168 -28.989552 4.012727
v 14.026168 -28.989552 3.996009
v 14.020743 -29.051580 4.012727
v 14.005727 -29.223217 4.012727
v 14.005727 -29.223217 3.996009
v 13.989610 -29.283360 4.012727
v 13.945016 -29.449781 4.012727
v 13.945016 -29.449781 3.996009
v 13.918700 -29.506214 4.012727
v 13.845889 -29.662361 4.012727
v 13.845889 -29.662361 3.996009
v 13.810176 -29.713367 4.012727
v 13.711352 -29.854502 4.012727
v 13.711352 -29.854502 3.996009
v 13.667325 -29.898531 4.012727
v 13.545495 -30.020359 4.012727
v 13.545495 -30.020359 3.996009
v 13.494487 -30.056074 4.012727
v 13.353354 -30.154894 4.012727
v 13.353354 -30.154894 3.996009
v 13.296924 -30.181210 4.012727
v 13.140777 -30.254025 4.012727
v 13.140777 -30.254025 3.996009
v 13.080630 -30.270140 4.012727
f 1 2 3
f 4 5 6
f 7 8 9
f 10 7 9
f 8 11 9
f 11 12 9
f 12 10 9
f 13 14 15
f 14 16 15
f 16 17 15
f 17 13 15
f 7 18 8
f 18 19 8
f 19 11 8
f 20 7 10
f 12 21 10
f 21 20 10
f 22 23 14
f 24 22 14
f 13 24 14
f 23 25 14
f 25 16 14
f 17 26 13
f 26 24 13
f 7 27 18
f 27 28 18
f 28 19 18
f 29 7 20
f 21 30 20
f 30 29 20
f 22 31 23
f 31 32 23
f 32 25 23
f 26 33 24
f 33 22 24
f 7 34 27
f 34 35 27
f 35 28 27
f 30 36 29
f 36 7 29
f 22 37 31
f 37 38 31
f 38 32 31
f 39 40 22
f 40 41 22
f 41 42 22
f 42 43 22
f 43 44 22
f 44 45 22
f 45 46 22
f 46 47 22
f 47 48 22
f 48 49 22
f 49 37 22
f 33 50 22
f 50 39 22
f 7 51 34
f 51 52 34
f 52 35 34
f 53 54 7
f 54 55 7
f 55 56 7
f 56 57 7
f 57 51 7
f 36 58 7
f 58 53 7
f 49 59 37
f 59 38 37
f 60 40 39
f 50 61 39
f 61 60 39
f 57 62 51
f 62 52 51
f 63 54 53
f 58 64 53
f 64 63 53
f 48 65 49
f 65 59 49
f 66 40 60
f 61 67 60
f 67 66 60
f 56 68 57
f 68 62 57
f 69 54 63
f 64 70 63
f 70 69 63
f 47 71 48
f 71 65 48
f 72 40 66
f 73 72 66
f 67 74 66
f 74 73 66
f 55 75 56
f 75 68 56
f 76 54 69
f 70 77 69
f 77 76 69
f 46 78 47
f 78 71 47
f 79 72 73
f 74 80 73
f 80 79 73
f 54 81 55
f 81 75 55
f 82 54 76
f 77 83 76
f 83 82 76
f 45 84 46
f 84 78 46
f 85 72 79
f 80 86 79
f 86 85 79
f 82 87 54
f 87 88 54
f 88 89 54
f 89 81 54
f 90 87 82
f 83 91 82
f 91 90 82
f 44 92 45
f 92 93 45
f 93 84 45
f 94 95 85
f 95 72 85
f 86 96 85
f 96 94 85
f 97 98 87
f 98 99 87
f 99 100 87
f 101 102 87
f 103 101 87
f 100 103 87
f 90 97 87
f 104 88 87
f 102 104 87
f 91 97 90
f 105 92 44
f 43 105 44
f 106 107 94
f 108 106 94
f 107 109 94
f 109 95 94
f 110 6 94
f 6 5 94
f 5 108 94
f 96 110 94
f 111 98 97
f 91 111 97
f 112 105 43
f 42 112 43
f 113 99 98
f 111 113 98
f 114 112 42
f 41 114 42
f 115 100 99
f 113 115 99
f 40 116 41
f 117 114 41
f 116 117 41
f 118 103 100
f 119 118 100
f 115 119 100
f 40 120 116
f 121 117 116
f 120 121 116
f 122 103 118
f 123 122 118
f 124 123 118
f 119 124 118
f 40 125 120
f 126 121 120
f 125 126 120
f 127 122 123
f 128 127 123
f 124 128 123
f 40 129 125
f 130 126 125
f 129 130 125
f 131 122 127
f 132 131 127
f 128 132 127
f 40 133 129
f 134 130 129
f 133 134 129
f 135 136 131
f 137 138 131
f 138 139 131
f 139 135 131
f 136 140 131
f 140 122 131
f 141 137 131
f 132 141 131
f 142 143 133
f 144 142 133
f 40 144 133
f 145 134 133
f 143 145 133
f 146 147 137
f 147 138 137
f 148 146 137
f 141 148 137
f 142 149 143
f 150 145 143
f 149 150 143
f 151 147 146
f 2 151 146
f 152 2 146
f 153 152 146
f 148 153 146
f 142 154 149
f 155 150 149
f 154 155 149
f 3 2 152
f 154 3 152
f 156 154 152
f 153 156 152
f 142 3 154
f 156 155 154
f 1 157 2
f 157 151 2
f 158 1 3
f 142 158 3
f 159 147 151
f 157 159 151
f 160 158 142
f 144 160 142
f 161 138 147
f 159 161 147
f 162 160 144
f 40 162 144
f 163 139 138
f 161 163 138
f 164 162 40
f 72 164 40
f 165 135 139
f 163 165 139
f 166 164 72
f 95 166 72
f 167 136 135
f 165 167 135
f 168 166 95
f 109 168 95
f 169 140 136
f 167 169 136
f 170 168 109
f 107 170 109
f 171 122 140
f 169 171 140
f 172 170 107
f 106 172 107
f 173 103 122
f 171 173 122
f 174 172 106
f 108 174 106
f 175 101 103
f 173 175 103
f 176 174 108
f 5 176 108
f 177 102 101
f 175 178 101
f 179 102 177
f 180 179 177
f 110 181 6
f 182 4 6
f 181 182 6
f 183 102 179
f 184 183 179
f 180 184 179
f 110 185 181
f 186 182 181
f 185 186 181
f 187 102 183
f 188 187 183
f 184 188 183
f 110 189 185
f 190 186 185
f 189 190 185
f 191 102 187
f 192 191 187
f 193 192 187
f 188 193 187
f 110 194 189
f 194 195 189
f 196 190 189
f 195 196 189
f 197 198 192
f 198 199 192
f 199 191 192
f 200 197 192
f 193 200 192
f 194 201 195
f 201 202 195
f 203 196 195
f 202 203 195
f 204 205 197
f 205 198 197
f 206 207 197
f 207 208 197
f 208 204 197
f 209 206 197
f 200 209 197
f 210 211 202
f 201 212 202
f 212 210 202
f 211 213 202
f 213 214 202
f 214 215 202
f 216 203 202
f 215 216 202
f 217 218 206
f 218 219 206
f 219 207 206
f 220 217 206
f 209 220 206
f 221 222 215
f 214 223 215
f 223 221 215
f 224 216 215
f 222 224 215
f 225 226 217
f 226 218 217
f 227 225 217
f 220 227 217
f 228 229 222
f 221 228 222
f 230 224 222
f 229 230 222
f 231 226 225
f 232 231 225
f 227 232 225
f 228 233 229
f 234 230 229
f 233 234 229
f 235 226 231
f 236 235 231
f 232 236 231
f 228 237 233
f 238 234 233
f 237 238 233
f 236 239 235
f 240 194 110
f 96 240 110
f 191 104 102
f 199 241 191
f 241 104 191
f 240 242 194
f 242 243 194
f 243 201 194
f 198 244 199
f 244 241 199
f 243 245 201
f 245 212 201
f 205 246 198
f 246 244 198
f 245 247 212
f 247 210 212
f 204 248 205
f 248 246 205
f 247 249 210
f 249 211 210
f 208 250 204
f 250 248 204
f 249 251 211
f 251 213 211
f 207 252 208
f 252 250 208
f 251 253 213
f 253 214 213
f 219 254 207
f 254 252 207
f 253 255 214
f 255 223 214
f 218 256 219
f 256 254 219
f 255 257 223
f 257 221 223
f 226 258 218
f 258 259 218
f 259 256 218
f 257 260 221
f 260 228 221
f 178 180 177
f 101 178 177
f 4 176 5
f 1 261 157
f 261 262 157
f 262 159 157
f 263 261 1
f 158 263 1
f 264 161 159
f 262 264 159
f 265 263 158
f 160 265 158
f 266 163 161
f 264 266 161
f 267 265 160
f 162 267 160
f 268 165 163
f 266 268 163
f 269 267 162
f 164 269 162
f 270 167 165
f 268 270 165
f 271 269 164
f 166 271 164
f 272 169 167
f 270 272 167
f 273 271 166
f 168 273 166
f 274 171 169
f 272 274 169
f 275 273 168
f 170 275 168
f 276 173 171
f 274 276 171
f 277 275 170
f 172 277 170
f 278 175 173
f 276 278 173
f 279 277 172
f 174 279 172
f 280 178 175
f 278 280 175
f 281 279 174
f 176 281 174
f 280 282 178
f 282 180 178
f 4 283 176
f 283 281 176
f 284 184 180
f 282 284 180
f 285 283 4
f 182 285 4
f 286 188 184
f 284 286 184
f 287 285 182
f 186 287 182
f 288 193 188
f 286 288 188
f 289 287 186
f 190 289 186
f 290 200 193
f 288 290 193
f 291 289 190
f 196 291 190
f 292 209 200
f 290 292 200
f 293 291 196
f 203 293 196
f 294 220 209
f 292 294 209
f 295 293 203
f 216 295 203
f 296 227 220
f 294 296 220
f 297 295 216
f 224 297 216
f 298 232 227
f 296 298 227
f 299 297 224
f 230 299 224
f 300 236 232
f 298 300 232
f 301 299 230
f 234 301 230
f 302 239 236
f 300 302 236
f 303 301 234
f 238 303 234
f 302 304 239
f 305 89 88
f 104 305 88
f 83 306 91
f 306 111 91
f 307 93 92
f 105 307 92
f 86 308 96
f 309 310 96
f 310 311 96
f 311 240 96
f 312 313 96
f 313 314 96
f 314 309 96
f 315 312 96
f 308 315 96
f 306 316 111
f 316 317 111
f 317 318 111
f 318 319 111
f 319 320 111
f 321 322 111
f 323 321 111
f 320 323 111
f 322 113 111
f 112 324 105
f 324 325 105
f 326 327 105
f 327 328 105
f 328 307 105
f 329 330 105
f 330 331 105
f 331 326 105
f 325 332 105
f 332 333 105
f 333 329 105
f 322 334 113
f 334 115 113
f 114 335 112
f 335 324 112
f 334 336 115
f 336 119 115
f 117 337 114
f 337 335 114
f 336 338 119
f 338 124 119
f 121 339 117
f 339 337 117
f 338 340 124
f 340 128 124
f 126 341 121
f 341 339 121
f 340 342 128
f 342 132 128
f 130 343 126
f 343 341 126
f 342 344 132
f 344 141 132
f 134 345 130
f 345 343 130
f 344 346 141
f 346 148 141
f 145 347 134
f 347 345 134
f 346 348 148
f 348 153 148
f 150 349 145
f 349 347 145
f 348 350 153
f 350 156 153
f 155 351 150
f 351 349 150
f 350 352 156
f 352 155 156
f 352 351 155
f 353 264 262
f 261 354 262
f 354 353 262
f 263 355 261
f 355 354 261
f 353 356 264
f 356 266 264
f 265 357 263
f 357 355 263
f 356 358 266
f 358 268 266
f 267 359 265
f 359 357 265
f 358 360 268
f 360 270 268
f 269 361 267
f 361 359 267
f 360 362 270
f 362 272 270
f 271 363 269
f 363 361 269
f 362 364 272
f 364 274 272
f 273 365 271
f 365 363 271
f 364 366 274
f 366 276 274
f 275 367 273
f 367 365 273
f 366 368 276
f 368 278 276
f 277 369 275
f 369 367 275
f 368 370 278
f 370 280 278
f 279 371 277
f 371 369 277
f 370 372 280
f 372 282 280
f 281 373 279
f 373 371 279
f 372 374 282
f 374 284 282
f 283 375 281
f 375 373 281
f 374 376 284
f 285 375 283
f 377 378 304
f 287 375 285
f 379 378 380
f 289 375 287
f 381 377 304
f 299 382 297
f 304 302 381
f 295 297 382
f 378 379 304
f 295 382 383
f 384 303 379
f 295 383 293
f 385 381 300
f 293 383 291
f 300 298 385
f 291 383 289
f 296 386 298
f 289 383 375
f 294 386 296
f 311 387 240
f 387 242 240
f 241 388 104
f 389 390 104
f 390 391 104
f 391 305 104
f 392 393 104
f 393 394 104
f 394 389 104
f 395 392 104
f 388 395 104
f 260 396 258
f 396 397 258
f 397 259 258
f 398 399 260
f 257 398 260
f 400 396 260
f 401 402 260
f 402 403 260
f 403 400 260
f 399 404 260
f 404 405 260
f 405 401 260
f 241 406 388
f 406 407 388
f 408 395 388
f 407 408 388
f 310 387 311
f 391 409 305
f 409 89 305
f 83 410 306
f 410 316 306
f 328 411 307
f 411 93 307
f 86 412 308
f 412 413 308
f 414 315 308
f 413 414 308
f 400 415 396
f 415 397 396
f 416 417 399
f 398 416 399
f 417 380 399
f 380 404 399
f 390 409 391
f 410 317 316
f 327 411 328
f 412 418 413
f 418 414 413
f 406 419 407
f 419 420 407
f 420 408 407
f 309 421 310
f 421 387 310
f 403 422 400
f 422 415 400
f 416 423 417
f 423 424 417
f 424 380 417
f 389 425 390
f 425 409 390
f 410 426 317
f 426 318 317
f 326 427 327
f 427 411 327
f 412 428 418
f 428 429 418
f 429 414 418
f 419 430 420
f 430 408 420
f 314 421 309
f 402 422 403
f 423 431 424
f 431 380 424
f 394 425 389
f 426 319 318
f 331 427 326
f 428 432 429
f 432 414 429
f 419 433 430
f 433 434 430
f 434 408 430
f 313 435 314
f 435 421 314
f 401 436 402
f 436 422 402
f 423 437 431
f 437 438 431
f 438 380 431
f 393 439 394
f 439 425 394
f 426 440 319
f 440 320 319
f 330 441 331
f 441 427 331
f 428 442 432
f 442 443 432
f 443 414 432
f 433 444 434
f 444 408 434
f 312 435 313
f 405 436 401
f 437 445 438
f 445 380 438
f 392 439 393
f 440 323 320
f 329 441 330
f 442 446 443
f 446 414 443
f 433 447 444
f 447 448 444
f 448 408 444
f 315 449 312
f 449 435 312
f 404 450 405
f 450 436 405
f 437 451 445
f 451 452 445
f 452 380 445
f 395 453 392
f 453 439 392
f 440 454 323
f 454 321 323
f 333 455 329
f 455 441 329
f 442 456 446
f 456 457 446
f 457 414 446
f 447 458 448
f 458 408 448
f 414 449 315
f 451 459 452
f 459 380 452
f 380 450 404
f 454 460 321
f 460 322 321
f 456 461 457
f 461 414 457
f 408 462 395
f 462 453 395
f 332 463 333
f 463 455 333
f 464 465 408
f 458 464 408
f 465 466 408
f 466 467 408
f 467 468 408
f 468 462 408
f 469 322 460
f 454 469 460
f 325 470 332
f 470 463 332
f 471 414 461
f 472 471 461
f 473 472 461
f 474 473 461
f 456 474 461
f 467 475 468
f 475 462 468
f 476 334 469
f 334 322 469
f 454 477 469
f 477 478 469
f 478 476 469
f 325 479 470
f 479 463 470
f 480 473 474
f 456 481 474
f 481 482 474
f 482 480 474
f 467 483 475
f 483 484 475
f 484 462 475
f 485 338 476
f 338 336 476
f 336 334 476
f 478 486 476
f 486 485 476
f 325 487 479
f 487 488 479
f 488 463 479
f 489 473 480
f 482 490 480
f 490 489 480
f 467 491 483
f 491 492 483
f 492 484 483
f 362 338 485
f 364 362 485
f 493 364 485
f 486 494 485
f 494 493 485
f 325 324 487
f 324 335 487
f 335 337 487
f 337 361 487
f 361 495 487
f 495 496 487
f 496 488 487
f 497 473 489
f 490 498 489
f 498 497 489
f 467 499 491
f 499 500 491
f 500 492 491
f 370 368 493
f 501 374 493
f 374 372 493
f 372 370 493
f 366 364 493
f 368 366 493
f 494 502 493
f 502 501 493
f 373 503 495
f 365 367 495
f 367 369 495
f 369 371 495
f 371 373 495
f 361 363 495
f 363 365 495
f 503 504 495
f 504 496 495
f 505 473 497
f 498 506 497
f 506 505 497
f 507 501 499
f 467 507 499
f 501 508 499
f 508 509 499
f 509 500 499
f 507 510 501
f 510 511 501
f 511 374 501
f 502 508 501
f 512 513 503
f 513 514 503
f 514 515 503
f 515 505 503
f 375 512 503
f 373 375 503
f 505 516 503
f 516 517 503
f 517 504 503
f 518 473 505
f 515 519 505
f 519 518 505
f 506 516 505
f 362 340 338
f 339 361 337
f 362 342 340
f 341 361 339
f 362 344 342
f 359 361 341
f 343 359 341
f 362 346 344
f 345 359 343
f 358 348 346
f 360 358 346
f 362 360 346
f 347 359 345
f 358 356 348
f 356 350 348
f 349 357 347
f 357 359 347
f 356 352 350
f 355 357 349
f 354 355 349
f 351 354 349
f 353 351 352
f 356 353 352
f 353 354 351
f 511 376 374
f 290 288 520
f 521 512 375
f 303 304 379
f 522 523 375
f 523 524 375
f 524 525 375
f 525 521 375
f 526 520 288
f 511 527 376
f 290 520 292
f 286 284 526
f 507 528 510
f 528 529 510
f 529 511 510
f 514 530 515
f 530 531 515
f 531 519 515
f 467 532 507
f 532 528 507
f 529 533 511
f 533 527 511
f 513 534 514
f 534 530 514
f 531 535 519
f 535 518 519
f 520 386 292
f 466 536 467
f 536 532 467
f 537 376 527
f 533 538 527
f 538 537 527
f 512 539 513
f 539 534 513
f 535 540 518
f 540 473 518
f 381 302 300
f 465 541 466
f 541 536 466
f 542 376 537
f 538 543 537
f 543 542 537
f 521 544 512
f 544 539 512
f 540 545 473
f 545 472 473
f 286 526 288
f 294 292 386
f 386 385 298
f 542 546 376
f 546 547 376
f 464 548 465
f 548 541 465
f 543 549 542
f 549 546 542
f 525 550 521
f 550 544 521
f 545 551 472
f 551 471 472
f 458 447 464
f 447 552 464
f 552 548 464
f 549 553 546
f 553 547 546
f 524 554 525
f 554 550 525
f 551 414 471
f 551 449 414
f 553 555 547
f 555 376 547
f 523 556 524
f 556 554 524
f 555 557 376
f 557 526 376
f 522 558 523
f 558 556 523
f 557 559 526
f 559 520 526
f 375 560 522
f 560 558 522
f 559 561 520
f 561 386 520
f 383 562 375
f 562 560 375
f 561 563 386
f 563 385 386
f 382 564 383
f 564 562 383
f 563 565 385
f 565 381 385
f 566 567 382
f 567 564 382
f 565 568 381
f 568 377 381
f 384 569 566
f 569 567 566
f 568 570 377
f 570 378 377
f 379 571 384
f 571 569 384
f 570 380 378
f 459 451 379
f 451 572 379
f 572 571 379
f 570 450 380
f 226 235 237
f 226 237 228
f 258 226 228
f 258 228 260
f 235 239 238
f 235 238 237
f 238 239 304
f 238 304 303
f 573 574 575
f 574 576 575
f 574 577 576
f 577 578 576
f 577 579 578
f 579 580 578
f 579 581 580
f 581 582 580
f 581 583 582
f 583 584 582
f 583 585 584
f 585 586 584
f 585 587 586
f 587 588 586
f 587 589 588
f 589 590 588
f 589 591 590
f 591 592 590
f 591 593 592
f 593 594 592
f 593 595 594
f 595 596 594
f 595 597 596
f 597 598 596
f 597 599 598
f 599 600 598
f 599 601 600
f 601 602 600
f 601 603 602
f 603 604 602
f 603 605 604
f 605 606 604
f 605 607 606
f 607 608 606
f 607 609 608
f 609 610 608
f 609 611 610
f 611 612 610
f 611 613 612
f 613 614 612
f 613 615 614
f 615 616 614
f 615 617 616
f 617 618 616
f 617 619 618
f 619 620 618
f 619 621 620
f 621 622 620
f 621 623 622
f 623 624 622
f 623 625 624
f 625 626 624
f 625 627 626
f 627 628 626
f 627 629 628
f 629 630 628
f 629 631 630
f 631 632 630
f 631 633 632
f 633 634 632
f 633 635 634
f 635 636 634
f 635 637 636
f 637 638 636
f 637 639 638
f 639 640 638
f 639 641 640
f 641 642 640
f 641 643 642
f 643 644 642
f 643 573 644
f 573 575 644
f 645 646 647
f 648 649 646
f 648 646 645
f 650 649 648
f 651 652 649
f 651 649 650
f 653 652 651
f 654 655 652
f 654 652 653
f 656 655 654
f 657 658 655
f 657 655 656
f 659 658 657
f 660 661 658
f 660 658 659
f 662 661 660
f 663 664 661
f 663 661 662
f 665 664 663
f 666 667 664
f 666 664 665
f 668 667 666
f 669 670 667
f 669 667 668
f 671 670 669
f 672 673 670
f 672 670 671
f 674 673 672
f 675 676 673
f 675 673 674
f 677 676 675
f 678 679 676
f 678 676 677
f 680 679 678
f 681 682 679
f 681 679 680
f 683 682 681
f 684 685 682
f 684 682 683
f 686 685 684
f 687 688 685
f 687 685 686
f 687 689 688
f 689 690 691
f 689 691 688
f 690 692 691
f 693 691 692
f 693 692 694
f 694 695 693
f 695 696 697
f 695 697 693
f 696 698 697
f 698 699 700
f 698 700 697
f 699 701 700
f 701 702 703
f 701 703 700
f 702 704 703
f 704 705 706
f 704 706 703
f 705 707 706
f 708 706 707
f 708 707 709
f 709 710 708
f 710 711 712
f 710 712 708
f 711 713 712
f 713 714 715
f 713 715 712
f 714 716 715
f 716 717 718
f 716 718 715
f 717 719 718
f 719 720 721
f 719 721 718
f 720 722 721
f 722 723 724
f 722 724 721
f 723 725 724
f 725 726 727
f 725 727 724
f 726 728 727
f 728 729 730
f 728 730 727
f 729 731 730
f 731 732 733
f 731 733 730
f 732 734 733
f 734 735 736
f 734 736 733
f 735 737 736
f 737 738 739
f 737 739 736
f 738 740 739
f 741 739 740
f 741 740 742
f 743 741 742
f 744 745 741
f 744 741 743
f 746 745 744
f 747 748 745
f 747 745 746
f 749 748 747
f 750 751 748
f 750 748 749
f 752 751 750
f 647 646 751
f 647 751 752
f 577 574 652
f 574 649 652
f 574 573 649
f 573 646 649
f 573 643 646
f 643 751 646
f 643 641 751
f 641 748 751
f 641 639 748
f 639 745 748
f 639 637 745
f 637 741 745
f 637 635 741
f 635 739 741
f 635 633 739
f 633 736 739
f 633 631 736
f 631 733 736
f 631 629 733
f 629 730 733
f 629 627 730
f 627 727 730
f 627 625 727
f 625 724 727
f 625 623 724
f 623 721 724
f 623 621 721
f 621 718 721
f 621 619 718
f 619 715 718
f 619 617 715
f 617 712 715
f 617 615 712
f 615 708 712
f 615 613 708
f 613 706 708
f 613 611 706
f 611 703 706
f 611 609 703
f 609 700 703
f 609 607 700
f 607 697 700
f 607 605 697
f 605 693 697
f 605 603 693
f 603 691 693
f 603 601 691
f 601 688 691
f 601 599 688
f 599 685 688
f 599 597 685
f 597 682 685
f 597 595 682
f 595 679 682
f 595 593 679
f 593 676 679
f 593 591 676
f 591 673 676
f 591 589 673
f 589 670 673
f 589 587 670
f 587 667 670
f 587 585 667
f 585 664 667
f 585 583 664
f 583 661 664
f 583 581 661
f 581 658 661
f 581 579 658
f 579 655 658
f 579 577 655
f 577 652 655
f 575 576 614
f 576 612 614
f 576 578 612
f 578 610 612
f 578 580 610
f 580 608 610
f 580 582 608
f 582 606 608
f 582 584 606
f 584 604 606
f 584 586 604
f 586 602 604
f 586 588 602
f 588 600 602
f 588 590 600
f 590 598 600
f 590 592 598
f 592 596 598
f 592 594 596
f 614 616 575
f 616 644 575
f 616 618 644
f 618 642 644
f 618 620 642
f 620 640 642
f 620 622 640
f 622 638 640
f 622 624 638
f 624 636 638
f 624 626 636
f 626 634 636
f 626 628 634
f 628 632 634
f 628 630 632
f 753 754 755
f 754 756 755
f 754 757 756
f 757 758 756
f 757 759 758
f 759 760 758
f 759 761 760
f 761 762 760
f 761 763 762
f 763 764 762
f 763 765 764
f 765 766 764
f 765 767 766
f 767 768 766
f 767 769 768
f 769 770 768
f 769 771 770
f 771 772 770
f 771 773 772
f 773 774 772
f 773 775 774
f 775 776 774
f 775 777 776
f 777 778 776
f 777 779 778
f 779 780 778
f 779 781 780
f 781 782 780
f 781 783 782
f 783 784 782
f 783 785 784
f 785 786 784
f 785 787 786
f 787 788 786
f 787 789 788
f 789 790 788
f 789 791 790
f 791 792 790
f 791 793 792
f 793 794 792
f 793 795 794
f 795 796 794
f 795 797 796
f 797 798 796
f 797 799 798
f 799 800 798
f 799 801 800
f 801 802 800
f 801 803 802
f 803 804 802
f 803 805 804
f 805 806 804
f 805 807 806
f 807 808 806
f 807 809 808
f 809 810 808
f 809 811 810
f 811 812 810
f 811 813 812
f 813 814 812
f 813 815 814
f 815 816 814
f 815 817 816
f 817 818 816
f 817 819 818
f 819 820 818
f 819 821 820
f 821 822 820
f 821 823 822
f 823 824 822
f 823 753 824
f 753 755 824
f 825 826 827
f 828 829 826
f 828 826 825
f 830 829 828
f 831 832 829
f 831 829 830
f 833 832 831
f 834 835 832
f 834 832 833
f 836 835 834
f 837 838 835
f 837 835 836
f 839 838 837
f 840 841 838
f 840 838 839
f 842 841 840
f 843 844 841
f 843 841 842
f 845 844 843
f 846 847 844
f 846 844 845
f 848 847 846
f 849 850 847
f 849 847 848
f 851 850 849
f 852 853 850
f 852 850 851
f 854 853 852
f 855 856 853
f 855 853 854
f 857 856 855
f 858 859 856
f 858 856 857
f 860 859 858
f 861 862 859
f 861 859 860
f 863 862 861
f 864 865 862
f 864 862 863
f 866 865 864
f 867 868 865
f 867 865 866
f 869 868 867
f 870 871 868
f 870 868 869
f 870 872 871
f 872 873 874
f 872 874 871
f 873 875 874
f 875 876 877
f 875 877 874
f 876 878 877
f 878 879 880
f 878 880 877
f 879 881 880
f 881 882 883
f 881 883 880
f 882 884 883
f 884 885 886
f 884 886 883
f 885 887 886
f 887 888 889
f 887 889 886
f 888 890 889
f 890 891 892
f 890 892 889
f 891 893 892
f 893 894 895
f 893 895 892
f 894 896 895
f 896 897 898
f 896 898 895
f 897 899 898
f 899 900 901
f 899 901 898
f 900 902 901
f 903 901 902
f 903 902 904
f 904 905 903
f 905 906 907
f 905 907 903
f 906 908 907
f 908 909 910
f 908 910 907
f 909 911 910
f 911 912 913
f 911 913 910
f 912 914 913
f 914 915 916
f 914 916 913
f 915 917 916
f 917 918 919
f 917 919 916
f 918 920 919
f 920 921 922
f 920 922 919
f 923 922 921
f 924 925 922
f 924 922 923
f 926 925 924
f 927 928 925
f 927 925 926
f 929 928 927
f 930 931 928
f 930 928 929
f 932 931 930
f 827 826 931
f 827 931 932
f 757 754 832
f 754 829 832
f 754 753 829
f 753 826 829
f 753 823 826
f 823 931 826
f 823 821 931
f 821 928 931
f 821 819 928
f 819 925 928
f 819 817 925
f 817 922 925
f 817 815 922
f 815 919 922
f 815 813 919
f 813 916 919
f 813 811 916
f 811 913 916
f 811 809 913
f 809 910 913
f 809 807 910
f 807 907 910
f 807 805 907
f 805 903 907
f 805 803 903
f 803 901 903
f 803 801 901
f 801 898 901
f 801 799 898
f 799 895 898
f 799 797 895
f 797 892 895
f 797 795 892
f 795 889 892
f 795 793 889
f 793 886 889
f 793 791 886
f 791 883 886
f 791 789 883
f 789 880 883
f 789 787 880
f 787 877 880
f 787 785 877
f 785 874 877
f 785 783 874
f 783 871 874
f 783 781 871
f 781 868 871
f 781 779 868
f 779 865 868
f 779 777 865
f 777 862 865
f 777 775 862
f 775 859 862
f 775 773 859
f 773 856 859
f 773 771 856
f 771 853 856
f 771 769 853
f 769 850 853
f 769 767 850
f 767 847 850
f 767 765 847
f 765 844 847
f 765 763 844
f 763 841 844
f 763 761 841
f 761 838 841
f 761 759 838
f 759 835 838
f 759 757 835
f 757 832 835
f 755 756 794
f 756 792 794
f 756 758 792
f 758 790 792
f 758 760 790
f 760 788 790
f 760 762 788
f 762 786 788
f 762 764 786
f 764 784 786
f 764 766 784
f 766 782 784
f 766 768 782
f 768 780 782
f 768 770 780
f 770 778 780
f 770 772 778
f 772 776 778
f 772 774 776
f 794 796 755
f 796 824 755
f 796 798 824
f 798 822 824
f 798 800 822
f 800 820 822
f 800 802 820
f 802 818 820
f 802 804 818
f 804 816 818
f 804 806 816
f 806 814 816
f 806 808 814
f 808 812 814
f 808 810 812
f 933 934 935
f 934 936 935
f 934 937 936
f 937 938 936
f 937 939 938
f 939 940 938
f 939 941 940
f 941 942 940
f 941 943 942
f 943 944 942
f 943 945 944
f 945 946 944
f 945 947 946
f 947 948 946
f 947 949 948
f 949 950 948
f 949 951 950
f 951 952 950
f 951 953 952
f 953 954 952
f 953 955 954
f 955 956 954
f 955 957 956
f 957 958 956
f 957 959 958
f 959 960 958
f 959 961 960
f 961 962 960
f 961 963 962
f 963 964 962
f 963 965 964
f 965 966 964
f 965 967 966
f 967 968 966
f 967 969 968
f 969 970 968
f 969 971 970
f 971 972 970
f 971 973 972
f 973 974 972
f 973 975 974
f 975 976 974
f 975 977 976
f 977 978 976
f 977 979 978
f 979 980 978
f 979 981 980
f 981 982 980
f 981 983 982
f 983 984 982
f 983 985 984
f 985 986 984
f 985 987 986
f 987 988 986
f 987 989 988
f 989 990 988
f 989 991 990
f 991 992 990
f 991 993 992
f 993 994 992
f 993 995 994
f 995 996 994
f 995 997 996
f 997 998 996
f 997 999 998
f 999 1000 998
f 999 1001 1000
f 1001 1002 1000
f 1001 1003 1002
f 1003 1004 1002
f 1003 933 1004
f 933 935 1004
f 1005 1006 1007
f 1008 1009 1006
f 1008 1006 1005
f 1010 1009 1008
f 1011 1012 1009
f 1011 1009 1010
f 1013 1012 1011
f 1014 1015 1012
f 1014 1012 1013
f 1016 1015 1014
f 1017 1018 1015
f 1017 1015 1016
f 1019 1018 1017
f 1020 1021 1018
f 1020 1018 1019
f 1022 1021 1020
f 1023 1024 1021
f 1023 1021 1022
f 1025 1024 1023
f 1026 1027 1024
f 1026 1024 1025
f 1028 1027 1026
f 1029 1030 1027
f 1029 1027 1028
f 1031 1030 1029
f 1032 1033 1030
f 1032 1030 1031
f 1034 1033 1032
f 1035 1036 1033
f 1035 1033 1034
f 1037 1036 1035
f 1038 1039 1036
f 1038 1036 1037
f 1040 1039 1038
f 1041 1042 1039
f 1041 1039 1040
f 1043 1042 1041
f 1044 1045 1042
f 1044 1042 1043
f 1046 1045 1044
f 1047 1048 1045
f 1047 1045 1046
f 1049 1048 1047
f 1050 1051 1048
f 1050 1048 1049
f 1050 1052 1051
f 1052 1053 1054
f 1052 1054 1051
f 1053 1055 1054
f 1055 1056 1057
f 1055 1057 1054
f 1056 1058 1057
f 1058 1059 1060
f 1058 1060 1057
f 1059 1061 1060
f 1061 1062 1063
f 1061 1063 1060
f 1062 1064 1063
f 1064 1065 1066
f 1064 1066 1063
f 1065 1067 1066
f 1067 1068 1069
f 1067 1069 1066
f 1068 1070 1069
f 1070 1071 1072
f 1070 1072 1069
f 1071 1073 1072
f 1074 1072 1073
f 1074 1073 1075
f 1075 1076 1074
f 1076 1077 1078
f 1076 1078 1074
f 1077 1079 1078
f 1079 1080 1081
f 1079 1081 1078
f 1080 1082 1081
f 1082 1083 1084
f 1082 1084 1081
f 1083 1085 1084
f 1085 1086 1087
f 1085 1087 1084
f 1086 1088 1087
f 1088 1089 1090
f 1088 1090 1087
f 1089 1091 1090
f 1091 1092 1093
f 1091 1093 1090
f 1092 1094 1093
f 1094 1095 1096
f 1094 1096 1093
f 1095 1097 1096
f 1097 1098 1099
f 1097 1099 1096
f 1098 1100 1099
f 1100 1101 1102
f 1100 1102 1099
f 1103 1102 1101
f 1104 1105 1102
f 1104 1102 1103
f 1106 1105 1104
f 1107 1108 1105
f 1107 1105 1106
f 1109 1108 1107
f 1110 1111 1108
f 1110 1108 1109
f 1112 1111 1110
f 1007 1006 1111
f 1007 1111 1112
f 937 934 1012
f 934 1009 1012
f 934 933 1009
f 933 1006 1009
f 933 1003 1006
f 1003 1111 1006
f 1003 1001 1111
f 1001 1108 1111
f 1001 999 1108
f 999 1105 1108
f 999 997 1105
f 997 1102 1105
f 997 995 1102
f 995 1099 1102
f 995 993 1099
f 993 1096 1099
f 993 991 1096
f 991 1093 1096
f 991 989 1093
f 989 1090 1093
f 989 987 1090
f 987 1087 1090
f 987 985 1087
f 985 1084 1087
f 985 983 1084
f 983 1081 1084
f 983 981 1081
f 981 1078 1081
f 981 979 1078
f 979 1074 1078
f 979 977 1074
f 977 1072 1074
f 977 975 1072
f 975 1069 1072
f 975 973 1069
f 973 1066 1069
f 973 971 1066
f 971 1063 1066
f 971 969 1063
f 969 1060 1063
f 969 967 1060
f 967 1057 1060
f 967 965 1057
f 965 1054 1057
f 965 963 1054
f 963 1051 1054
f 963 961 1051
f 961 1048 1051
f 961 959 1048
f 959 1045 1048
f 959 957 1045
f 957 1042 1045
f 957 955 1042
f 955 1039 1042
f 955 953 1039
f 953 1036 1039
f 953 951 1036
f 951 1033 1036
f 951 949 1033
f 949 1030 1033
f 949 947 1030
f 947 1027 1030
f 947 945 1027
f 945 1024 1027
f 945 943 1024
f 943 1021 1024
f 943 941 1021
f 941 1018 1021
f 941 939 1018
f 939 1015 1018
f 939 937 1015
f 937 1012 1015
f 935 936 974
f 936 972 974
f 936 938 972
f 938 970 972
f 938 940 970
f 940 968 970
f 940 942 968
f 942 966 968
f 942 944 966
f 944 964 966
f 944 946 964
f 946 962 964
f 946 948 962
f 948 960 962
f 948 950 960
f 950 958 960
f 950 952 958
f 952 956 958
f 952 954 956
f 974 976 935
f 976 1004 935
f 976 978 1004
f 978 1002 1004
f 978 980 1002
f 980 1000 1002
f 980 982 1000
f 982 998 1000
f 982 984 998
f 984 996 998
f 984 986 996
f 986 994 996
f 986 988 994
f 988 992 994
f 988 990 992
f 1113 1114 1115
f 1114 1116 1115
f 1114 1117 1116
f 1117 1118 1116
f 1117 1119 1118
f 1119 1120 1118
f 1119 1121 1120
f 1121 1122 1120
f 1121 1123 1122
f 1123 1124 1122
f 1123 1125 1124
f 1125 1126 1124
f 1125 1127 1126
f 1127 1128 1126
f 1127 1129 1128
f 1129 1130 1128
f 1129 1131 1130
f 1131 1132 1130
f 1131 1133 1132
f 1133 1134 1132
f 1133 1135 1134
f 1135 1136 1134
f 1135 1137 1136
f 1137 1138 1136
f 1137 1139 1138
f 1139 1140 1138
f 1139 1141 1140
f 1141 1142 1140
f 1141 1143 1142
f 1143 1144 1142
f 1143 1145 1144
f 1145 1146 1144
f 1145 1147 1146
f 1147 1148 1146
f 1147 1149 1148
f 1149 1150 1148
f 1149 1151 1150
f 1151 1152 1150
f 1151 1153 1152
f 1153 1154 1152
f 1153 1155 1154
f 1155 1156 1154
f 1155 1157 1156
f 1157 1158 1156
f 1157 1159 1158
f 1159 1160 1158
f 1159 1161 1160
f 1161 1162 1160
f 1161 1163 1162
f 1163 1164 1162
f 1163 1165 1164
f 1165 1166 1164
f 1165 1167 1166
f 1167 1168 1166
f 1167 1169 1168
f 1169 1170 1168
f 1169 1171 1170
f 1171 1172 1170
f 1171 1173 1172
f 1173 1174 1172
f 1173 1175 1174
f 1175 1176 1174
f 1175 1177 1176
f 1177 1178 1176
f 1177 1179 1178
f 1179 1180 1178
f 1179 1181 1180
f 1181 1182 1180
f 1181 1183 1182
f 1183 1184 1182
f 1183 1113 1184
f 1113 1115 1184
f 1185 1186 1187
f 1188 1189 1186
f 1188 1186 1185
f 1190 1189 1188
f 1191 1192 1189
f 1191 1189 1190
f 1193 1192 1191
f 1194 1195 1192
f 1194 1192 1193
f 1196 1195 1194
f 1197 1198 1195
f 1197 1195 1196
f 1199 1198 1197
f 1200 1201 1198
f 1200 1198 1199
f 1202 1201 1200
f 1203 1204 1201
f 1203 1201 1202
f 1205 1204 1203
f 1206 1207 1204
f 1206 1204 1205
f 1208 1207 1206
f 1209 1210 1207
f 1209 1207 1208
f 1211 1210 1209
f 1212 1213 1210
f 1212 1210 1211
f 1214 1213 1212
f 1215 1216 1213
f 1215 1213 1214
f 1217 1216 1215
f 1218 1219 1216
f 1218 1216 1217
f 1220 1219 1218
f 1221 1222 1219
f 1221 1219 1220
f 1223 1222 1221
f 1224 1225 1222
f 1224 1222 1223
f 1226 1225 1224
f 1227 1228 1225
f 1227 1225 1226
f 1229 1228 1227
f 1230 1231 1228
f 1230 1228 1229
f 1230 1232 1231
f 1233 1231 1232
f 1233 1232 1234
f 1234 1235 1233
f 1235 1236 1237
f 1235 1237 1233
f 1236 1238 1237
f 1238 1239 1240
f 1238 1240 1237
f 1239 1241 1240
f 1241 1242 1243
f 1241 1243 1240
f 1242 1244 1243
f 1244 1245 1246
f 1244 1246 1243
f 1245 1247 1246
f 1247 1248 1249
f 1247 1249 1246
f 1248 1250 1249
f 1250 1251 1252
f 1250 1252 1249
f 1251 1253 1252
f 1253 1254 1255
f 1253 1255 1252
f 1254 1256 1255
f 1256 1257 1258
f 1256 1258 1255
f 1257 1259 1258
f 1259 1260 1261
f 1259 1261 1258
f 1260 1262 1261
f 1262 1263 1264
f 1262 1264 1261
f 1263 1265 1264
f 1266 1264 1265
f 1266 1265 1267
f 1267 1268 1266
f 1268 1269 1270
f 1268 1270 1266
f 1269 1271 1270
f 1271 1272 1273
f 1271 1273 1270
f 1272 1274 1273
f 1274 1275 1276
f 1274 1276 1273
f 1275 1277 1276
f 1277 1278 1279
f 1277 1279 1276
f 1278 1280 1279
f 1280 1281 1282
f 1280 1282 1279
f 1281 1283 1282
f 1283 1284 1285
f 1283 1285 1282
f 1286 1285 1284
f 1287 1288 1285
f 1287 1285 1286
f 1289 1288 1287
f 1290 1291 1288
f 1290 1288 1289
f 1292 1291 1290
f 1187 1186 1291
f 1187 1291 1292
f 1117 1114 1192
f 1114 1189 1192
f 1114 1113 1189
f 1113 1186 1189
f 1113 1183 1186
f 1183 1291 1186
f 1183 1181 1291
f 1181 1288 1291
f 1181 1179 1288
f 1179 1285 1288
f 1179 1177 1285
f 1177 1282 1285
f 1177 1175 1282
f 1175 1279 1282
f 1175 1173 1279
f 1173 1276 1279
f 1173 1171 1276
f 1171 1273 1276
f 1171 1169 1273
f 1169 1270 1273
f 1169 1167 1270
f 1167 1266 1270
f 1167 1165 1266
f 1165 1264 1266
f 1165 1163 1264
f 1163 1261 1264
f 1163 1161 1261
f 1161 1258 1261
f 1161 1159 1258
f 1159 1255 1258
f 1159 1157 1255
f 1157 1252 1255
f 1157 1155 1252
f 1155 1249 1252
f 1155 1153 1249
f 1153 1246 1249
f 1153 1151 1246
f 1151 1243 1246
f 1151 1149 1243
f 1149 1240 1243
f 1149 1147 1240
f 1147 1237 1240
f 1147 1145 1237
f 1145 1233 1237
f 1145 1143 1233
f 1143 1231 1233
f 1143 1141 1231
f 1141 1228 1231
f 1141 1139 1228
f 1139 1225 1228
f 1139 1137 1225
f 1137 1222 1225
f 1137 1135 1222
f 1135 1219 1222
f 1135 1133 1219
f 1133 1216 1219
f 1133 1131 1216
f 1131 1213 1216
f 1131 1129 1213
f 1129 1210 1213
f 1129 1127 1210
f 1127 1207 1210
f 1127 1125 1207
f 1125 1204 1207
f 1125 1123 1204
f 1123 1201 1204
f 1123 1121 1201
f 1121 1198 1201
f 1121 1119 1198
f 1119 1195 1198
f 1119 1117 1195
f 1117 1192 1195
f 1115 1116 1154
f 1116 1152 1154
f 1116 1118 1152
f 1118 1150 1152
f 1118 1120 1150
f 1120 1148 1150
f 1120 1122 1148
f 1122 1146 1148
f 1122 1124 1146
f 1124 1144 1146
f 1124 1126 1144
f 1126 1142 1144
f 1126 1128 1142
f 1128 1140 1142
f 1128 1130 1140
f 1130 1138 1140
f 1130 1132 1138
f 1132 1136 1138
f 1132 1134 1136
f 1154 1156 1115
f 1156 1184 1115
f 1156 1158 1184
f 1158 1182 1184
f 1158 1160 1182
f 1160 1180 1182
f 1160 1162 1180
f 1162 1178 1180
f 1162 1164 1178
f 1164 1176 1178
f 1164 1166 1176
f 1166 1174 1176
f 1166 1168 1174
f 1168 1172 1174
f 1168 1170 1172
f 517 516 506
f 506 498 490
f 490 482 481
f 481 456 442
f 442 428 412
f 412 86 80
f 80 74 67
f 67 61 50
f 50 33 26
f 26 17 16
f 16 25 32
f 32 38 59
f 59 65 71
f 71 78 84
f 84 93 882
f 882 881 879
f 84 882 879
f 59 71 84
f 16 32 59
f 50 26 16
f 80 67 50
f 442 412 80
f 490 481 442
f 517 506 490
f 906 504 517
f 909 908 906
f 909 906 517
f 517 490 442
f 442 80 50
f 50 16 59
f 59 84 879
f 59 879 878
f 909 517 442
f 911 909 442
f 59 878 876
f 876 875 873
f 59 876 873
f 912 911 442
f 915 914 912
f 915 912 442
f 59 873 872
f 870 869 867
f 59 872 870
f 917 915 442
f 921 920 918
f 918 917 442
f 59 870 867
f 59 867 866
f 921 918 442
f 923 921 442
f 59 866 864
f 864 863 861
f 59 864 861
f 924 923 442
f 927 926 924
f 927 924 442
f 50 59 861
f 50 861 860
f 929 927 442
f 827 932 930
f 930 929 442
f 50 860 858
f 50 858 857
f 827 930 442
f 828 825 827
f 828 827 442
f 50 857 855
f 855 854 852
f 852 851 849
f 50 855 852
f 828 442 50
f 830 828 50
f 50 852 849
f 50 849 848
f 831 830 50
f 833 831 50
f 50 848 846
f 846 845 843
f 50 846 843
f 834 833 50
f 837 836 834
f 837 834 50
f 50 843 842
f 50 842 840
f 839 837 50
f 50 840 839
f 882 93 411
f 411 427 441
f 441 455 463
f 463 488 496
f 496 504 906
f 496 906 905
f 441 463 496
f 882 411 441
f 884 882 441
f 441 496 905
f 904 902 900
f 441 905 904
f 885 884 441
f 888 887 885
f 888 885 441
f 441 904 900
f 900 899 897
f 441 900 897
f 890 888 441
f 891 890 441
f 441 897 896
f 441 896 894
f 893 891 441
f 441 894 893
f 509 508 502
f 502 494 486
f 486 478 477
f 477 454 440
f 440 426 410
f 410 83 77
f 77 70 64
f 64 58 36
f 36 30 21
f 21 12 11
f 11 19 28
f 28 35 52
f 52 62 68
f 68 75 81
f 81 89 702
f 702 701 699
f 81 702 699
f 52 68 81
f 11 28 52
f 36 21 11
f 77 64 36
f 440 410 77
f 486 477 440
f 509 502 486
f 726 500 509
f 728 726 509
f 509 486 440
f 440 77 36
f 36 11 52
f 52 81 699
f 52 699 698
f 729 728 509
f 732 731 729
f 732 729 509
f 52 698 696
f 696 695 694
f 694 692 690
f 52 696 694
f 732 509 440
f 734 732 440
f 52 694 690
f 52 690 689
f 735 734 440
f 737 735 440
f 52 689 687
f 52 687 686
f 738 737 440
f 740 738 440
f 52 686 684
f 52 684 683
f 742 740 440
f 743 742 440
f 52 683 681
f 52 681 680
f 744 743 440
f 746 744 440
f 36 52 680
f 36 680 678
f 747 746 440
f 749 747 440
f 36 678 677
f 675 674 672
f 36 677 675
f 750 749 440
f 752 750 440
f 36 675 672
f 672 671 669
f 669 668 666
f 666 665 663
f 663 662 660
f 660 659 657
f 657 656 654
f 654 653 651
f 36 672 669
f 647 752 440
f 648 645 647
f 648 647 440
f 36 669 666
f 36 666 663
f 648 440 36
f 650 648 36
f 36 663 660
f 36 660 657
f 651 650 36
f 36 657 654
f 36 654 651
f 704 702 89
f 89 409 425
f 425 439 453
f 453 462 484
f 484 492 500
f 500 726 725
f 723 722 720
f 500 725 723
f 453 484 500
f 89 425 453
f 705 704 89
f 709 707 705
f 709 705 89
f 89 453 500
f 500 723 720
f 720 719 717
f 717 716 714
f 500 720 717
f 709 89 500
f 710 709 500
f 500 717 714
f 500 714 713
f 711 710 500
f 500 713 711
f 559 557 555
f 555 553 549
f 549 543 538
f 538 533 1029
f 1029 1028 1026
f 1026 1025 1023
f 1023 1022 1020
f 538 1029 1026
f 555 549 538
f 561 559 555
f 565 563 561
f 570 568 565
f 436 450 570
f 415 422 436
f 259 397 415
f 254 256 259
f 250 252 254
f 246 248 250
f 241 244 246
f 419 406 241
f 447 433 419
f 1055 1053 447
f 1056 1055 447
f 447 419 241
f 241 246 250
f 250 254 259
f 259 415 436
f 436 570 565
f 565 561 555
f 555 538 1026
f 555 1026 1023
f 436 565 555
f 250 259 436
f 447 241 250
f 1058 1056 447
f 1062 1061 1059
f 1059 1058 447
f 555 1023 1020
f 555 1020 1019
f 1059 447 250
f 1062 1059 250
f 555 1019 1017
f 1017 1016 1014
f 1014 1013 1011
f 1011 1010 1008
f 555 1017 1014
f 1064 1062 250
f 1068 1067 1065
f 1065 1064 250
f 555 1014 1011
f 555 1011 1008
f 1068 1065 250
f 1071 1070 1068
f 1071 1068 250
f 436 555 1008
f 436 1008 1005
f 1073 1071 250
f 1077 1076 1075
f 1075 1073 250
f 436 1005 1007
f 436 1007 1112
f 1077 1075 250
f 1079 1077 250
f 436 1112 1110
f 436 1110 1109
f 1079 250 436
f 1083 1082 1080
f 1080 1079 436
f 436 1109 1107
f 436 1107 1106
f 1083 1080 436
f 1086 1085 1083
f 1089 1088 1086
f 1086 1083 436
f 436 1106 1104
f 436 1104 1103
f 1089 1086 436
f 1091 1089 436
f 436 1103 1101
f 1101 1100 1098
f 436 1101 1098
f 1092 1091 436
f 1094 1092 436
f 436 1098 1097
f 1095 1094 436
f 1097 1095 436
f 1029 533 529
f 529 528 532
f 532 536 541
f 541 548 552
f 552 447 1053
f 1053 1052 1050
f 552 1053 1050
f 532 541 552
f 1029 529 532
f 1031 1029 532
f 532 552 1050
f 532 1050 1049
f 1032 1031 532
f 1034 1032 532
f 532 1049 1047
f 532 1047 1046
f 1035 1034 532
f 1038 1037 1035
f 1038 1035 532
f 532 1046 1044
f 532 1044 1043
f 1040 1038 532
f 532 1043 1041
f 532 1041 1040
f 1203 545 540
f 540 535 531
f 531 530 534
f 534 539 544
f 544 550 1227
f 544 1227 1226
f 531 534 544
f 1203 540 531
f 1206 1205 1203
f 1206 1203 531
f 531 544 1226
f 531 1226 1224
f 1208 1206 531
f 1209 1208 531
f 531 1224 1223
f 1221 1220 1218
f 531 1223 1221
f 1211 1209 531
f 1215 1214 1212
f 1212 1211 531
f 531 1221 1218
f 531 1218 1217
f 1215 1212 531
f 531 1217 1215
f 423 416 398
f 398 257 255
f 255 253 251
f 251 249 247
f 247 245 243
f 243 242 387
f 387 421 435
f 435 449 551
f 551 545 1203
f 551 1203 1202
f 387 435 551
f 247 243 387
f 255 251 247
f 423 398 255
f 451 437 423
f 571 572 451
f 567 569 571
f 562 564 567
f 558 560 562
f 554 556 558
f 1227 550 554
f 1230 1229 1227
f 1230 1227 554
f 554 558 562
f 562 567 571
f 571 451 423
f 423 255 247
f 247 387 551
f 551 1202 1200
f 1200 1199 1197
f 1197 1196 1194
f 551 1200 1197
f 571 423 247
f 554 562 571
f 1232 1230 554
f 1236 1235 1234
f 1234 1232 554
f 551 1197 1194
f 551 1194 1193
f 1236 1234 554
f 1239 1238 1236
f 1242 1241 1239
f 1239 1236 554
f 247 551 1193
f 247 1193 1191
f 1239 554 571
f 1242 1239 571
f 247 1191 1190
f 1188 1185 1187
f 247 1190 1188
f 1244 1242 571
f 1245 1244 571
f 247 1188 1187
f 1187 1292 1290
f 247 1187 1290
f 1247 1245 571
f 1248 1247 571
f 247 1290 1289
f 247 1289 1287
f 1250 1248 571
f 1254 1253 1251
f 1251 1250 571
f 247 1287 1286
f 1284 1283 1281
f 247 1286 1284
f 1254 1251 571
f 1256 1254 571
f 247 1284 1281
f 247 1281 1280
f 1257 1256 571
f 1260 1259 1257
f 1260 1257 571
f 247 1280 1278
f 1278 1277 1275
f 247 1278 1275
f 1262 1260 571
f 1267 1265 1263
f 1263 1262 571
f 247 1275 1274
f 247 1274 1272
f 1267 1263 571
f 1269 1268 1267
f 247 1272 1271
f 1269 1267 571
f 247 1271 1269
f 247 1269 571
f 459 379 380
f 384 566 303
f 382 299 566
f 299 301 566
f 303 566 301
f 376 526 284
