v 6.085720 35.244621 21.220215
v 8.880688 35.244621 21.220215
v 6.085720 35.244621 18.982832
v -7.678555 20.212345 5.908212
v -7.678555 19.543539 5.908212
v -9.053555 19.543539 5.908212
v -7.678562 -18.343916 5.908208
v -7.678562 -19.071598 5.908208
v -9.053562 -19.071598 5.908208
v -7.678555 7.348923 5.908210
v -7.678555 6.683167 5.908210
v -9.053555 6.683167 5.908210
v -9.053555 7.348923 5.908210
v -12.053555 6.683167 5.908210
v -12.053555 7.348923 5.908210
v -13.428555 6.683167 5.908210
v -13.428555 7.348923 5.908210
v -16.214283 34.781044 5.908213
v -13.428555 19.543539 5.908212
v -13.428555 20.212345 5.908212
v -12.053555 20.212345 5.908212
v -7.678562 -5.514337 5.908209
v -7.678562 -6.177373 5.908209
v -9.053562 -6.177373 5.908209
v -9.053562 -5.514337 5.908209
v -12.053562 -6.177373 5.908209
v -12.053562 -5.514337 5.908209
v -13.428562 -6.177373 5.908209
v -13.428562 -5.514337 5.908209
v -16.214283 -33.691807 5.908207
v -13.428562 0.085096 5.908210
v -13.428562 1.085096 5.908210
v -7.678562 1.085095 5.908210
v -7.678562 0.085095 5.908210
v -13.428555 26.308893 5.908212
v -12.053562 -1.289904 5.908210
v -9.053562 -1.289905 5.908210
v -12.053562 -19.071598 5.908208
v -9.053562 -18.343916 5.908208
v -12.053562 -18.343916 5.908208
v -12.053555 19.543539 5.908212
v -9.053555 20.212345 5.908212
v -9.053562 2.460095 5.908210
v -12.053562 2.460095 5.908210
v -13.428562 -19.071598 5.908208
v -13.428562 -18.343916 5.908208
v -13.428562 -25.141106 5.908207
v -9.053555 7.348923 8.136118
v -9.053555 19.543539 8.136120
v -7.678555 19.543539 8.136120
v -7.678555 7.348923 8.136118
v -12.053562 -6.177373 8.136118
v -12.053562 -18.343916 8.136116
v -13.428562 -18.343916 8.136116
v -13.428562 -6.177373 8.136118
v -13.428562 -19.071598 8.136116
v -12.053562 -19.071598 8.136116
v -12.053562 -23.766106 5.908208
v -12.053562 -23.766106 8.136116
v -13.428562 -25.141106 8.136116
v -9.053562 6.683167 8.136118
v -7.678562 6.683167 8.136118
v -7.678562 1.085095 8.136118
v -13.428562 1.085095 8.136118
v -13.428562 6.683167 8.136118
v -12.053562 6.683167 8.136118
v -12.053562 2.460095 8.136118
v -9.053562 2.460095 8.136118
v -7.678555 26.308893 5.908212
v -7.678555 26.308893 8.136120
v -7.678555 20.212345 8.136120
v -9.053555 20.212345 8.136120
v -9.053555 24.933893 5.908212
v -9.053555 24.933893 8.136120
v -13.428555 7.348923 8.136118
v -13.428555 19.543539 8.136120
v -12.053555 19.543539 8.136120
v -12.053555 7.348923 8.136118
v -9.053562 -6.177373 8.136118
v -7.678562 -6.177373 8.136118
v -7.678562 -18.343916 8.136116
v -9.053562 -18.343916 8.136116
v -14.214283 -32.155384 8.136115
v -7.678562 -25.141106 8.136116
v -9.053562 -23.766106 5.908208
v -9.053562 -23.766106 8.136116
v -9.053562 -19.071598 8.136116
v -7.678562 -19.071598 8.136116
v -7.678562 -25.141106 5.908207
v -9.053562 -1.289905 8.136118
v -12.053562 -1.289905 8.136118
v -12.053562 -5.514337 8.136118
v -13.428562 -5.514337 8.136118
v -13.428562 0.085095 8.136118
v -7.678562 0.085095 8.136118
v -7.678562 -5.514337 8.136118
v -9.053562 -5.514337 8.136118
v -16.219471 35.003563 5.908213
v -16.255291 35.244621 5.908121
v -12.053555 24.933893 5.908212
v -12.053555 24.933893 8.136120
v -12.053555 20.212345 8.136120
v -13.428555 20.212345 8.136120
v -13.428555 26.308893 8.136120
v 10.880398 37.210724 21.220215
v 10.946651 37.863430 21.220215
v 10.880398 37.210724 5.908121
v 10.946659 37.863430 5.908121
v 11.121380 38.495796 21.220215
v 11.121380 38.495796 5.908121
v 11.399639 39.089928 21.220215
v 11.399639 39.089928 5.908121
v 11.773548 39.629009 21.220215
v 11.773548 39.629009 5.908121
v 12.232529 40.097790 21.220215
v 12.232529 40.097790 5.908121
v 12.763596 40.482998 21.220215
v 12.763596 40.482998 5.908121
v 13.351719 40.773735 21.220215
v 13.351719 40.773735 5.908121
v 13.980255 40.961773 21.220215
v 13.980255 40.961773 5.908121
v 14.631420 41.041794 21.220215
v 14.631420 41.041794 5.908121
v 15.286785 41.011532 21.220215
v 15.286785 41.011532 5.908121
v 15.927803 40.871841 21.220215
v 15.927803 40.871841 5.908121
v 16.536335 40.626678 21.220215
v 16.536335 40.626678 5.908121
v 17.095161 40.282978 21.220215
v 17.095161 40.282978 5.908121
v 17.588470 39.850468 21.220215
v 17.588470 39.850468 5.908121
v 18.002300 39.341385 21.220215
v 18.002300 39.341385 5.908121
v 18.324936 38.770142 21.220215
v 18.324936 38.770142 5.908121
v 18.547253 38.152893 21.220215
v 18.547253 38.152893 5.908121
v 18.662960 37.507114 21.220215
v 18.662960 37.507114 5.908121
v 18.668781 36.851078 21.220215
v 18.668781 36.851078 5.908121
v 18.564548 36.203350 21.220215
v 18.564548 36.203350 5.908121
v 18.353218 35.582256 21.220215
v 18.353218 35.582256 5.908121
v -8.908970 -36.142143 21.220213
v -8.975224 -36.582245 21.220213
v -8.908970 -36.142143 5.908114
v -8.975224 -36.582245 5.908114
v -9.149952 -37.406559 21.220213
v -9.149952 -37.406559 5.908114
v -9.428204 -38.000690 21.220215
v -9.428204 -38.000690 5.908114
v -9.802113 -38.539768 21.220215
v -9.802113 -38.539768 5.908114
v -10.261097 -39.008549 21.220215
v -10.261097 -39.008549 5.908114
v -10.792164 -39.393757 21.220215
v -10.792164 -39.393757 5.908114
v -11.380283 -39.684494 21.220215
v -11.380283 -39.684494 5.908114
v -12.008823 -39.872532 21.220215
v -12.008823 -39.872532 5.908114
v -12.659985 -39.952553 21.220215
v -12.659985 -39.952553 5.908114
v -13.315350 -39.922291 21.220215
v -13.315350 -39.922291 5.908114
v -13.956371 -39.782600 21.220215
v -13.956371 -39.782600 5.908114
v -14.564899 -39.537437 21.220215
v -14.564899 -39.537437 5.908114
v -15.123730 -39.193737 21.220215
v -15.123730 -39.193737 5.908114
v -15.617039 -38.761227 21.220213
v -15.617039 -38.761227 5.908114
v -16.030865 -38.252144 21.220213
v -16.030865 -38.252144 5.908114
v -16.353504 -37.680904 21.220213
v -16.353504 -37.680904 5.908114
v -16.575817 -37.063656 21.220213
v -16.575817 -37.063656 5.908114
v -16.691525 -36.417877 21.220213
v -16.691525 -36.417877 5.908114
v -16.697346 -35.761841 21.220213
v -16.697346 -35.761841 5.908114
v -16.593113 -35.114113 21.220213
v -16.593113 -35.114113 5.908115
v -16.381779 -34.493019 21.220213
v -16.381779 -34.493019 5.908115
v -14.214283 33.244621 8.136121
v -6.259716 -31.722839 5.908207
v -7.783405 -34.893883 5.908115
v -8.015171 -34.963066 5.908115
v -8.259411 -35.067749 5.908115
v -11.050691 -33.414646 5.908115
v -11.603133 -33.119358 5.908115
v -16.219471 -33.914326 5.908207
v -14.601235 -33.414646 5.908115
v -16.255299 -34.155384 5.908115
v -12.202570 -32.937523 5.908115
v -14.048792 -33.119358 5.908115
v -12.825963 -32.876122 5.908115
v -13.449356 -32.937523 5.908115
v -13.706238 -33.015446 5.908115
v 16.185715 -4.000382 21.220215
v 16.185719 14.639618 21.220215
v 16.185719 -4.000382 18.880068
v 16.185719 14.639618 18.430069
v 16.185715 -32.155384 8.136115
v 16.185719 33.244621 8.136121
v 16.185719 26.649618 18.430071
v 16.185719 33.244621 21.220215
v 16.185719 26.649618 21.220215
v 16.185715 -32.155384 21.220215
v 16.185715 -25.310381 18.880066
v 16.185715 -16.600382 18.880068
v 16.185715 -12.710382 18.880068
v 16.185715 -12.710382 21.220215
v 16.185715 -16.600382 21.220215
v 16.185715 -25.310381 21.220215
v 4.985722 34.244621 20.895218
v -6.814281 34.244621 20.895218
v 4.985722 33.244621 20.895218
v -6.814281 33.244621 20.895218
v -7.914280 35.412647 18.982832
v -7.914280 34.244621 18.982834
v -7.613293 35.307983 18.982832
v -7.364330 35.263111 18.982832
v -6.909252 35.244621 18.982832
v 6.085720 34.244621 18.982834
v 17.185719 -12.710382 18.880068
v 17.185719 -4.000382 18.880068
v 17.185719 -4.000382 21.220215
v 17.185719 26.649618 21.220215
v 17.185719 26.649618 18.430071
v 10.880398 -36.142143 21.220213
v 10.878597 -35.941620 21.220213
v 10.880398 -36.142143 5.908114
v 10.876087 -35.887917 5.908114
v 10.852901 -35.730629 21.220213
v 10.858242 -35.754135 5.908114
v 10.812572 -35.610336 5.908114
v 10.816921 -35.620598 21.220213
v 10.750225 -35.495331 21.220213
v 10.723438 -35.456841 5.908114
v 10.632458 -35.350891 21.220213
v 10.593563 -35.313156 5.908114
v 10.452007 -35.199715 21.220213
v 10.453930 -35.200943 5.908114
v 10.326344 -35.119537 5.908115
v 10.230839 -35.067749 21.220215
v 10.051716 -34.987411 5.908115
v 9.986607 -34.963066 21.220215
v 9.874043 -34.926170 5.908115
v 9.754833 -34.893883 21.220215
v 9.669086 -34.874893 5.908115
v 9.549641 -34.853500 21.220215
v 9.257732 -34.823753 5.908115
v 9.202839 -34.821053 21.220215
v 8.880688 -34.816452 18.981297
v 8.880688 -34.816452 5.908115
v -6.909252 -34.816452 21.220215
v -7.286304 -34.823753 21.220215
v -6.909252 -34.816452 18.981297
v -7.231411 -34.821053 5.908115
v -6.909252 -34.816452 5.908115
v -7.578213 -34.853500 5.908115
v -7.697659 -34.874893 21.220215
v -7.902607 -34.926170 21.220215
v -8.080288 -34.987411 21.220215
v -8.354916 -35.119537 21.220215
v -8.480579 -35.199715 5.908114
v -8.482502 -35.200943 21.220213
v -8.622135 -35.313156 21.220213
v -8.661030 -35.350891 5.908114
v -8.752010 -35.456841 21.220213
v -8.778797 -35.495331 5.908114
v -8.841145 -35.610336 21.220213
v -8.845493 -35.620598 5.908114
v -8.881466 -35.730629 5.908114
v -8.886814 -35.754135 21.220213
v -8.904659 -35.887917 21.220213
v -8.907169 -35.941620 5.908114
v 18.353214 -34.493019 21.220215
v 18.564548 -35.114113 21.220215
v 18.353214 -34.493019 5.908115
v 18.564548 -35.114113 5.908115
v 18.668774 -35.761841 21.220215
v 18.668774 -35.761841 5.908114
v 18.662956 -36.417877 21.220215
v 18.662956 -36.417877 5.908114
v 18.547249 -37.063656 21.220215
v 18.547249 -37.063656 5.908114
v 18.324932 -37.680904 21.220215
v 18.324932 -37.680904 5.908114
v 18.002293 -38.252144 21.220215
v 18.002293 -38.252144 5.908114
v 17.588467 -38.761227 21.220215
v 17.588467 -38.761227 5.908114
v 17.095158 -39.193737 21.220215
v 17.095158 -39.193737 5.908114
v 16.536331 -39.537437 21.220215
v 16.536331 -39.537437 5.908114
v 15.927799 -39.782600 21.220215
v 15.927799 -39.782600 5.908114
v 15.286781 -39.922291 21.220215
v 15.286781 -39.922291 5.908114
v 14.631416 -39.952553 21.220215
v 14.631416 -39.952553 5.908114
v 13.980251 -39.872532 21.220215
v 13.980251 -39.872532 5.908114
v 13.351715 -39.684494 21.220215
v 13.351715 -39.684494 5.908114
v 12.763592 -39.393757 21.220215
v 12.763592 -39.393757 5.908114
v 12.232525 -39.008549 21.220215
v 12.232525 -39.008549 5.908114
v 11.773544 -38.539768 21.220215
v 11.773544 -38.539768 5.908114
v 11.399632 -38.000690 21.220215
v 11.399632 -38.000690 5.908114
v 11.121380 -37.406559 21.220213
v 11.121380 -37.406559 5.908114
v 10.946651 -36.582245 21.220213
v 10.946651 -36.582245 5.908114
v 18.189983 -33.899582 21.220215
v 18.186268 -33.794914 16.896118
v 18.185719 -33.691807 21.220215
v 18.186268 -33.794914 14.206118
v 18.186268 -33.794914 11.516116
v 18.226635 -34.154999 14.206118
v 18.226635 -34.154999 11.516116
v 18.226727 -34.155384 5.908115
v 18.226635 -34.154999 16.896118
v 18.219761 -34.125259 21.220215
v 18.281120 -34.325306 21.220215
v 18.226727 -34.155384 5.908207
v 18.190907 -33.914326 5.908207
v 18.186268 -33.794914 8.826118
v 18.185719 -33.691807 5.908207
v -16.309689 -34.325306 21.220213
v -16.263813 -34.188202 7.709303
v -16.221455 -33.941219 7.709303
v -16.255299 -34.155384 5.908207
v -16.214283 -33.691807 21.220213
v -16.248325 -34.125259 21.220213
v -16.218548 -33.899582 21.220213
v 18.281124 35.414543 21.220215
v 18.235249 35.277439 12.861124
v 18.226734 35.244621 5.908121
v 18.192890 35.030457 12.861124
v 18.226734 35.244621 5.908213
v 18.190910 35.003563 5.908213
v 18.185719 34.781044 21.220215
v 18.185719 34.781044 5.908213
v 18.219761 35.214497 21.220215
v 18.189983 34.988819 21.220215
v 17.185719 -16.600382 21.220215
v 17.185719 -16.600382 18.880068
v 17.185719 -25.310381 18.880066
v 17.185719 -12.710382 21.220215
v 17.185719 14.639618 18.430069
v 17.185719 14.639618 21.220215
v 18.185719 -26.410381 17.780067
v 18.185719 -15.500383 17.780067
v 17.185719 -26.410381 17.780066
v 17.185719 -15.500383 17.780067
v 17.185719 -2.900382 21.220215
v 17.185719 -2.900382 17.780067
v 17.185719 -13.810381 17.780067
v 17.185719 -13.810383 21.220215
v 18.185719 -13.810381 17.780067
v 18.185719 -2.900382 17.780069
v 17.185719 27.749620 21.220215
v 17.185719 27.749620 17.330070
v 18.185719 27.749620 21.220215
v 18.185719 27.749620 17.330070
v 18.185719 13.539618 17.330070
v 17.185719 13.539618 17.330070
v -7.914288 -33.155384 21.220215
v -7.914288 -33.155384 18.981331
v -7.914288 -32.155384 21.220215
v -7.914288 -32.155384 18.981331
v -9.014286 -34.816452 21.220215
v -9.014286 -34.816452 18.981297
v -9.014286 -33.155384 21.220215
v -9.014286 -33.155384 18.981297
v 10.985714 -33.155384 21.220215
v 10.985714 -33.155384 18.981129
v 10.985714 -34.816452 21.220215
v 10.985714 -34.816452 18.981129
v -13.331270 39.092171 21.220215
v -13.331270 39.092171 20.420218
v -12.809443 39.160870 21.220215
v -12.809443 39.160870 20.420218
v -12.287615 39.092171 21.220215
v -12.287615 39.092171 20.420218
v -11.801345 38.890755 21.220215
v -11.801345 38.890755 20.420218
v -11.383774 38.570339 21.220215
v -11.383774 38.570339 20.420218
v -11.063371 38.152771 21.220215
v -11.063371 38.152771 20.420218
v -10.861945 37.666508 21.220215
v -10.861945 37.666508 20.420218
v -10.793246 37.144672 21.220215
v -10.793246 37.144672 20.420218
v -10.861945 36.622849 21.220215
v -10.861945 36.622849 20.420218
v -11.063371 36.136581 21.220215
v -11.063371 36.136581 20.420218
v -11.383774 35.719009 21.220215
v -11.383774 35.719009 20.420216
v -11.801345 35.398602 21.220215
v -11.801345 35.398602 20.420216
v -12.287615 35.197186 21.220215
v -12.287615 35.197186 20.420216
v -12.809443 35.128487 21.220215
v -12.809443 35.128487 20.420216
v -13.331270 35.197186 21.220215
v -13.331270 35.197186 20.420216
v -13.817541 35.398602 21.220215
v -13.817540 35.398602 20.420216
v -14.235100 35.719009 21.220215
v -14.235100 35.719009 20.420216
v -14.555515 36.136581 21.220215
v -14.555514 36.136581 20.420218
v -14.756927 36.622849 21.220215
v -14.756927 36.622849 20.420218
v -14.825628 37.144672 21.220215
v -14.825627 37.144672 20.420218
v -14.756927 37.666508 21.220215
v -14.756927 37.666508 20.420218
v -14.555515 38.152771 21.220215
v -14.555514 38.152771 20.420218
v -14.235100 38.570339 21.220215
v -14.235100 38.570339 20.420218
v -13.817541 38.890755 21.220215
v -13.817540 38.890755 20.420218
v 14.273575 -34.173138 21.220215
v 14.273575 -34.173138 20.420212
v 14.778373 -34.106682 21.220215
v 14.778373 -34.106682 20.420212
v 15.283165 -34.173138 21.220215
v 15.283165 -34.173138 20.420212
v 15.753555 -34.367981 21.220215
v 15.753555 -34.367981 20.420212
v 16.157494 -34.677933 21.220215
v 16.157494 -34.677933 20.420212
v 16.467443 -35.081871 21.220215
v 16.467443 -35.081871 20.420212
v 16.662287 -35.552261 21.220213
v 16.662287 -35.552261 20.420210
v 16.728743 -36.057053 21.220213
v 16.728743 -36.057053 20.420210
v 16.662287 -36.561848 21.220213
v 16.662287 -36.561848 20.420210
v 16.467443 -37.032242 21.220213
v 16.467443 -37.032242 20.420210
v 16.157494 -37.436176 21.220215
v 16.157494 -37.436176 20.420210
v 15.753555 -37.746128 21.220215
v 15.753555 -37.746128 20.420210
v 15.283165 -37.940971 21.220215
v 15.283165 -37.940971 20.420210
v 14.778373 -38.007427 21.220215
v 14.778373 -38.007427 20.420210
v 14.273575 -37.940971 21.220215
v 14.273575 -37.940971 20.420210
v 13.803185 -37.746128 21.220215
v 13.803185 -37.746128 20.420210
v 13.399251 -37.436176 21.220215
v 13.399251 -37.436176 20.420210
v 13.089297 -37.032242 21.220213
v 13.089297 -37.032242 20.420210
v 12.894459 -36.561848 21.220213
v 12.894459 -36.561848 20.420210
v 12.828002 -36.057053 21.220213
v 12.828002 -36.057053 20.420210
v 12.894459 -35.552261 21.220213
v 12.894459 -35.552261 20.420210
v 13.089297 -35.081871 21.220215
v 13.089297 -35.081871 20.420212
v 13.399251 -34.677933 21.220215
v 13.399251 -34.677933 20.420212
v 13.803185 -34.367981 21.220215
v 13.803185 -34.367981 20.420212
v 14.265292 39.061302 21.220215
v 14.265292 39.061302 20.420218
v 14.778855 39.128914 21.220215
v 14.778855 39.128914 20.420218
v 15.292413 39.061302 21.220215
v 15.292413 39.061302 20.420218
v 15.770971 38.863075 21.220215
v 15.770971 38.863075 20.420218
v 16.181919 38.547737 21.220215
v 16.181919 38.547737 20.420218
v 16.497253 38.136791 21.220215
v 16.497253 38.136791 20.420218
v 16.695482 37.658234 21.220215
v 16.695482 37.658234 20.420218
v 16.763094 37.144669 21.220215
v 16.763094 37.144669 20.420218
v 16.695482 36.631111 21.220215
v 16.695482 36.631111 20.420218
v 16.497253 36.152554 21.220215
v 16.497253 36.152554 20.420218
v 16.181919 35.741600 21.220215
v 16.181919 35.741600 20.420218
v 15.770971 35.426270 21.220215
v 15.770971 35.426270 20.420216
v 15.292413 35.228043 21.220215
v 15.292413 35.228043 20.420216
v 14.778855 35.160431 21.220215
v 14.778855 35.160431 20.420216
v 14.265292 35.228043 21.220215
v 14.265292 35.228043 20.420216
v 13.786734 35.426270 21.220215
v 13.786734 35.426270 20.420216
v 13.375780 35.741600 21.220215
v 13.375780 35.741600 20.420218
v 13.060451 36.152554 21.220215
v 13.060451 36.152554 20.420218
v 12.862223 36.631111 21.220215
v 12.862223 36.631111 20.420218
v 12.794612 37.144669 21.220215
v 12.794612 37.144669 20.420218
v 12.862223 37.658234 21.220215
v 12.862223 37.658234 20.420218
v 13.060451 38.136791 21.220215
v 13.060451 38.136791 20.420218
v 13.375780 38.547737 21.220215
v 13.375780 38.547737 20.420218
v 13.786734 38.863075 21.220215
v 13.786734 38.863075 20.420218
v -13.331368 -34.107449 21.220215
v -13.331368 -34.107449 20.420212
v -12.809440 -34.038734 21.220215
v -12.809440 -34.038734 20.420212
v -12.287513 -34.107449 21.220215
v -12.287513 -34.107449 20.420212
v -11.801147 -34.308907 21.220215
v -11.801147 -34.308907 20.420212
v -11.383509 -34.629375 21.220215
v -11.383509 -34.629375 20.420212
v -11.063032 -35.047031 21.220215
v -11.063032 -35.047031 20.420212
v -10.861581 -35.533390 21.220213
v -10.861581 -35.533390 20.420210
v -10.792868 -36.055317 21.220213
v -10.792868 -36.055317 20.420210
v -10.861581 -36.577248 21.220213
v -10.861581 -36.577248 20.420210
v -11.063032 -37.063610 21.220213
v -11.063032 -37.063610 20.420210
v -11.383509 -37.481255 21.220215
v -11.383509 -37.481255 20.420210
v -11.801147 -37.801727 21.220215
v -11.801147 -37.801727 20.420210
v -12.287513 -38.003185 21.220215
v -12.287513 -38.003185 20.420210
v -12.809440 -38.071899 21.220215
v -12.809440 -38.071899 20.420210
v -13.331368 -38.003185 21.220215
v -13.331368 -38.003185 20.420210
v -13.817734 -37.801727 21.220215
v -13.817733 -37.801727 20.420210
v -14.235384 -37.481255 21.220215
v -14.235384 -37.481255 20.420210
v -14.555849 -37.063610 21.220213
v -14.555848 -37.063610 20.420210
v -14.757313 -36.577248 21.220213
v -14.757312 -36.577248 20.420210
v -14.826027 -36.055317 21.220213
v -14.826026 -36.055317 20.420210
v -14.757313 -35.533390 21.220213
v -14.757312 -35.533390 20.420210
v -14.555849 -35.047031 21.220215
v -14.555848 -35.047031 20.420212
v -14.235384 -34.629375 21.220215
v -14.235384 -34.629375 20.420212
v -13.817734 -34.308907 21.220215
v -13.817733 -34.308907 20.420212
v -14.214283 33.244621 21.220215
v -14.214283 -32.155384 21.220215
v 9.885715 -32.155384 21.220215
v 9.885715 -32.155384 18.981167
v 4.985722 33.244621 21.220215
v 5.999844 33.244621 10.477746
v -4.769901 33.244621 10.477746
v -6.814281 33.244621 21.220215
v -6.814281 34.244621 21.220215
v 9.885715 -33.155384 21.220215
v 9.885715 -33.155384 18.981167
v 4.985722 34.244621 21.220215
v 6.085720 34.244621 21.220215
v -7.914280 34.244621 21.220215
v -7.914280 35.412647 21.220215
v -8.908962 37.210724 5.908121
v -8.908962 37.210724 21.220215
v -8.904659 36.833687 5.908121
v -8.903980 36.820309 21.220215
v -8.886814 36.635277 5.908121
v -8.883801 36.615074 21.220215
v -8.841137 36.422016 5.908121
v -8.834759 36.400887 21.220215
v -8.752003 36.194370 5.908121
v -8.725681 36.144009 21.220215
v -8.622135 35.981274 5.908121
v -8.517178 35.852417 21.220215
v -8.482494 35.814850 5.908121
v -8.354908 35.694118 5.908121
v -8.230785 35.596252 21.220215
v -8.080288 35.498169 5.908121
v -7.902607 35.407345 5.908121
v -7.697651 35.331295 5.908121
v -7.286297 35.255455 5.908121
v -16.381779 35.582256 21.220215
v -16.593113 36.203350 21.220215
v -16.381779 35.582256 5.908121
v -16.593113 36.203350 5.908121
v -16.697338 36.851078 21.220215
v -16.697338 36.851078 5.908121
v -16.691517 37.507114 21.220215
v -16.691517 37.507114 5.908121
v -16.575809 38.152893 21.220215
v -16.575809 38.152893 5.908121
v -16.353497 38.770142 21.220215
v -16.353497 38.770142 5.908121
v -16.030857 39.341385 21.220215
v -16.030857 39.341385 5.908121
v -15.617031 39.850468 21.220215
v -15.617031 39.850468 5.908121
v -15.123722 40.282978 21.220215
v -15.123722 40.282978 5.908121
v -14.564899 40.626678 21.220215
v -14.564899 40.626678 5.908121
v -13.956364 40.871841 21.220215
v -13.956364 40.871841 5.908121
v -13.315350 41.011532 21.220215
v -13.315350 41.011532 5.908121
v -12.659985 41.041794 21.220215
v -12.659985 41.041794 5.908121
v -12.008816 40.961773 21.220215
v -12.008816 40.961773 5.908121
v -11.380283 40.773735 21.220215
v -11.380283 40.773735 5.908121
v -10.792156 40.482998 21.220215
v -10.792156 40.482998 5.908121
v -10.261097 40.097790 21.220215
v -10.261089 40.097790 5.908121
v -9.802113 39.629009 21.220215
v -9.802113 39.629009 5.908121
v -9.428204 39.089928 21.220215
v -9.428204 39.089928 5.908121
v -9.149944 38.495796 21.220215
v -9.149944 38.495796 5.908121
v -8.975224 37.863430 21.220215
v -8.975216 37.863430 5.908121
v -16.214283 34.781044 21.220215
v -16.218548 34.988819 21.220215
v -16.221455 35.030457 12.861122
v -16.248325 35.214497 21.220215
v -16.263813 35.277439 12.861122
v -16.309681 35.414543 21.220215
v 8.880688 35.244621 5.908121
v 9.202839 35.251446 5.908121
v 9.257732 35.255455 21.220215
v 9.549648 35.299564 5.908121
v 9.669094 35.331295 21.220215
v 9.754841 35.359463 5.908121
v 9.874043 35.407345 21.220215
v 9.986607 35.462063 5.908121
v 10.051723 35.498169 21.220215
v 10.230839 35.617317 5.908121
v 10.326351 35.694118 21.220215
v 10.452015 35.813026 5.908121
v 10.453930 35.814850 21.220215
v 10.593571 35.981274 21.220215
v 10.632458 36.037231 5.908121
v 10.723438 36.194370 21.220215
v 10.750225 36.251453 5.908121
v 10.812572 36.422016 21.220215
v 10.816929 36.437233 5.908121
v 10.852901 36.600418 5.908121
v 10.858250 36.635277 21.220215
v 10.876095 36.833687 21.220215
v 10.878605 36.913330 5.908121
v 18.185719 -2.900382 21.220215
v 18.185719 13.539618 21.220215
v 18.185719 -13.810383 21.220215
v 18.185719 -15.500383 21.220215
v 18.185719 -26.410381 21.220215
v 17.185719 13.539618 21.220215
v 17.185719 -15.500383 21.220215
v 17.185719 -25.310381 21.220215
v 17.185719 -26.410381 21.220215
v 8.880688 -34.816452 21.220215
v 6.304018 33.244621 8.136121
v 6.304018 27.322599 8.136120
v 16.185719 21.377174 8.136120
v 16.185719 21.276419 9.966286
v 16.185719 10.000257 9.966285
v 16.185719 9.899504 8.136119
v 16.185719 2.939469 8.136118
v 16.185719 2.817219 9.935530
v 16.185715 -15.490221 9.935528
v 16.185715 -15.612469 8.136116
v -6.259805 -34.816452 5.908207
v -15.482845 -34.296257 5.908115
v -15.724646 -34.748634 5.908115
v -15.241575 -34.002270 5.908115
v -15.250397 -34.013020 5.908115
v -15.259933 -34.024635 5.908115
v -15.085456 -33.812038 5.908115
v -14.804361 -33.581348 5.908115
v -14.794270 -33.573067 5.908115
v -14.282991 -33.244541 5.908115
v -13.720396 -33.019741 5.908115
v -13.110766 -32.904175 5.908115
v -12.507134 -32.907528 5.908115
v -11.899991 -33.029308 5.908115
v -11.916047 -33.024441 5.908115
v -11.344324 -33.257698 5.908115
v -10.828664 -33.596859 5.908115
v -10.841804 -33.586079 5.908115
v -10.388405 -34.029007 5.908115
v -10.400456 -34.014328 5.908115
v -10.566469 -33.812038 5.908115
v -10.169080 -34.296257 5.908115
v -10.375380 -34.044884 5.908115
v -9.727894 -35.329666 5.908114
v -9.873794 -34.848701 5.908115
v -4.998033 33.244621 8.136121
v 18.185719 21.276419 9.966286
v 18.185719 22.158491 5.908212
v 18.185719 -16.408840 5.908208
v 18.185719 -15.490221 9.935528
v 18.185719 2.817219 9.935530
v 18.185719 3.735839 5.908210
v 18.185719 9.118185 5.908211
v 18.185719 10.000257 9.966285
v -2.186675 9.102667 8.136119
v -2.759377 7.651202 8.136118
v 2.254253 7.651202 8.136118
v -0.231782 9.899502 8.136119
v -0.231782 21.377172 8.136120
v -2.186675 20.986326 8.136120
v -4.998033 27.322599 8.136120
v -5.872200 20.986326 8.136120
v 6.352612 -3.765162 8.136118
v 7.259756 -15.612467 8.136116
v 7.259756 2.939469 8.136118
v 2.254253 3.378018 8.136118
v 3.306081 2.166213 8.136118
v 6.352612 2.166213 8.136118
v -1.197415 9.118183 5.908211
v -1.197415 22.158491 5.908212
v 6.294123 -16.408840 5.908208
v 6.294123 3.735839 5.908210
v -4.769901 27.593210 6.656657
v -4.998033 35.244621 6.656657
v -4.769901 35.244621 10.477746
v 6.304018 35.244621 6.656655
v 5.999844 27.593210 6.656655
v 5.999844 35.244621 10.477746
v 5.999844 35.244621 10.288054
v -6.260018 -32.146183 9.929954
v -6.260018 -34.816452 9.929954
v -6.259716 -34.816452 8.139395
v -6.259716 -32.155384 8.136115
v 6.812045 -34.816452 9.929954
v 6.814744 -34.816452 5.908207
v -13.714079 40.155899 5.908121
v -13.570232 40.199532 5.908121
v -13.447240 40.236839 5.908121
v -13.140028 40.267097 5.908121
v -12.825930 40.298035 5.908121
v -12.711678 40.286785 5.908121
v -14.635690 39.728138 5.908121
v -14.595270 39.761311 5.908121
v -14.513303 39.805126 5.908121
v -14.123388 40.013535 5.908121
v -14.044673 40.055614 5.908121
v -15.365187 39.015160 5.908121
v -15.277725 39.121727 5.908121
v -14.974193 39.450340 5.908121
v -15.077873 39.365246 5.908121
v -15.602943 38.641289 5.908121
v -15.473936 38.882648 5.908121
v -15.671135 38.513710 5.908121
v -15.768236 38.332050 5.908121
v -15.836863 38.105816 5.908121
v -15.880102 37.963284 5.908121
v -15.949467 37.734615 5.908121
v -15.969286 37.533382 5.908121
v -15.984049 37.383469 5.908121
v -15.993999 36.944138 5.908121
v -16.010658 37.113308 5.908121
v -15.979324 36.795147 5.908121
v -15.949467 36.491997 5.908121
v -15.909218 36.359314 5.908121
v -15.866766 36.219372 5.908121
v -15.768236 35.894562 5.908121
v -15.717745 35.800106 5.908121
v -9.702394 36.491997 5.908121
v -9.699370 36.522690 5.908121
v -9.739221 36.370594 5.908121
v -9.686388 36.654503 5.908121
v -9.673733 36.783005 5.908121
v -9.658482 36.937847 5.908121
v -9.648226 37.184639 5.908121
v -9.641200 37.113308 5.908121
v -9.663263 37.337318 5.908121
v -9.702394 37.734615 5.908121
v -9.712435 37.767715 5.908121
v -9.755877 37.910923 5.908121
v -9.882434 38.328125 5.908121
v -9.883624 38.332050 5.908121
v -9.949119 38.454582 5.908121
v -10.157116 38.843723 5.908121
v -10.177923 38.882648 5.908121
v -10.425543 39.184368 5.908121
v -10.518835 39.298046 5.908121
v -10.573986 39.365246 5.908121
v -10.845831 39.588348 5.908121
v -10.953417 39.676643 5.908121
v -11.056589 39.761311 5.908121
v -11.330638 39.907791 5.908121
v -11.607185 40.055614 5.908121
v -11.720871 40.090103 5.908121
v -11.862184 40.132969 5.908121
v -12.204619 40.236839 5.908121
v -12.282889 40.244549 5.908121
v 11.710250 -35.489021 5.908114
v 11.712271 -35.468498 5.908114
v 11.750423 -35.342728 5.908114
v 11.697345 -35.620045 5.908114
v 11.684763 -35.747776 5.908114
v 11.670117 -35.896492 5.908114
v 11.658627 -36.141869 5.908114
v 11.652288 -36.077507 5.908114
v 11.673048 -36.288277 5.908114
v 11.712271 -36.686516 5.908114
v 11.721372 -36.716518 5.908114
v 11.763017 -36.853806 5.908114
v 11.888918 -37.268848 5.908114
v 11.889912 -37.272125 5.908114
v 11.952969 -37.390095 5.908114
v 12.159766 -37.776985 5.908114
v 12.178386 -37.811817 5.908114
v 12.427328 -38.115150 5.908114
v 12.516996 -38.224415 5.908114
v 12.566607 -38.284863 5.908114
v 12.842882 -38.511600 5.908114
v 12.946515 -38.596653 5.908114
v 13.039653 -38.673088 5.908114
v 13.321980 -38.823994 5.908114
v 13.579350 -38.961559 5.908114
v 13.709876 -39.001156 5.908114
v 13.846842 -39.042698 5.908114
v 14.164956 -39.139202 5.908114
v 14.263630 -39.148922 5.908114
v 14.686093 -39.190529 5.908114
v 14.773965 -39.199188 5.908114
v 15.107185 -39.166359 5.908114
v 15.382975 -39.139202 5.908114
v 15.527617 -39.095322 5.908114
v 15.668762 -39.052513 5.908114
v 15.968578 -38.961559 5.908114
v 16.067036 -38.908932 5.908114
v 16.447859 -38.705379 5.908114
v 16.508274 -38.673088 5.908114
v 16.565607 -38.626034 5.908114
v 16.895294 -38.355473 5.908114
v 16.981323 -38.284863 5.908114
v 17.187277 -38.033909 5.908114
v 17.274143 -37.928059 5.908114
v 17.369545 -37.811817 5.908114
v 17.501989 -37.564030 5.908114
v 17.569931 -37.436920 5.908114
v 17.658018 -37.272125 5.908114
v 17.728065 -37.041203 5.908114
v 17.771254 -36.898834 5.908114
v 17.835659 -36.686516 5.908114
v 17.855722 -36.482830 5.908114
v 17.870499 -36.332802 5.908114
v 17.895641 -36.077507 5.908114
v 17.878979 -35.908318 5.908114
v 17.864273 -35.759041 5.908114
v 17.835659 -35.468498 5.908114
v 17.796120 -35.338158 5.908114
v 17.753569 -35.197884 5.908115
v 17.658018 -34.882893 5.908115
v 17.609854 -34.792786 5.908115
v 11.889912 -34.882893 5.908115
v 12.178386 -34.343197 5.908115
v 12.411459 -34.059196 5.908115
v 12.401981 -34.070747 5.908115
v 12.391737 -34.083229 5.908115
v 12.566607 -33.870152 5.908115
v 13.039653 -33.481926 5.908115
v 12.846859 -33.640152 5.908115
v 12.836189 -33.648907 5.908115
v 13.579350 -33.193455 5.908115
v 13.344011 -33.319244 5.908115
v 13.906119 -33.094330 5.908115
v 13.891784 -33.098682 5.908115
v 6.812045 -31.722839 5.908207
v 14.773965 -32.955830 5.908115
v 14.486682 -32.984127 5.908115
v 14.164956 -33.015816 5.908115
v 15.382975 -33.015816 5.908115
v 15.076395 -32.985619 5.908115
v 15.670186 -33.102936 5.908115
v 15.655004 -33.098335 5.908115
v 16.508274 -33.481926 5.908115
v 16.214870 -33.325104 5.908115
v 15.968578 -33.193455 5.908115
v 16.981323 -33.870152 5.908115
v 16.720154 -33.655815 5.908115
v 16.708126 -33.645943 5.908115
v 17.163586 -34.092232 5.908115
v 17.151789 -34.077858 5.908115
v 17.140873 -34.064560 5.908115
v 17.369545 -34.343197 5.908115
v 17.713371 35.787621 5.908121
v 17.461721 35.316818 5.908121
v 17.228745 35.032932 5.908121
v 17.239550 35.046104 5.908121
v 17.251232 35.060337 5.908121
v 16.781204 34.598434 5.908121
v 16.792965 34.608093 5.908121
v 17.059801 34.827076 5.908121
v 16.570059 34.425156 5.908121
v 16.269775 34.264648 5.908121
v 16.011318 34.126503 5.908121
v 15.689717 34.028942 5.908121
v 15.704274 34.033363 5.908121
v 14.774549 33.880489 5.908121
v 15.088748 33.911438 5.908121
v 15.405048 33.942593 5.908121
v 14.144049 33.942593 5.908121
v 14.476033 33.909897 5.908121
v 13.859365 34.028946 5.908121
v 13.873046 34.024799 5.908121
v 12.764845 34.600933 5.908121
v 12.775203 34.592434 5.908121
v 12.979036 34.425156 5.908121
v 12.315596 35.038731 5.908121
v 12.324915 35.027378 5.908121
v 12.489295 34.827076 5.908121
v 12.305521 35.051006 5.908121
v 12.087376 35.316818 5.908121
v 11.639380 36.367870 5.908121
v 11.788723 35.875557 5.908121
v 13.290670 34.258583 5.908121
v 13.537779 34.126503 5.908121
v -15.473936 35.343967 5.908121
v -15.254461 35.076534 5.908121
v -15.245481 35.065594 5.908121
v -15.237175 35.055473 5.908121
v -15.077873 34.861362 5.908121
v -14.801216 34.634315 5.908121
v -14.791836 34.626617 5.908121
v -14.595270 34.465298 5.908121
v -14.281507 34.297592 5.908121
v -14.044673 34.171001 5.908121
v -13.719222 34.072277 5.908121
v -13.706255 34.068340 5.908121
v -13.447240 33.989769 5.908121
v -13.110865 33.956638 5.908121
v -12.825930 33.928574 5.908121
v -12.507076 33.959980 5.908121
v -12.204619 33.989769 5.908121
v -11.916063 34.077305 5.908121
v -11.901203 34.081810 5.908121
v -11.607185 34.171001 5.908121
v -11.345824 34.310703 5.908121
v -11.056589 34.465298 5.908121
v -10.844224 34.639580 5.908121
v -10.831806 34.649773 5.908121
v -10.573986 34.861362 5.908121
v -10.404823 35.067486 5.908121
v -10.393295 35.081532 5.908121
v -10.380836 35.096718 5.908121
v -10.177923 35.343967 5.908121
v -9.883624 35.894562 5.908121
v -6.909252 35.244621 5.908121
v -5.009946 35.244621 5.908121
v -4.543712 27.587740 5.908190
v 5.835273 27.587740 5.908212
v 6.317737 35.244621 5.908121
v 13.675505 40.139935 5.908121
v 13.818032 40.183167 5.908121
v 14.144049 40.282063 5.908121
v 14.248187 40.292320 5.908121
v 14.683945 40.335243 5.908121
v 12.778920 39.635265 5.908121
v 12.886658 39.723686 5.908121
v 13.274946 39.957664 5.908121
v 12.979036 39.799500 5.908121
v 13.537779 40.098156 5.908121
v 12.489295 39.397579 5.908121
v 12.441513 39.339355 5.908121
v 12.348366 39.225857 5.908121
v 12.087376 38.907841 5.908121
v 12.070904 38.877022 5.908121
v 11.857166 38.477150 5.908121
v 11.789998 38.351486 5.908121
v 11.788723 38.349098 5.908121
v 11.659281 37.922386 5.908121
v 11.616097 37.780029 5.908121
v 11.564843 37.337017 5.908121
v 11.604812 37.742828 5.908121
v 11.549906 37.185360 5.908121
v 11.555328 36.984253 5.908121
v 11.542713 37.112328 5.908121
v 11.570379 36.831413 5.908121
v 11.590971 36.622349 5.908121
v 11.604812 36.481831 5.908121
v 11.606093 36.477608 5.908121
v 17.905167 36.352875 5.908121
v 17.861181 36.207874 5.908121
v 17.760374 35.875557 5.908121
v 17.944284 36.481831 5.908121
v 17.974545 36.789043 5.908121
v 17.989758 36.943512 5.908121
v 17.979729 37.382957 5.908121
v 18.006384 37.112328 5.908121
v 17.964422 37.538361 5.908121
v 17.944284 37.742828 5.908121
v 17.875807 37.968571 5.908121
v 17.831022 38.116196 5.908121
v 17.760374 38.349098 5.908121
v 17.666359 38.524990 5.908121
v 17.595842 38.656921 5.908121
v 17.461721 38.907841 5.908121
v 17.359339 39.032593 5.908121
v 17.269098 39.142551 5.908121
v 17.059801 39.397579 5.908121
v 16.966600 39.474064 5.908121
v 16.626253 39.753384 5.908121
v 16.570059 39.799500 5.908121
v 16.503197 39.835239 5.908121
v 16.110199 40.045303 5.908121
v 16.011318 40.098156 5.908121
v 15.699009 40.192894 5.908121
v 15.552146 40.237438 5.908121
v 15.405048 40.282063 5.908121
v 15.118287 40.310307 5.908121
v 14.774549 40.344162 5.908121
v -15.917793 -35.309101 5.908114
v -15.875130 -35.168461 5.908115
v -15.778131 -34.848701 5.908115
v -15.959970 -35.448139 5.908114
v -15.989302 -35.745953 5.908114
v -16.004034 -35.895519 5.908114
v -15.995289 -36.336342 5.908114
v -16.021368 -36.071529 5.908114
v -15.980482 -36.486671 5.908114
v -15.959970 -36.694923 5.908114
v -15.892153 -36.918484 5.908114
v -15.848841 -37.061268 5.908114
v -15.778131 -37.294361 5.908114
v -15.683498 -37.471405 5.908114
v -15.615253 -37.599083 5.908114
v -15.482845 -37.846802 5.908114
v -15.377314 -37.975391 5.908114
v -15.289862 -38.081951 5.908114
v -15.085456 -38.331024 5.908114
v -14.985519 -38.413040 5.908114
v -14.644922 -38.692558 5.908114
v -14.601235 -38.728416 5.908114
v -14.523267 -38.770088 5.908114
v -14.130788 -38.979870 5.908114
v -14.048792 -39.023697 5.908114
v -13.718989 -39.123741 5.908114
v -13.575389 -39.167309 5.908114
v -13.449356 -39.205536 5.908114
v -13.142344 -39.235779 5.908114
v -12.825963 -39.266937 5.908114
v -12.710967 -39.255611 5.908114
v -12.279153 -39.213081 5.908114
v -12.202570 -39.205536 5.908114
v -11.855705 -39.100315 5.908114
v -11.714639 -39.057526 5.908114
v -11.603133 -39.023697 5.908114
v -11.322086 -38.873478 5.908114
v -10.943179 -38.640182 5.908114
v -11.050691 -38.728416 5.908114
v -10.835670 -38.551952 5.908114
v -10.566469 -38.331024 5.908114
v -10.507598 -38.259285 5.908114
v -10.414307 -38.145611 5.908114
v -10.169080 -37.846802 5.908114
v -10.145432 -37.802559 5.908114
v -9.936381 -37.411453 5.908114
v -9.873794 -37.294361 5.908114
v -9.870825 -37.284573 5.908114
v -9.743708 -36.865524 5.908114
v -9.700189 -36.722061 5.908114
v -9.691956 -36.694923 5.908114
v -9.652062 -36.289883 5.908114
v -9.636982 -36.136772 5.908114
v -9.643429 -35.940834 5.908114
v -9.630556 -36.071529 5.908114
v -9.658639 -35.786411 5.908114
v -9.678700 -35.582726 5.908114
v -9.691956 -35.448139 5.908114
v -9.695461 -35.436584 5.908114
v -12.569804 39.129322 11.944641
v -12.287615 39.092171 11.944641
v -12.809443 39.160870 11.944641
v -13.091631 39.123722 11.944641
v -13.331270 39.092171 11.944641
v -13.594224 38.983246 11.944641
v -13.817535 38.890755 11.944641
v -14.043344 38.717480 11.944641
v -14.235100 38.570339 11.944641
v -14.408370 38.344532 11.944641
v -14.555514 38.152771 11.944641
v -14.664433 37.889816 11.944641
v -14.756927 37.666508 11.944641
v -14.794079 37.384315 11.944641
v -14.825627 37.144672 11.944641
v -14.788475 36.862484 11.944640
v -14.756927 36.622849 11.944640
v -14.648008 36.359890 11.944640
v -14.555514 36.136581 11.944640
v -14.382244 35.910770 11.944640
v -14.235100 35.719009 11.944640
v -14.009291 35.545746 11.944640
v -13.817535 35.398602 11.944640
v -13.554579 35.289680 11.944640
v -13.331270 35.197186 11.944640
v -13.049082 35.160034 11.944640
v -12.809443 35.128487 11.944640
v -12.527254 35.165630 11.944640
v -12.287615 35.197186 11.944640
v -12.024654 35.306107 11.944640
v -11.801345 35.398602 11.944640
v -11.575535 35.571865 11.944640
v -11.383774 35.719009 11.944640
v -11.210508 35.944824 11.944640
v -11.063371 36.136581 11.944640
v -10.954446 36.399536 11.944640
v -10.861945 36.622849 11.944640
v -10.824794 36.905037 11.944640
v -10.793246 37.144672 11.944641
v -10.830397 37.426868 11.944641
v -10.861945 37.666508 11.944641
v -10.970870 37.929462 11.944641
v -11.063371 38.152771 11.944641
v -11.236635 38.378578 11.944641
v -11.383774 38.570339 11.944641
v -11.609582 38.743610 11.944641
v -11.801345 38.890755 11.944641
v -12.064304 38.999676 11.944641
v 15.010188 -34.137203 11.944634
v 15.283165 -34.173138 11.944634
v 14.778373 -34.106682 11.944634
v 14.505393 -34.142616 11.944634
v 14.273575 -34.173138 11.944634
v 14.019201 -34.278507 11.944634
v 13.803185 -34.367981 11.944634
v 13.584749 -34.535591 11.944634
v 13.399251 -34.677933 11.944634
v 13.231638 -34.896374 11.944634
v 13.089297 -35.081871 11.944634
v 12.983934 -35.336239 11.944634
v 12.894459 -35.552261 11.944634
v 12.858521 -35.825237 11.944634
v 12.828002 -36.057053 11.944634
v 12.863940 -36.330032 11.944634
v 12.894459 -36.561848 11.944633
v 12.999822 -36.816219 11.944633
v 13.089297 -37.032242 11.944633
v 13.256910 -37.250675 11.944633
v 13.399251 -37.436176 11.944633
v 13.617685 -37.603786 11.944633
v 13.803185 -37.746128 11.944633
v 14.057558 -37.851494 11.944633
v 14.273575 -37.940971 11.944633
v 14.546555 -37.976910 11.944633
v 14.778373 -38.007427 11.944633
v 15.051350 -37.971497 11.944633
v 15.283165 -37.940971 11.944633
v 15.537539 -37.835602 11.944633
v 15.753555 -37.746128 11.944633
v 15.971993 -37.578514 11.944633
v 16.157494 -37.436176 11.944633
v 16.325106 -37.217739 11.944633
v 16.467443 -37.032242 11.944633
v 16.572807 -36.777870 11.944633
v 16.662287 -36.561848 11.944633
v 16.698225 -36.288868 11.944634
v 16.728743 -36.057053 11.944634
v 16.692804 -35.784077 11.944634
v 16.662287 -35.552261 11.944634
v 16.556921 -35.297890 11.944634
v 16.467443 -35.081871 11.944634
v 16.299831 -34.863430 11.944634
v 16.157494 -34.677933 11.944634
v 15.939056 -34.510323 11.944634
v 15.753555 -34.367981 11.944634
v 15.499182 -34.262611 11.944634
v 15.014697 39.097862 11.944641
v 15.292413 39.061302 11.944641
v 14.778855 39.128914 11.944641
v 14.501140 39.092354 11.944641
v 14.265295 39.061302 11.944641
v 14.006501 38.954102 11.944641
v 13.786734 38.863075 11.944641
v 13.564506 38.692551 11.944641
v 13.375783 38.547737 11.944641
v 13.205262 38.325512 11.944641
v 13.060453 38.136791 11.944641
v 12.953256 37.878006 11.944641
v 12.862223 37.658234 11.944641
v 12.825660 37.380508 11.944641
v 12.794612 37.144669 11.944641
v 12.831174 36.866955 11.944640
v 12.862223 36.631111 11.944640
v 12.969420 36.372322 11.944640
v 13.060453 36.152554 11.944640
v 13.230974 35.930317 11.944640
v 13.375783 35.741600 11.944640
v 13.598012 35.571079 11.944640
v 13.786734 35.426270 11.944640
v 14.045527 35.319073 11.944640
v 14.265295 35.228043 11.944640
v 14.543012 35.191483 11.944640
v 14.778855 35.160431 11.944640
v 15.056572 35.196991 11.944640
v 15.292413 35.228043 11.944640
v 15.551204 35.335243 11.944640
v 15.770971 35.426270 11.944640
v 15.993202 35.596786 11.944640
v 16.181923 35.741600 11.944640
v 16.352444 35.963833 11.944640
v 16.497253 36.152554 11.944640
v 16.604450 36.411339 11.944640
v 16.695482 36.631111 11.944640
v 16.732044 36.908829 11.944640
v 16.763094 37.144669 11.944641
v 16.726532 37.422390 11.944641
v 16.695482 37.658234 11.944641
v 16.588287 37.917019 11.944641
v 16.497253 38.136791 11.944641
v 16.326733 38.359020 11.944641
v 16.181923 38.547737 11.944641
v 15.959691 38.718266 11.944641
v 15.770971 38.863075 11.944641
v 15.512181 38.970272 11.944641
v -12.569756 -34.070293 11.944634
v -12.287513 -34.107449 11.944634
v -12.809440 -34.038734 11.944634
v -13.091683 -34.075893 11.944634
v -13.331368 -34.107449 11.944634
v -13.594379 -34.216396 11.944634
v -13.817733 -34.308907 11.944634
v -14.043587 -34.482204 11.944634
v -14.235384 -34.629375 11.944634
v -14.408681 -34.855236 11.944634
v -14.555848 -35.047031 11.944634
v -14.664793 -35.310036 11.944634
v -14.757312 -35.533390 11.944634
v -14.794470 -35.815628 11.944634
v -14.826026 -36.055317 11.944634
v -14.788867 -36.337563 11.944634
v -14.757312 -36.577248 11.944633
v -14.648367 -36.840256 11.944633
v -14.555848 -37.063610 11.944633
v -14.382550 -37.289455 11.944633
v -14.235384 -37.481255 11.944633
v -14.009531 -37.654556 11.944633
v -13.817733 -37.801727 11.944633
v -13.554722 -37.910675 11.944633
v -13.331368 -38.003185 11.944633
v -13.049126 -38.040344 11.944633
v -12.809440 -38.071899 11.944633
v -12.527197 -38.034744 11.944633
v -12.287513 -38.003185 11.944633
v -12.024501 -37.894245 11.944633
v -11.801147 -37.801727 11.944633
v -11.575301 -37.628426 11.944633
v -11.383509 -37.481255 11.944633
v -11.210205 -37.255405 11.944633
v -11.063032 -37.063610 11.944633
v -10.954092 -36.800606 11.944633
v -10.861581 -36.577248 11.944633
v -10.824422 -36.295002 11.944634
v -10.792868 -36.055317 11.944634
v -10.830025 -35.773071 11.944634
v -10.861581 -35.533390 11.944634
v -10.970520 -35.270382 11.944634
v -11.063032 -35.047031 11.944634
v -11.236336 -34.821175 11.944634
v -11.383509 -34.629375 11.944634
v -11.609356 -34.456081 11.944634
v -11.801147 -34.308907 11.944634
v -12.064158 -34.199963 11.944634
v -12.825930 33.928574 11.944640
v -12.204619 33.989769 11.944640
v -11.607185 34.171001 11.944640
v -11.056589 34.465298 11.944640
v -10.573986 34.861362 11.944640
v -10.177923 35.343967 11.944640
v -9.883624 35.894562 11.944640
v -9.702394 36.491997 11.944640
v -9.641200 37.113308 11.944641
v -9.702394 37.734615 11.944641
v -9.883624 38.332050 11.944641
v -10.177923 38.882648 11.944641
v -10.573986 39.365246 11.944641
v -11.056589 39.761311 11.944641
v -11.607185 40.055614 11.944641
v -12.204619 40.236839 11.944641
v -12.825930 40.298035 11.944641
v -13.447240 40.236839 11.944641
v -14.044673 40.055614 11.944641
v -14.595270 39.761311 11.944641
v -15.077873 39.365246 11.944641
v -15.473936 38.882648 11.944641
v -15.768236 38.332050 11.944641
v -15.949467 37.734615 11.944641
v -16.010658 37.113308 11.944641
v -15.949467 36.491997 11.944640
v -15.768236 35.894562 11.944640
v -15.473936 35.343967 11.944640
v -15.077873 34.861362 11.944640
v -14.595270 34.465298 11.944640
v -14.044673 34.171001 11.944640
v -13.447240 33.989769 11.944640
v 14.774549 33.880489 11.944640
v 15.405048 33.942593 11.944640
v 16.011318 34.126503 11.944640
v 16.570059 34.425156 11.944640
v 17.059801 34.827076 11.944640
v 17.461721 35.316818 11.944640
v 17.760374 35.875557 11.944640
v 17.944284 36.481831 11.944640
v 18.006384 37.112328 11.944641
v 17.944284 37.742828 11.944641
v 17.760374 38.349098 11.944641
v 17.461721 38.907841 11.944641
v 17.059801 39.397579 11.944641
v 16.570059 39.799500 11.944641
v 16.011318 40.098156 11.944641
v 15.405048 40.282063 11.944641
v 14.774549 40.344162 11.944641
v 14.144049 40.282063 11.944641
v 13.537779 40.098156 11.944641
v 12.979036 39.799500 11.944641
v 12.489295 39.397579 11.944641
v 12.087376 38.907841 11.944641
v 11.788723 38.349098 11.944641
v 11.604812 37.742828 11.944641
v 11.542713 37.112328 11.944641
v 11.604812 36.481831 11.944640
v 11.788723 35.875557 11.944640
v 12.087376 35.316818 11.944640
v 12.489295 34.827076 11.944640
v 12.979036 34.425156 11.944640
v 13.537779 34.126503 11.944640
v 14.144049 33.942593 11.944640
v -12.825963 -39.266937 11.944633
v -12.202570 -39.205536 11.944633
v -11.603133 -39.023697 11.944633
v -11.050691 -38.728416 11.944633
v -10.566469 -38.331024 11.944633
v -10.169080 -37.846802 11.944633
v -9.873794 -37.294361 11.944633
v -9.691956 -36.694923 11.944633
v -9.630556 -36.071529 11.944634
v -9.691956 -35.448139 11.944634
v -9.873794 -34.848701 11.944634
v -10.169080 -34.296257 11.944634
v -10.566469 -33.812038 11.944634
v -11.050691 -33.414646 11.944634
v -11.603133 -33.119358 11.944634
v -12.202570 -32.937523 11.944634
v -12.825963 -32.876122 11.944634
v -13.449356 -32.937523 11.944634
v -14.048792 -33.119358 11.944634
v -14.601235 -33.414646 11.944634
v -15.085456 -33.812038 11.944634
v -15.482845 -34.296257 11.944634
v -15.778131 -34.848701 11.944634
v -15.959970 -35.448139 11.944634
v -16.021368 -36.071529 11.944634
v -15.959970 -36.694923 11.944633
v -15.778131 -37.294361 11.944633
v -15.482845 -37.846802 11.944633
v -15.085456 -38.331024 11.944633
v -14.601235 -38.728416 11.944633
v -14.048792 -39.023697 11.944633
v -13.449356 -39.205536 11.944633
v 14.773965 -39.199188 11.944633
v 15.382975 -39.139202 11.944633
v 15.968578 -38.961559 11.944633
v 16.508274 -38.673088 11.944633
v 16.981323 -38.284863 11.944633
v 17.369545 -37.811817 11.944633
v 17.658018 -37.272125 11.944633
v 17.835659 -36.686516 11.944633
v 17.895641 -36.077507 11.944634
v 17.835659 -35.468498 11.944634
v 17.658018 -34.882893 11.944634
v 17.369545 -34.343197 11.944634
v 16.981323 -33.870152 11.944634
v 16.508274 -33.481926 11.944634
v 15.968578 -33.193455 11.944634
v 15.382975 -33.015816 11.944634
v 14.773965 -32.955830 11.944634
v 14.164956 -33.015816 11.944634
v 13.579350 -33.193455 11.944634
v 13.039653 -33.481926 11.944634
v 12.566607 -33.870152 11.944634
v 12.178386 -34.343197 11.944634
v 11.889912 -34.882893 11.944634
v 11.712271 -35.468498 11.944634
v 11.652288 -36.077507 11.944634
v 11.712271 -36.686516 11.944633
v 11.889912 -37.272125 11.944633
v 12.178386 -37.811817 11.944633
v 12.566607 -38.284863 11.944633
v 13.039653 -38.673088 11.944633
v 13.579350 -38.961559 11.944633
v 14.164956 -39.139202 11.944633
v -6.261984 -33.155384 18.981331
v 6.811685 -32.980625 18.981167
v 6.811685 -33.155384 18.981167
v 6.811685 -32.155384 18.981167
v -6.261984 -32.155384 18.981331
v -6.260026 -32.146183 9.929954
v 6.811685 -33.155384 18.981297
v -6.261984 -33.155384 18.981297
v -5.996386 -33.562138 18.981297
v -5.996386 -33.562138 9.929954
v -6.260026 -33.312992 9.929954
v -6.261984 -33.312992 18.981297
v 6.525889 -33.562138 18.981297
v 6.525889 -33.562138 9.929954
v 6.811685 -33.312992 18.981297
v 6.811685 -33.562138 9.929954
v 3.306081 -3.763565 8.136118
v 2.254253 2.637573 8.136118
v -2.759377 2.637573 8.136118
v -5.872200 9.102667 8.136119
v 3.306081 -3.765162 8.136118
v -2.324280 7.216105 7.202338
v -2.759377 7.651202 7.375904
v -2.759377 2.637573 7.375903
v -2.324280 3.072670 7.202338
v 2.254253 2.637573 7.375903
v 1.819156 3.072670 7.202338
v 2.254253 7.651202 7.375904
v 1.819156 7.216105 7.202338
v -5.552359 20.666487 7.637709
v -5.872200 20.986326 7.811275
v -5.872200 9.102667 7.811274
v -5.552359 9.422506 7.637708
v -2.186675 9.102667 7.811274
v -2.506515 9.422506 7.637708
v -2.186675 20.986326 7.811275
v -2.506515 20.666487 7.637709
v 3.625922 1.846373 7.712015
v 3.306081 2.166213 7.885581
v 3.306081 -3.765162 7.885581
v 3.625922 -3.445322 7.712015
v 6.352612 -3.765162 7.885581
v 6.032771 -3.445322 7.712015
v 6.352612 2.166213 7.885581
v 6.032771 1.846373 7.712015
v -6.259514 -32.155384 8.136115
v -6.259514 -32.155178 8.135052
v -6.259514 -31.828312 6.451463
v -6.259514 -29.136826 6.451463
v -6.259514 -28.388981 8.136115
v 6.812083 -31.828312 6.451463
v 6.814204 -32.155384 8.143187
v 6.814204 -32.155384 8.136115
v 6.814204 -28.388981 8.136115
v 6.814204 -29.136826 6.451463
f 1 2 3
f 4 5 6
f 7 8 9
f 10 11 12
f 10 12 13
f 13 12 14
f 13 14 15
f 15 14 16
f 15 16 17
f 17 16 18
f 17 18 19
f 19 18 20
f 19 20 21
f 22 23 24
f 22 24 25
f 25 24 26
f 25 26 27
f 27 26 28
f 27 28 29
f 29 28 30
f 29 30 31
f 31 30 18
f 31 18 32
f 32 18 16
f 33 34 31
f 33 31 32
f 20 18 35
f 36 37 27
f 27 37 25
f 9 38 39
f 39 38 40
f 39 40 24
f 24 40 26
f 39 7 9
f 13 15 6
f 6 15 41
f 6 41 42
f 42 41 21
f 41 19 21
f 42 4 6
f 43 44 12
f 12 44 14
f 38 45 40
f 40 45 46
f 46 45 30
f 46 30 28
f 45 47 30
f 13 6 48
f 48 6 49
f 6 5 49
f 49 5 50
f 5 10 50
f 50 10 51
f 10 13 51
f 51 13 48
f 26 40 52
f 52 40 53
f 40 46 53
f 53 46 54
f 46 28 54
f 54 28 55
f 28 26 55
f 55 26 52
f 45 38 56
f 56 38 57
f 38 58 57
f 57 58 59
f 47 45 60
f 60 45 56
f 12 11 61
f 61 11 62
f 11 33 62
f 62 33 63
f 33 32 63
f 63 32 64
f 32 16 64
f 64 16 65
f 16 14 65
f 65 14 66
f 14 44 66
f 66 44 67
f 44 43 67
f 67 43 68
f 43 12 68
f 68 12 61
f 69 4 70
f 70 4 71
f 4 42 71
f 71 42 72
f 42 73 72
f 72 73 74
f 17 19 75
f 75 19 76
f 19 41 76
f 76 41 77
f 41 15 77
f 77 15 78
f 15 17 78
f 78 17 75
f 24 23 79
f 79 23 80
f 23 7 80
f 80 7 81
f 7 39 81
f 81 39 82
f 39 24 82
f 82 24 79
f 83 84 60
f 85 9 86
f 86 9 87
f 9 8 87
f 87 8 88
f 8 89 88
f 88 89 84
f 37 36 90
f 90 36 91
f 36 27 91
f 91 27 92
f 27 29 92
f 92 29 93
f 29 31 93
f 93 31 94
f 31 34 94
f 94 34 95
f 34 22 95
f 95 22 96
f 22 25 96
f 96 25 97
f 25 37 97
f 97 37 90
f 35 18 98
f 98 99 69
f 98 69 35
f 100 21 101
f 101 21 102
f 21 20 102
f 102 20 103
f 20 35 103
f 103 35 104
f 105 106 107
f 107 106 108
f 108 106 109
f 108 109 110
f 110 109 111
f 110 111 112
f 112 111 113
f 112 113 114
f 114 113 115
f 114 115 116
f 116 115 117
f 116 117 118
f 118 117 119
f 118 119 120
f 120 119 121
f 120 121 122
f 122 121 123
f 122 123 124
f 124 123 125
f 124 125 126
f 126 125 127
f 126 127 128
f 128 127 129
f 128 129 130
f 130 129 131
f 130 131 132
f 132 131 133
f 132 133 134
f 134 133 135
f 134 135 136
f 136 135 137
f 136 137 138
f 138 137 139
f 138 139 140
f 140 139 141
f 140 141 142
f 142 141 143
f 142 143 144
f 144 143 145
f 144 145 146
f 146 145 147
f 146 147 148
f 149 150 151
f 151 150 152
f 152 150 153
f 152 153 154
f 154 153 155
f 154 155 156
f 156 155 157
f 156 157 158
f 158 157 159
f 158 159 160
f 160 159 161
f 160 161 162
f 162 161 163
f 162 163 164
f 164 163 165
f 164 165 166
f 166 165 167
f 166 167 168
f 168 167 169
f 168 169 170
f 170 169 171
f 170 171 172
f 172 171 173
f 172 173 174
f 174 173 175
f 174 175 176
f 176 175 177
f 176 177 178
f 178 177 179
f 178 179 180
f 180 179 181
f 180 181 182
f 182 181 183
f 182 183 184
f 184 183 185
f 184 185 186
f 186 185 187
f 186 187 188
f 188 187 189
f 188 189 190
f 190 189 191
f 190 191 192
f 49 77 48
f 48 77 78
f 48 78 61
f 61 78 66
f 61 66 68
f 68 66 67
f 50 72 49
f 49 72 102
f 49 102 77
f 77 102 103
f 77 103 76
f 76 103 193
f 76 193 75
f 75 193 65
f 75 65 66
f 51 48 62
f 62 48 61
f 53 82 52
f 52 82 79
f 52 79 92
f 92 79 97
f 92 97 91
f 91 97 90
f 54 57 53
f 53 57 87
f 53 87 82
f 82 87 88
f 82 88 81
f 55 83 54
f 54 83 56
f 54 56 57
f 83 55 93
f 93 55 52
f 93 52 92
f 104 70 193
f 86 87 57
f 86 57 59
f 83 60 56
f 63 64 95
f 95 64 94
f 94 64 193
f 94 193 83
f 64 65 193
f 35 69 70
f 35 70 104
f 101 102 72
f 101 72 74
f 21 100 73
f 21 73 42
f 47 89 194
f 194 195 196
f 196 197 198
f 196 198 199
f 47 194 196
f 200 30 47
f 201 192 202
f 202 200 47
f 47 196 199
f 47 199 203
f 201 202 47
f 204 201 47
f 47 203 205
f 47 205 206
f 207 204 47
f 206 207 47
f 84 89 47
f 84 47 60
f 71 72 50
f 78 75 66
f 79 80 97
f 97 80 96
f 93 94 83
f 103 104 193
f 100 101 74
f 100 74 73
f 208 209 210
f 210 209 211
f 210 211 212
f 213 211 214
f 213 214 215
f 215 214 216
f 217 218 212
f 212 218 219
f 212 219 220
f 220 219 221
f 221 219 222
f 217 223 218
f 220 210 212
f 224 225 226
f 226 225 227
f 228 229 230
f 230 229 231
f 231 229 232
f 232 229 233
f 232 233 3
f 234 235 220
f 220 235 210
f 208 210 236
f 236 210 235
f 216 214 237
f 237 214 238
f 239 240 241
f 241 240 242
f 242 240 243
f 242 243 244
f 244 243 245
f 245 243 246
f 245 246 247
f 245 247 248
f 248 247 249
f 248 249 250
f 250 249 251
f 250 251 252
f 252 251 253
f 253 251 254
f 253 254 255
f 255 254 256
f 255 256 257
f 257 256 258
f 257 258 259
f 259 258 260
f 259 260 261
f 261 260 262
f 263 264 261
f 265 266 267
f 267 266 268
f 267 268 269
f 268 266 270
f 270 266 271
f 270 271 195
f 195 271 272
f 195 272 196
f 196 272 273
f 196 273 197
f 197 273 274
f 197 274 275
f 275 274 276
f 275 276 277
f 275 277 278
f 278 277 279
f 278 279 280
f 280 279 281
f 280 281 282
f 282 281 283
f 283 281 284
f 283 284 285
f 283 285 286
f 286 285 149
f 286 149 151
f 287 288 289
f 289 288 290
f 290 288 291
f 290 291 292
f 292 291 293
f 292 293 294
f 294 293 295
f 294 295 296
f 296 295 297
f 296 297 298
f 298 297 299
f 298 299 300
f 300 299 301
f 300 301 302
f 302 301 303
f 302 303 304
f 304 303 305
f 304 305 306
f 306 305 307
f 306 307 308
f 308 307 309
f 308 309 310
f 310 309 311
f 310 311 312
f 312 311 313
f 312 313 314
f 314 313 315
f 314 315 316
f 316 315 317
f 316 317 318
f 318 317 319
f 318 319 320
f 320 319 321
f 320 321 322
f 322 321 323
f 322 323 324
f 324 323 325
f 324 325 326
f 326 325 327
f 326 327 328
f 328 327 239
f 328 239 241
f 329 330 331
f 331 330 332
f 331 332 333
f 333 332 334
f 333 334 335
f 335 334 289
f 335 289 336
f 330 329 337
f 337 329 338
f 337 338 339
f 339 287 337
f 337 287 334
f 337 334 332
f 287 289 334
f 340 341 336
f 336 341 342
f 336 342 333
f 333 342 343
f 333 343 331
f 341 343 342
f 337 332 330
f 333 335 336
f 191 344 192
f 192 344 345
f 192 345 202
f 202 345 346
f 202 346 347
f 347 346 200
f 200 346 348
f 200 348 30
f 344 349 345
f 345 349 346
f 349 350 346
f 346 350 348
f 147 351 148
f 148 351 352
f 148 352 353
f 353 352 354
f 353 354 355
f 355 354 356
f 356 354 357
f 356 357 358
f 351 359 352
f 352 359 354
f 359 360 354
f 354 360 357
f 222 219 361
f 361 219 362
f 363 362 218
f 218 362 219
f 364 234 221
f 221 234 220
f 365 238 211
f 211 238 214
f 366 365 209
f 209 365 211
f 367 368 369
f 369 368 370
f 236 235 371
f 371 235 372
f 372 235 234
f 372 234 373
f 373 234 374
f 374 234 364
f 375 376 373
f 373 376 372
f 377 378 379
f 379 378 380
f 381 380 382
f 382 380 378
f 383 384 385
f 385 384 386
f 387 265 388
f 388 265 267
f 387 388 389
f 389 388 390
f 391 392 393
f 393 392 394
f 388 267 390
f 395 396 397
f 397 396 398
f 397 398 399
f 399 398 400
f 399 400 401
f 401 400 402
f 401 402 403
f 403 402 404
f 403 404 405
f 405 404 406
f 405 406 407
f 407 406 408
f 407 408 409
f 409 408 410
f 409 410 411
f 411 410 412
f 411 412 413
f 413 412 414
f 413 414 415
f 415 414 416
f 415 416 417
f 417 416 418
f 417 418 419
f 419 418 420
f 419 420 421
f 421 420 422
f 421 422 423
f 423 422 424
f 423 424 425
f 425 424 426
f 425 426 427
f 427 426 428
f 427 428 429
f 429 428 430
f 429 430 431
f 431 430 432
f 431 432 433
f 433 432 434
f 433 434 435
f 435 434 436
f 435 436 437
f 437 436 438
f 437 438 439
f 439 438 440
f 439 440 441
f 441 440 442
f 441 442 395
f 395 442 396
f 443 444 445
f 445 444 446
f 445 446 447
f 447 446 448
f 447 448 449
f 449 448 450
f 449 450 451
f 451 450 452
f 451 452 453
f 453 452 454
f 453 454 455
f 455 454 456
f 455 456 457
f 457 456 458
f 457 458 459
f 459 458 460
f 459 460 461
f 461 460 462
f 461 462 463
f 463 462 464
f 463 464 465
f 465 464 466
f 465 466 467
f 467 466 468
f 467 468 469
f 469 468 470
f 469 470 471
f 471 470 472
f 471 472 473
f 473 472 474
f 473 474 475
f 475 474 476
f 475 476 477
f 477 476 478
f 477 478 479
f 479 478 480
f 479 480 481
f 481 480 482
f 481 482 483
f 483 482 484
f 483 484 485
f 485 484 486
f 485 486 487
f 487 486 488
f 487 488 489
f 489 488 490
f 489 490 443
f 443 490 444
f 491 492 493
f 493 492 494
f 493 494 495
f 495 494 496
f 495 496 497
f 497 496 498
f 497 498 499
f 499 498 500
f 499 500 501
f 501 500 502
f 501 502 503
f 503 502 504
f 503 504 505
f 505 504 506
f 505 506 507
f 507 506 508
f 507 508 509
f 509 508 510
f 509 510 511
f 511 510 512
f 511 512 513
f 513 512 514
f 513 514 515
f 515 514 516
f 515 516 517
f 517 516 518
f 517 518 519
f 519 518 520
f 519 520 521
f 521 520 522
f 521 522 523
f 523 522 524
f 523 524 525
f 525 524 526
f 525 526 527
f 527 526 528
f 527 528 529
f 529 528 530
f 529 530 531
f 531 530 532
f 531 532 533
f 533 532 534
f 533 534 535
f 535 534 536
f 535 536 537
f 537 536 538
f 537 538 491
f 491 538 492
f 539 540 541
f 541 540 542
f 541 542 543
f 543 542 544
f 543 544 545
f 545 544 546
f 545 546 547
f 547 546 548
f 547 548 549
f 549 548 550
f 549 550 551
f 551 550 552
f 551 552 553
f 553 552 554
f 553 554 555
f 555 554 556
f 555 556 557
f 557 556 558
f 557 558 559
f 559 558 560
f 559 560 561
f 561 560 562
f 561 562 563
f 563 562 564
f 563 564 565
f 565 564 566
f 565 566 567
f 567 566 568
f 567 568 569
f 569 568 570
f 569 570 571
f 571 570 572
f 571 572 573
f 573 572 574
f 573 574 575
f 575 574 576
f 575 576 577
f 577 576 578
f 577 578 579
f 579 578 580
f 579 580 581
f 581 580 582
f 581 582 583
f 583 582 584
f 583 584 585
f 585 584 586
f 585 586 539
f 539 586 540
f 587 588 193
f 193 588 83
f 589 217 590
f 590 217 212
f 386 83 588
f 386 588 385
f 591 226 215
f 592 213 215
f 592 215 226
f 587 193 593
f 593 592 226
f 227 587 593
f 593 226 227
f 587 227 594
f 594 227 595
f 595 227 225
f 596 597 391
f 391 597 392
f 390 384 389
f 389 384 383
f 598 599 224
f 224 599 233
f 224 233 229
f 224 229 225
f 225 229 600
f 225 600 595
f 600 229 601
f 601 229 228
f 602 603 604
f 604 603 605
f 604 605 606
f 606 605 607
f 606 607 608
f 608 607 609
f 608 609 610
f 610 609 611
f 610 611 612
f 612 611 613
f 612 613 614
f 614 613 615
f 615 613 616
f 615 616 617
f 617 616 228
f 617 228 618
f 618 228 619
f 619 228 230
f 619 230 620
f 620 230 231
f 616 601 228
f 621 622 623
f 623 622 624
f 624 622 625
f 624 625 626
f 626 625 627
f 626 627 628
f 628 627 629
f 628 629 630
f 630 629 631
f 630 631 632
f 632 631 633
f 632 633 634
f 634 633 635
f 634 635 636
f 636 635 637
f 636 637 638
f 638 637 639
f 638 639 640
f 640 639 641
f 640 641 642
f 642 641 643
f 642 643 644
f 644 643 645
f 644 645 646
f 646 645 647
f 646 647 648
f 648 647 649
f 648 649 650
f 650 649 651
f 650 651 652
f 652 651 653
f 652 653 654
f 654 653 655
f 654 655 656
f 656 655 657
f 656 657 658
f 658 657 659
f 658 659 660
f 660 659 661
f 660 661 662
f 662 661 603
f 662 603 602
f 663 664 18
f 18 664 665
f 18 665 98
f 98 665 99
f 664 666 665
f 665 666 667
f 665 667 99
f 99 667 623
f 623 667 668
f 623 668 621
f 666 668 667
f 348 663 30
f 30 663 18
f 669 2 670
f 670 2 671
f 670 671 672
f 672 671 673
f 672 673 674
f 674 673 675
f 674 675 676
f 676 675 677
f 676 677 678
f 678 677 679
f 678 679 680
f 680 679 681
f 680 681 682
f 680 682 683
f 683 682 684
f 683 684 685
f 685 684 686
f 685 686 687
f 687 686 688
f 688 686 689
f 688 689 690
f 688 690 691
f 691 690 105
f 691 105 107
f 1 3 599
f 599 3 233
f 692 376 693
f 693 376 381
f 381 376 343
f 376 375 343
f 343 375 368
f 343 368 367
f 694 695 375
f 375 695 368
f 696 331 367
f 367 331 343
f 381 358 380
f 380 358 357
f 380 357 379
f 598 224 591
f 591 224 226
f 366 697 365
f 365 697 382
f 365 382 378
f 365 378 238
f 238 378 377
f 238 377 237
f 698 370 695
f 695 370 368
f 699 700 363
f 363 700 369
f 363 369 370
f 363 370 362
f 362 370 698
f 362 698 361
f 694 375 374
f 374 375 373
f 696 367 700
f 700 367 369
f 699 363 223
f 223 363 218
f 589 590 596
f 596 590 597
f 371 372 692
f 692 372 376
f 693 381 697
f 697 381 382
f 692 697 371
f 371 697 209
f 371 209 208
f 692 693 697
f 697 366 209
f 208 236 371
f 443 445 217
f 217 445 447
f 217 447 449
f 449 451 217
f 217 451 453
f 217 453 329
f 329 453 338
f 338 453 455
f 338 455 339
f 339 455 287
f 287 455 457
f 287 457 288
f 288 457 291
f 291 457 293
f 293 457 295
f 295 457 297
f 297 457 459
f 297 459 299
f 299 459 301
f 301 459 461
f 301 461 303
f 303 461 463
f 303 463 305
f 305 463 465
f 305 465 307
f 307 465 467
f 307 467 309
f 309 467 469
f 309 469 311
f 311 469 471
f 311 471 313
f 313 471 473
f 313 473 315
f 315 473 475
f 315 475 317
f 317 475 477
f 317 477 319
f 319 477 321
f 321 477 479
f 321 479 323
f 323 479 325
f 325 479 481
f 325 481 327
f 327 481 239
f 239 481 240
f 240 481 483
f 240 483 243
f 243 483 393
f 243 393 246
f 246 393 247
f 247 393 249
f 249 393 251
f 251 393 254
f 254 393 256
f 256 393 258
f 258 393 260
f 260 393 262
f 262 393 701
f 483 485 393
f 393 485 391
f 391 485 487
f 391 487 489
f 391 489 217
f 217 489 443
f 331 696 217
f 217 696 700
f 217 700 223
f 223 700 699
f 217 589 391
f 391 589 596
f 329 331 217
f 695 374 698
f 698 374 221
f 698 221 222
f 695 694 374
f 374 364 221
f 222 361 698
f 495 125 493
f 493 125 123
f 493 123 491
f 491 123 121
f 491 121 119
f 125 495 127
f 127 495 497
f 127 497 129
f 129 497 131
f 131 497 499
f 131 499 133
f 133 499 501
f 133 501 135
f 135 501 137
f 137 501 503
f 137 503 139
f 139 503 141
f 141 503 505
f 141 505 143
f 143 505 507
f 143 507 145
f 145 507 147
f 147 507 509
f 147 509 351
f 351 509 359
f 359 509 511
f 359 511 360
f 360 511 357
f 357 511 215
f 357 215 379
f 379 215 377
f 377 215 216
f 377 216 237
f 511 513 215
f 215 513 515
f 215 515 517
f 517 519 215
f 215 519 521
f 215 521 679
f 679 521 681
f 681 521 523
f 681 523 682
f 682 523 684
f 684 523 525
f 684 525 686
f 686 525 527
f 686 527 689
f 689 527 690
f 690 527 529
f 690 529 105
f 105 529 106
f 106 529 531
f 106 531 109
f 109 531 533
f 109 533 111
f 111 533 113
f 113 533 535
f 113 535 115
f 115 535 117
f 117 535 537
f 117 537 119
f 119 537 491
f 679 677 215
f 215 677 675
f 215 675 673
f 673 671 215
f 215 671 591
f 591 671 599
f 591 599 598
f 671 2 599
f 599 2 1
f 587 663 588
f 588 663 348
f 588 348 177
f 177 348 350
f 177 350 179
f 179 350 349
f 179 349 181
f 181 349 344
f 181 344 191
f 594 600 587
f 587 600 417
f 587 417 419
f 594 595 600
f 601 616 600
f 600 616 613
f 600 613 611
f 600 611 413
f 413 611 609
f 413 609 411
f 411 609 607
f 411 607 655
f 655 607 659
f 655 659 657
f 607 605 659
f 659 605 661
f 661 605 603
f 655 653 411
f 411 653 409
f 409 653 407
f 407 653 405
f 405 653 403
f 403 653 401
f 401 653 651
f 401 651 649
f 649 647 401
f 401 647 399
f 399 647 645
f 399 645 397
f 397 645 395
f 395 645 643
f 395 643 441
f 441 643 439
f 439 643 641
f 439 641 437
f 437 641 435
f 435 641 639
f 435 639 433
f 175 173 577
f 577 588 177
f 577 177 175
f 587 429 431
f 433 639 637
f 635 587 431
f 433 637 635
f 635 431 433
f 429 587 427
f 427 587 425
f 425 587 423
f 423 587 421
f 421 587 419
f 587 635 663
f 663 635 664
f 664 635 633
f 664 633 666
f 666 633 631
f 666 631 668
f 668 631 621
f 621 631 629
f 621 629 622
f 622 629 627
f 622 627 625
f 181 191 183
f 183 191 189
f 183 189 185
f 185 189 187
f 577 173 575
f 575 173 171
f 575 171 573
f 573 171 571
f 571 171 169
f 571 169 569
f 569 169 567
f 567 169 167
f 567 167 565
f 565 167 563
f 563 167 165
f 563 165 561
f 561 165 559
f 559 165 557
f 557 165 163
f 557 163 555
f 555 163 553
f 553 163 161
f 553 161 159
f 157 389 159
f 159 389 551
f 159 551 553
f 157 155 389
f 389 155 387
f 387 155 153
f 387 153 150
f 149 285 150
f 150 285 387
f 285 284 387
f 387 284 281
f 387 281 279
f 279 277 387
f 387 277 276
f 387 276 274
f 274 273 387
f 387 273 272
f 387 272 271
f 271 266 387
f 387 266 265
f 383 385 389
f 389 385 588
f 389 588 545
f 545 588 543
f 543 588 541
f 541 588 539
f 539 588 585
f 585 588 583
f 583 588 581
f 581 588 579
f 579 588 577
f 545 547 389
f 389 547 549
f 389 549 551
f 413 415 600
f 600 415 417
f 213 702 703
f 213 704 705
f 706 707 708
f 211 213 705
f 706 708 709
f 211 705 706
f 710 711 212
f 706 709 710
f 710 212 211
f 211 706 710
f 194 712 269
f 194 269 268
f 194 268 270
f 194 270 195
f 713 714 192
f 715 716 717
f 717 713 192
f 715 717 192
f 718 715 192
f 719 718 192
f 201 720 719
f 204 721 201
f 207 722 204
f 205 723 206
f 203 724 205
f 725 726 203
f 198 727 199
f 199 725 203
f 728 729 198
f 730 731 732
f 733 734 730
f 282 735 736
f 282 736 733
f 280 282 733
f 280 733 730
f 278 280 730
f 278 730 732
f 275 278 732
f 275 732 728
f 197 275 728
f 197 728 198
f 201 719 192
f 202 347 200
f 592 702 213
f 193 737 593
f 738 739 358
f 343 740 741
f 742 743 744
f 381 343 741
f 742 744 745
f 381 741 742
f 738 358 381
f 381 742 745
f 381 745 738
f 746 747 748
f 748 707 749
f 750 704 213
f 746 748 749
f 750 213 703
f 746 749 750
f 751 746 750
f 750 703 752
f 752 737 193
f 70 71 753
f 752 193 70
f 751 750 752
f 70 753 751
f 751 752 70
f 754 755 756
f 756 708 707
f 748 757 758
f 759 754 756
f 748 758 759
f 748 759 756
f 756 707 748
f 212 711 755
f 749 760 761
f 749 761 750
f 707 706 745
f 744 760 749
f 707 745 744
f 707 744 749
f 739 738 705
f 704 750 761
f 739 705 704
f 704 761 739
f 706 705 738
f 706 738 745
f 755 762 763
f 755 763 756
f 711 710 741
f 740 762 755
f 711 741 740
f 711 740 755
f 743 742 709
f 708 756 763
f 743 709 708
f 708 763 743
f 710 709 742
f 710 742 741
f 764 765 752
f 766 593 737
f 767 768 703
f 592 769 770
f 767 703 702
f 702 592 770
f 770 767 702
f 593 766 769
f 593 769 592
f 771 772 773
f 773 712 194
f 774 771 773
f 773 194 774
f 775 776 264
f 775 264 263
f 773 772 267
f 267 269 712
f 267 712 773
f 267 772 775
f 267 775 263
f 777 642 778
f 779 778 642
f 642 644 780
f 642 780 779
f 781 780 644
f 644 646 782
f 644 782 781
f 783 638 784
f 638 785 784
f 638 640 786
f 638 786 785
f 787 786 640
f 640 642 777
f 640 777 787
f 788 634 789
f 789 634 636
f 636 790 791
f 636 791 789
f 790 636 638
f 790 638 783
f 792 632 634
f 634 788 793
f 634 793 792
f 794 632 792
f 795 796 630
f 630 632 794
f 630 794 795
f 797 630 796
f 798 799 628
f 628 630 797
f 628 797 798
f 800 628 799
f 801 626 628
f 628 800 802
f 628 802 801
f 626 801 803
f 804 805 624
f 624 626 803
f 804 624 803
f 624 805 806
f 807 808 623
f 623 624 806
f 807 623 806
f 809 810 608
f 809 608 811
f 812 606 608
f 812 608 810
f 813 604 606
f 813 606 812
f 814 604 813
f 815 602 604
f 604 814 816
f 604 816 815
f 815 817 602
f 818 819 662
f 662 602 817
f 818 662 817
f 819 820 662
f 821 660 662
f 821 662 820
f 660 821 822
f 660 822 823
f 824 658 660
f 824 660 823
f 825 826 656
f 656 658 824
f 825 656 824
f 656 826 827
f 828 829 654
f 654 656 827
f 828 654 827
f 654 829 830
f 831 832 652
f 652 654 830
f 831 652 830
f 833 834 650
f 650 652 832
f 833 650 832
f 834 835 650
f 836 837 648
f 648 650 835
f 836 648 835
f 782 646 648
f 782 648 837
f 838 245 839
f 245 840 839
f 838 841 244
f 838 244 245
f 841 842 242
f 841 242 244
f 843 242 842
f 844 241 242
f 242 843 845
f 242 845 844
f 241 844 846
f 847 848 328
f 328 241 846
f 847 328 846
f 328 848 849
f 850 326 328
f 850 328 849
f 326 850 851
f 326 851 852
f 853 324 326
f 853 326 852
f 854 855 322
f 322 324 853
f 854 322 853
f 322 855 856
f 857 858 320
f 320 322 856
f 857 320 856
f 320 858 859
f 860 861 318
f 318 320 859
f 860 318 859
f 862 863 316
f 316 318 861
f 862 316 861
f 316 863 864
f 865 866 314
f 314 316 864
f 865 314 864
f 867 312 314
f 867 314 866
f 868 869 310
f 310 312 867
f 310 867 868
f 870 871 308
f 308 310 869
f 308 869 870
f 871 872 308
f 873 874 306
f 306 308 872
f 306 872 873
f 306 874 875
f 306 875 304
f 876 877 304
f 876 304 875
f 878 302 304
f 878 304 877
f 300 302 878
f 879 880 300
f 878 879 300
f 881 300 880
f 298 300 881
f 882 883 298
f 881 882 298
f 883 884 298
f 885 886 296
f 296 298 884
f 885 296 884
f 886 887 296
f 888 889 294
f 294 296 887
f 888 294 887
f 889 890 294
f 891 892 292
f 292 294 890
f 891 292 890
f 892 893 292
f 894 895 290
f 290 292 893
f 894 290 893
f 895 896 290
f 897 898 289
f 289 290 896
f 897 289 896
f 899 840 245
f 899 245 248
f 900 899 248
f 900 248 250
f 901 902 903
f 901 903 900
f 900 250 252
f 900 252 253
f 901 900 253
f 901 253 255
f 904 901 255
f 904 255 257
f 905 906 907
f 907 904 257
f 907 257 259
f 908 909 905
f 905 907 259
f 905 259 261
f 910 911 908
f 908 905 261
f 264 776 912
f 908 261 264
f 908 264 912
f 912 194 89
f 912 89 8
f 910 908 912
f 913 914 915
f 915 910 912
f 912 8 7
f 912 7 23
f 913 915 912
f 916 917 913
f 918 919 916
f 920 921 922
f 923 924 925
f 926 927 928
f 926 928 923
f 289 898 929
f 289 929 926
f 289 926 923
f 289 923 925
f 289 925 920
f 762 740 343
f 744 743 763
f 762 343 341
f 760 744 763
f 760 763 762
f 358 739 761
f 356 358 761
f 930 148 355
f 355 356 761
f 931 930 355
f 932 933 934
f 934 931 355
f 932 934 355
f 935 936 937
f 937 932 355
f 935 937 355
f 938 935 355
f 938 355 761
f 939 938 761
f 940 939 761
f 941 942 940
f 943 944 945
f 941 940 761
f 945 941 761
f 943 945 761
f 946 947 943
f 948 949 946
f 946 943 761
f 950 951 952
f 953 954 955
f 956 953 955
f 957 956 955
f 687 958 959
f 685 687 959
f 685 959 957
f 683 685 957
f 683 957 955
f 680 683 955
f 680 955 950
f 678 680 950
f 678 950 952
f 676 678 952
f 676 952 960
f 674 676 960
f 674 960 961
f 672 674 961
f 672 961 948
f 670 672 948
f 916 913 912
f 912 23 22
f 912 22 34
f 916 912 34
f 99 623 808
f 99 808 962
f 963 964 965
f 99 962 963
f 99 963 965
f 99 965 966
f 69 99 966
f 967 968 969
f 69 966 967
f 69 967 969
f 969 970 971
f 971 972 973
f 974 975 976
f 976 977 978
f 978 979 980
f 981 982 983
f 984 985 986
f 986 987 988
f 988 989 990
f 991 811 608
f 990 991 608
f 990 608 610
f 988 990 610
f 988 610 612
f 986 988 612
f 986 612 614
f 984 986 614
f 984 614 615
f 983 984 615
f 983 615 617
f 981 983 617
f 981 617 618
f 981 618 619
f 981 619 620
f 980 981 620
f 992 993 994
f 980 620 992
f 978 980 992
f 978 992 994
f 976 978 994
f 995 996 669
f 974 976 994
f 995 669 670
f 973 974 994
f 995 670 948
f 971 973 994
f 995 948 946
f 969 971 994
f 995 946 761
f 69 969 994
f 994 995 761
f 994 761 760
f 4 69 994
f 5 4 994
f 5 994 760
f 10 5 760
f 10 760 762
f 34 33 11
f 11 10 762
f 918 916 34
f 34 11 762
f 922 918 34
f 34 762 341
f 922 34 341
f 920 922 341
f 340 336 289
f 920 341 340
f 340 289 920
f 997 120 998
f 999 998 120
f 120 122 1000
f 120 1000 999
f 1000 122 124
f 1000 124 1001
f 1002 116 1003
f 1003 116 118
f 118 1004 1005
f 118 1005 1003
f 1004 118 120
f 120 997 1006
f 120 1006 1004
f 1007 1008 114
f 114 116 1002
f 114 1002 1007
f 1009 114 1008
f 1010 1011 112
f 112 114 1009
f 112 1009 1010
f 110 112 1011
f 110 1011 1012
f 1013 110 1012
f 1014 1015 108
f 108 110 1013
f 108 1013 1014
f 1016 108 1015
f 1017 107 108
f 108 1016 1018
f 108 1018 1017
f 1019 107 1017
f 1020 691 107
f 107 1019 1021
f 107 1021 1020
f 691 1020 1022
f 1023 688 691
f 1023 691 1022
f 688 1023 1024
f 688 1024 1025
f 1025 958 687
f 1025 687 688
f 1026 146 1027
f 146 148 930
f 1028 1027 146
f 930 1028 146
f 1029 1030 144
f 144 146 1026
f 144 1026 1029
f 1031 144 1030
f 1032 142 144
f 144 1031 1033
f 144 1033 1032
f 1032 1034 142
f 1035 1036 140
f 140 142 1034
f 1035 140 1034
f 1036 1037 140
f 1038 1039 138
f 138 140 1037
f 1038 138 1037
f 1039 1040 138
f 1041 1042 136
f 136 138 1040
f 1041 136 1040
f 1042 1043 136
f 1044 1045 134
f 134 136 1043
f 1044 134 1043
f 1046 132 134
f 1046 134 1045
f 132 1046 1047
f 132 1047 1048
f 1049 130 132
f 1049 132 1048
f 1050 1051 128
f 128 130 1049
f 1050 128 1049
f 128 1051 1052
f 1053 1054 126
f 126 128 1052
f 126 1052 1053
f 1055 1001 124
f 124 126 1054
f 124 1054 1055
f 1056 190 1057
f 1057 190 192
f 192 714 1058
f 192 1058 1057
f 1059 1060 188
f 188 190 1056
f 188 1056 1059
f 1061 188 1060
f 1062 186 188
f 188 1061 1063
f 188 1063 1062
f 186 1062 1064
f 1065 1066 184
f 184 186 1064
f 1065 184 1064
f 184 1066 1067
f 1068 1069 182
f 182 184 1067
f 1068 182 1067
f 182 1069 1070
f 1071 1072 180
f 180 182 1070
f 1071 180 1070
f 180 1072 1073
f 1074 1075 178
f 178 180 1073
f 1074 178 1073
f 1076 176 178
f 1076 178 1075
f 176 1076 1077
f 176 1077 1078
f 1079 174 176
f 1079 176 1078
f 1080 1081 172
f 172 174 1079
f 1080 172 1079
f 172 1081 1082
f 1083 1084 170
f 170 172 1082
f 170 1082 1083
f 1085 1086 168
f 168 170 1084
f 168 1084 1085
f 1087 166 168
f 1087 168 1086
f 164 166 1087
f 1088 1089 164
f 1087 1088 164
f 1090 164 1089
f 162 164 1090
f 1091 1092 162
f 1090 1091 162
f 1093 160 162
f 162 1092 1094
f 162 1094 1093
f 1093 1095 160
f 1096 1097 158
f 158 160 1095
f 1096 158 1095
f 1097 1098 158
f 1099 1100 156
f 156 158 1098
f 1099 156 1098
f 156 1100 1101
f 156 1101 154
f 1102 1103 154
f 1102 154 1101
f 1104 152 154
f 1104 154 1103
f 1104 1105 152
f 151 152 1105
f 1106 1107 151
f 1105 1106 151
f 1108 151 1107
f 1109 286 151
f 151 1108 1110
f 151 1110 1109
f 1109 1111 286
f 1112 283 286
f 1112 286 1111
f 283 1112 1113
f 283 1113 1114
f 282 283 1114
f 282 1114 735
f 400 1115 1116
f 400 398 1117
f 400 1117 1115
f 398 1118 1117
f 398 396 1119
f 398 1119 1118
f 396 1120 1119
f 396 442 1121
f 396 1121 1120
f 442 1122 1121
f 442 440 1123
f 442 1123 1122
f 1123 440 1124
f 1124 440 438
f 1124 438 1125
f 1125 438 1126
f 1126 438 436
f 1126 436 1127
f 1127 436 1128
f 1128 436 434
f 1128 434 1129
f 1129 434 1130
f 1130 434 432
f 1130 432 1131
f 1131 432 1132
f 1132 432 430
f 1132 430 1133
f 1133 430 1134
f 1134 430 428
f 1134 428 1135
f 1135 428 1136
f 1136 428 426
f 1136 426 1137
f 1137 426 1138
f 1138 426 424
f 1138 424 1139
f 1139 424 1140
f 1140 424 422
f 1140 422 1141
f 1141 422 1142
f 1142 422 420
f 1142 420 1143
f 1143 420 1144
f 1144 420 418
f 1144 418 1145
f 1145 418 1146
f 1146 418 416
f 1146 416 1147
f 416 1148 1147
f 416 414 1149
f 416 1149 1148
f 414 1150 1149
f 414 412 1151
f 414 1151 1150
f 412 1152 1151
f 412 410 1153
f 412 1153 1152
f 410 1154 1153
f 410 408 1155
f 410 1155 1154
f 408 1156 1155
f 408 406 1157
f 408 1157 1156
f 406 1158 1157
f 406 404 1159
f 406 1159 1158
f 404 1160 1159
f 404 402 1161
f 404 1161 1160
f 402 1162 1161
f 402 400 1116
f 402 1116 1162
f 448 1163 1164
f 448 446 1165
f 448 1165 1163
f 446 1166 1165
f 446 444 1167
f 446 1167 1166
f 444 1168 1167
f 444 490 1169
f 444 1169 1168
f 490 1170 1169
f 490 488 1171
f 490 1171 1170
f 1171 488 1172
f 1172 488 486
f 1172 486 1173
f 1173 486 1174
f 1174 486 484
f 1174 484 1175
f 1175 484 1176
f 1176 484 482
f 1176 482 1177
f 1177 482 1178
f 1178 482 480
f 1178 480 1179
f 1179 480 1180
f 1180 480 478
f 1180 478 1181
f 1181 478 1182
f 1182 478 476
f 1182 476 1183
f 1183 476 1184
f 1184 476 474
f 1184 474 1185
f 1185 474 1186
f 1186 474 472
f 1186 472 1187
f 1187 472 1188
f 1188 472 470
f 1188 470 1189
f 1189 470 1190
f 1190 470 468
f 1190 468 1191
f 1191 468 1192
f 1192 468 466
f 1192 466 1193
f 1193 466 1194
f 1194 466 464
f 1194 464 1195
f 464 1196 1195
f 464 462 1197
f 464 1197 1196
f 462 1198 1197
f 462 460 1199
f 462 1199 1198
f 460 1200 1199
f 460 458 1201
f 460 1201 1200
f 458 1202 1201
f 458 456 1203
f 458 1203 1202
f 456 1204 1203
f 456 454 1205
f 456 1205 1204
f 454 1206 1205
f 454 452 1207
f 454 1207 1206
f 452 1208 1207
f 452 450 1209
f 452 1209 1208
f 450 1210 1209
f 450 448 1164
f 450 1164 1210
f 496 1211 1212
f 496 494 1213
f 496 1213 1211
f 494 1214 1213
f 494 492 1215
f 494 1215 1214
f 492 1216 1215
f 492 538 1217
f 492 1217 1216
f 538 1218 1217
f 538 536 1219
f 538 1219 1218
f 1219 536 1220
f 1220 536 534
f 1220 534 1221
f 1221 534 1222
f 1222 534 532
f 1222 532 1223
f 1223 532 1224
f 1224 532 530
f 1224 530 1225
f 1225 530 1226
f 1226 530 528
f 1226 528 1227
f 1227 528 1228
f 1228 528 526
f 1228 526 1229
f 1229 526 1230
f 1230 526 524
f 1230 524 1231
f 1231 524 1232
f 1232 524 522
f 1232 522 1233
f 1233 522 1234
f 1234 522 520
f 1234 520 1235
f 1235 520 1236
f 1236 520 518
f 1236 518 1237
f 1237 518 1238
f 1238 518 516
f 1238 516 1239
f 1239 516 1240
f 1240 516 514
f 1240 514 1241
f 1241 514 1242
f 1242 514 512
f 1242 512 1243
f 512 1244 1243
f 512 510 1245
f 512 1245 1244
f 510 1246 1245
f 510 508 1247
f 510 1247 1246
f 508 1248 1247
f 508 506 1249
f 508 1249 1248
f 506 1250 1249
f 506 504 1251
f 506 1251 1250
f 504 1252 1251
f 504 502 1253
f 504 1253 1252
f 502 1254 1253
f 502 500 1255
f 502 1255 1254
f 500 1256 1255
f 500 498 1257
f 500 1257 1256
f 498 1258 1257
f 498 496 1212
f 498 1212 1258
f 544 1259 1260
f 544 542 1261
f 544 1261 1259
f 542 1262 1261
f 542 540 1263
f 542 1263 1262
f 540 1264 1263
f 540 586 1265
f 540 1265 1264
f 586 1266 1265
f 586 584 1267
f 586 1267 1266
f 1267 584 1268
f 1268 584 582
f 1268 582 1269
f 1269 582 1270
f 1270 582 580
f 1270 580 1271
f 1271 580 1272
f 1272 580 578
f 1272 578 1273
f 1273 578 1274
f 1274 578 576
f 1274 576 1275
f 1275 576 1276
f 1276 576 574
f 1276 574 1277
f 1277 574 1278
f 1278 574 572
f 1278 572 1279
f 1279 572 1280
f 1280 572 570
f 1280 570 1281
f 1281 570 1282
f 1282 570 568
f 1282 568 1283
f 1283 568 1284
f 1284 568 566
f 1284 566 1285
f 1285 566 1286
f 1286 566 564
f 1286 564 1287
f 1287 564 1288
f 1288 564 562
f 1288 562 1289
f 1289 562 1290
f 1290 562 560
f 1290 560 1291
f 560 1292 1291
f 560 558 1293
f 560 1293 1292
f 558 1294 1293
f 558 556 1295
f 558 1295 1294
f 556 1296 1295
f 556 554 1297
f 556 1297 1296
f 554 1298 1297
f 554 552 1299
f 554 1299 1298
f 552 1300 1299
f 552 550 1301
f 552 1301 1300
f 550 1302 1301
f 550 548 1303
f 550 1303 1302
f 548 1304 1303
f 548 546 1305
f 548 1305 1304
f 546 1306 1305
f 546 544 1260
f 546 1260 1306
f 977 976 1307
f 1307 1308 978
f 1307 978 977
f 979 978 1308
f 1308 1309 981
f 980 979 1308
f 1308 981 980
f 982 981 1309
f 1309 1310 983
f 1309 983 982
f 984 983 1310
f 1310 1311 986
f 985 984 1310
f 1310 986 985
f 987 986 1311
f 1311 1312 990
f 1311 990 989
f 988 987 1311
f 1311 989 988
f 1312 1313 991
f 1312 991 990
f 991 1313 1314
f 1314 809 811
f 1314 811 991
f 810 809 1314
f 1314 1315 816
f 1314 816 814
f 812 810 1314
f 1314 814 813
f 1314 813 812
f 815 816 1315
f 1315 1316 818
f 817 815 1315
f 1315 818 817
f 819 818 1316
f 1316 1317 822
f 1316 822 821
f 820 819 1316
f 1316 821 820
f 822 1317 1318
f 1318 825 824
f 823 822 1318
f 1318 824 823
f 825 1318 1319
f 1319 828 827
f 826 825 1319
f 1319 827 826
f 828 1319 1320
f 1320 831 830
f 829 828 1320
f 1320 830 829
f 831 1320 1321
f 1321 833 832
f 1321 832 831
f 834 833 1321
f 1321 1322 836
f 835 834 1321
f 1321 836 835
f 836 1322 1323
f 1323 781 782
f 837 836 1323
f 1323 782 837
f 781 1323 1324
f 1324 779 780
f 1324 780 781
f 778 779 1324
f 1324 1325 787
f 777 778 1324
f 1324 787 777
f 787 1325 1326
f 1326 784 785
f 786 787 1326
f 1326 785 786
f 784 1326 1327
f 1327 791 790
f 783 784 1327
f 1327 790 783
f 789 791 1327
f 1327 1328 793
f 788 789 1327
f 1327 793 788
f 792 793 1328
f 1328 1329 795
f 794 792 1328
f 1328 795 794
f 796 795 1329
f 1329 1330 798
f 797 796 1329
f 1329 798 797
f 799 798 1330
f 1330 1331 802
f 800 799 1330
f 1330 802 800
f 801 802 1331
f 1331 1332 804
f 803 801 1331
f 1331 804 803
f 805 804 1332
f 1332 1333 807
f 806 805 1332
f 1332 807 806
f 808 807 1333
f 1333 1334 962
f 1333 962 808
f 963 962 1334
f 1334 1335 966
f 1334 966 965
f 964 963 1334
f 1334 965 964
f 967 966 1335
f 1335 1336 969
f 968 967 1335
f 1335 969 968
f 970 969 1336
f 1336 1337 971
f 1336 971 970
f 972 971 1337
f 1337 1338 974
f 973 972 1337
f 1337 974 973
f 975 974 1338
f 1338 1307 976
f 1338 976 975
f 1313 1312 1311
f 1311 1310 1309
f 1309 1308 1307
f 1307 1338 1337
f 1337 1336 1335
f 1335 1334 1333
f 1333 1332 1331
f 1331 1330 1329
f 1329 1328 1327
f 1327 1326 1325
f 1325 1324 1323
f 1323 1322 1116
f 1323 1116 1115
f 1327 1325 1323
f 1331 1329 1327
f 1335 1333 1331
f 1307 1337 1335
f 1311 1309 1307
f 1314 1313 1311
f 1150 1151 1314
f 1147 1148 1149
f 1149 1150 1314
f 1314 1311 1307
f 1307 1335 1331
f 1331 1327 1323
f 1323 1115 1117
f 1323 1117 1118
f 1147 1149 1314
f 1146 1147 1314
f 1323 1118 1119
f 1119 1120 1121
f 1121 1122 1123
f 1323 1119 1121
f 1146 1314 1307
f 1143 1144 1145
f 1145 1146 1307
f 1323 1121 1123
f 1331 1323 1123
f 1143 1145 1307
f 1142 1143 1307
f 1331 1123 1124
f 1331 1124 1125
f 1141 1142 1307
f 1140 1141 1307
f 1331 1125 1126
f 1331 1126 1127
f 1139 1140 1307
f 1138 1139 1307
f 1331 1127 1128
f 1129 1130 1131
f 1331 1128 1129
f 1137 1138 1307
f 1135 1136 1137
f 1135 1137 1307
f 1331 1129 1131
f 1131 1132 1133
f 1331 1131 1133
f 1135 1307 1331
f 1331 1133 1134
f 1331 1134 1135
f 1315 1314 1151
f 1315 1151 1152
f 1317 1316 1315
f 1319 1318 1317
f 1321 1320 1319
f 1116 1322 1321
f 1162 1116 1321
f 1321 1319 1317
f 1317 1315 1152
f 1317 1152 1153
f 1162 1321 1317
f 1161 1162 1317
f 1317 1153 1154
f 1155 1156 1157
f 1317 1154 1155
f 1160 1161 1317
f 1157 1158 1159
f 1159 1160 1317
f 1317 1155 1157
f 1157 1159 1317
f 944 943 1339
f 1339 1340 945
f 1339 945 944
f 941 945 1340
f 1340 1341 940
f 942 941 1340
f 1340 940 942
f 939 940 1341
f 1341 1342 938
f 1341 938 939
f 935 938 1342
f 1342 1343 937
f 936 935 1342
f 1342 937 936
f 932 937 1343
f 1343 1344 931
f 1343 931 934
f 933 932 1343
f 1343 934 933
f 931 1344 1345
f 1345 1028 930
f 1345 930 931
f 1028 1345 1346
f 1346 1029 1026
f 1027 1028 1346
f 1346 1026 1027
f 1029 1346 1347
f 1347 1033 1031
f 1030 1029 1347
f 1347 1031 1030
f 1032 1033 1347
f 1347 1348 1035
f 1034 1032 1347
f 1347 1035 1034
f 1036 1035 1348
f 1348 1349 1038
f 1037 1036 1348
f 1348 1038 1037
f 1039 1038 1349
f 1349 1350 1041
f 1040 1039 1349
f 1349 1041 1040
f 1042 1041 1350
f 1350 1351 1044
f 1043 1042 1350
f 1350 1044 1043
f 1044 1351 1352
f 1352 1047 1046
f 1045 1044 1352
f 1352 1046 1045
f 1047 1352 1353
f 1353 1050 1049
f 1048 1047 1353
f 1353 1049 1048
f 1050 1353 1354
f 1354 1053 1052
f 1051 1050 1354
f 1354 1052 1051
f 1053 1354 1355
f 1355 1055 1054
f 1355 1054 1053
f 1055 1355 1356
f 1356 999 1000
f 1001 1055 1356
f 1356 1000 1001
f 999 1356 1357
f 1357 1006 997
f 998 999 1357
f 1357 997 998
f 1006 1357 1358
f 1358 1005 1004
f 1358 1004 1006
f 1003 1005 1358
f 1358 1359 1007
f 1002 1003 1358
f 1358 1007 1002
f 1008 1007 1359
f 1359 1360 1010
f 1009 1008 1359
f 1359 1010 1009
f 1011 1010 1360
f 1360 1361 1014
f 1360 1014 1013
f 1012 1011 1360
f 1360 1013 1012
f 1015 1014 1361
f 1361 1362 1018
f 1016 1015 1361
f 1361 1018 1016
f 1017 1018 1362
f 1362 1363 1021
f 1019 1017 1362
f 1362 1021 1019
f 1020 1021 1363
f 1363 1364 1024
f 1363 1024 1023
f 1022 1020 1363
f 1363 1023 1022
f 1025 1024 1364
f 1364 1365 959
f 958 1025 1364
f 1364 959 958
f 959 1365 1366
f 959 1366 957
f 956 957 1366
f 1366 1367 955
f 1366 955 954
f 953 956 1366
f 1366 954 953
f 950 955 1367
f 1367 1368 952
f 951 950 1367
f 1367 952 951
f 960 952 1368
f 1368 1369 961
f 1368 961 960
f 948 961 1369
f 1369 1370 946
f 949 948 1369
f 1369 946 949
f 947 946 1370
f 1370 1339 943
f 1370 943 947
f 1347 1346 1247
f 1347 1247 1248
f 1349 1348 1347
f 1351 1350 1349
f 1353 1352 1351
f 1212 1354 1353
f 1258 1212 1353
f 1353 1351 1349
f 1349 1347 1248
f 1249 1250 1251
f 1349 1248 1249
f 1258 1353 1349
f 1257 1258 1349
f 1349 1249 1251
f 1251 1252 1253
f 1349 1251 1253
f 1256 1257 1349
f 1255 1256 1349
f 1349 1253 1254
f 1254 1255 1349
f 1365 1364 1363
f 1363 1362 1361
f 1361 1360 1359
f 1359 1358 1357
f 1357 1356 1355
f 1355 1354 1212
f 1212 1211 1213
f 1355 1212 1213
f 1359 1357 1355
f 1363 1361 1359
f 1366 1365 1363
f 1368 1367 1366
f 1370 1369 1368
f 1340 1339 1370
f 1342 1341 1340
f 1344 1343 1342
f 1346 1345 1344
f 1246 1247 1346
f 1243 1244 1245
f 1245 1246 1346
f 1346 1344 1342
f 1342 1340 1370
f 1370 1368 1366
f 1366 1363 1359
f 1359 1355 1213
f 1359 1213 1214
f 1342 1370 1366
f 1245 1346 1342
f 1243 1245 1342
f 1359 1214 1215
f 1215 1216 1217
f 1217 1218 1219
f 1359 1215 1217
f 1242 1243 1342
f 1239 1240 1241
f 1241 1242 1342
f 1359 1217 1219
f 1359 1219 1220
f 1239 1241 1342
f 1238 1239 1342
f 1359 1220 1221
f 1359 1221 1222
f 1237 1238 1342
f 1235 1236 1237
f 1235 1237 1342
f 1359 1222 1223
f 1359 1223 1224
f 1235 1342 1366
f 1234 1235 1366
f 1366 1359 1224
f 1225 1226 1227
f 1366 1224 1225
f 1233 1234 1366
f 1232 1233 1366
f 1366 1225 1227
f 1227 1228 1229
f 1366 1227 1229
f 1231 1232 1366
f 1366 1229 1230
f 1230 1231 1366
f 1086 1085 1371
f 1371 1372 1088
f 1087 1086 1371
f 1371 1088 1087
f 1089 1088 1372
f 1372 1373 1091
f 1090 1089 1372
f 1372 1091 1090
f 1092 1091 1373
f 1373 1374 1094
f 1373 1094 1092
f 1093 1094 1374
f 1374 1375 1096
f 1095 1093 1374
f 1374 1096 1095
f 1097 1096 1375
f 1375 1376 1099
f 1098 1097 1375
f 1375 1099 1098
f 1099 1376 1377
f 1377 1102 1101
f 1100 1099 1377
f 1377 1101 1100
f 1102 1377 1378
f 1378 1106 1105
f 1378 1105 1104
f 1103 1102 1378
f 1378 1104 1103
f 1106 1378 1379
f 1379 1110 1108
f 1107 1106 1379
f 1379 1108 1107
f 1109 1110 1379
f 1379 1380 1113
f 1379 1113 1112
f 1111 1109 1379
f 1379 1112 1111
f 1114 1113 1380
f 1380 1381 736
f 735 1114 1380
f 1380 736 735
f 1381 1382 733
f 1381 733 736
f 734 733 1382
f 1382 1383 732
f 1382 732 731
f 730 734 1382
f 1382 731 730
f 728 732 1383
f 1383 1384 198
f 729 728 1383
f 1383 198 729
f 198 1384 1385
f 1385 199 727
f 1385 727 198
f 725 199 1385
f 1385 1386 203
f 726 725 1385
f 1385 203 726
f 203 1386 1387
f 1387 205 724
f 1387 724 203
f 205 1387 1388
f 1388 206 723
f 1388 723 205
f 207 206 1388
f 1388 1389 204
f 722 207 1388
f 1388 204 722
f 204 1389 1390
f 1390 201 721
f 1390 721 204
f 720 201 1390
f 1390 1391 718
f 719 720 1390
f 1390 718 719
f 715 718 1391
f 1391 1392 713
f 1391 713 717
f 716 715 1391
f 1391 717 716
f 714 713 1392
f 1392 1393 1058
f 1392 1058 714
f 1057 1058 1393
f 1393 1394 1059
f 1056 1057 1393
f 1393 1059 1056
f 1060 1059 1394
f 1394 1395 1063
f 1061 1060 1394
f 1394 1063 1061
f 1062 1063 1395
f 1395 1396 1065
f 1064 1062 1395
f 1395 1065 1064
f 1066 1065 1396
f 1396 1397 1068
f 1067 1066 1396
f 1396 1068 1067
f 1069 1068 1397
f 1397 1398 1071
f 1070 1069 1397
f 1397 1071 1070
f 1072 1071 1398
f 1398 1399 1074
f 1073 1072 1398
f 1398 1074 1073
f 1075 1074 1399
f 1399 1400 1077
f 1076 1075 1399
f 1399 1077 1076
f 1078 1077 1400
f 1400 1401 1080
f 1079 1078 1400
f 1400 1080 1079
f 1081 1080 1401
f 1401 1402 1083
f 1082 1081 1401
f 1401 1083 1082
f 1084 1083 1402
f 1402 1371 1085
f 1402 1085 1084
f 1377 1376 1375
f 1375 1374 1373
f 1373 1372 1371
f 1371 1402 1283
f 1371 1283 1284
f 1375 1373 1371
f 1378 1377 1375
f 1294 1295 1378
f 1291 1292 1293
f 1293 1294 1378
f 1378 1375 1371
f 1371 1284 1285
f 1371 1285 1286
f 1291 1293 1378
f 1290 1291 1378
f 1371 1286 1287
f 1371 1287 1288
f 1290 1378 1371
f 1371 1288 1289
f 1371 1289 1290
f 1395 1394 1393
f 1393 1392 1391
f 1391 1390 1389
f 1389 1388 1387
f 1387 1386 1385
f 1385 1384 1383
f 1383 1382 1381
f 1381 1380 1379
f 1379 1378 1295
f 1379 1295 1296
f 1383 1381 1379
f 1387 1385 1383
f 1391 1389 1387
f 1395 1393 1391
f 1397 1396 1395
f 1399 1398 1397
f 1401 1400 1399
f 1283 1402 1401
f 1282 1283 1401
f 1401 1399 1397
f 1397 1395 1391
f 1391 1387 1383
f 1379 1296 1297
f 1379 1297 1298
f 1282 1401 1397
f 1279 1280 1281
f 1281 1282 1397
f 1383 1379 1298
f 1299 1300 1301
f 1383 1298 1299
f 1279 1281 1397
f 1277 1278 1279
f 1275 1276 1277
f 1273 1274 1275
f 1277 1279 1397
f 1383 1299 1301
f 1383 1301 1302
f 1275 1277 1397
f 1273 1275 1397
f 1383 1302 1303
f 1303 1304 1305
f 1383 1303 1305
f 1273 1397 1391
f 1272 1273 1391
f 1383 1305 1306
f 1260 1259 1261
f 1383 1306 1260
f 1271 1272 1391
f 1270 1271 1391
f 1383 1260 1261
f 1261 1262 1263
f 1263 1264 1265
f 1391 1383 1261
f 1269 1270 1391
f 1267 1268 1269
f 1267 1269 1391
f 1391 1261 1263
f 1391 1263 1265
f 1266 1267 1391
f 1391 1265 1266
f 869 868 1403
f 1403 1404 870
f 1403 870 869
f 871 870 1404
f 1404 1405 873
f 872 871 1404
f 1404 873 872
f 874 873 1405
f 1405 1406 876
f 875 874 1405
f 1405 876 875
f 877 876 1406
f 1406 1407 879
f 878 877 1406
f 1406 879 878
f 879 1407 1408
f 1408 882 881
f 880 879 1408
f 1408 881 880
f 883 882 1408
f 1408 1409 885
f 884 883 1408
f 1408 885 884
f 886 885 1409
f 1409 1410 888
f 887 886 1409
f 1409 888 887
f 889 888 1410
f 1410 1411 891
f 890 889 1410
f 1410 891 890
f 892 891 1411
f 1411 1412 894
f 893 892 1411
f 1411 894 893
f 895 894 1412
f 1412 1413 897
f 896 895 1412
f 1412 897 896
f 897 1413 1414
f 1414 929 898
f 1414 898 897
f 926 929 1414
f 1414 1415 923
f 1414 923 928
f 927 926 1414
f 1414 928 927
f 924 923 1415
f 1415 1416 920
f 925 924 1415
f 1415 920 925
f 920 1416 1417
f 1417 922 921
f 1417 921 920
f 918 922 1417
f 1417 1418 916
f 919 918 1417
f 1417 916 919
f 916 1418 1419
f 1419 913 917
f 1419 917 916
f 913 1419 1420
f 1420 915 914
f 1420 914 913
f 910 915 1420
f 1420 1421 908
f 911 910 1420
f 1420 908 911
f 908 1421 1422
f 1422 905 909
f 1422 909 908
f 906 905 1422
f 1422 1423 904
f 907 906 1422
f 1422 904 907
f 901 904 1423
f 1423 1424 900
f 1423 900 903
f 902 901 1423
f 1423 903 902
f 900 1424 1425
f 900 1425 899
f 840 899 1425
f 1425 1426 839
f 1425 839 840
f 838 839 1426
f 1426 1427 845
f 1426 845 843
f 841 838 1426
f 1426 843 842
f 1426 842 841
f 844 845 1427
f 1427 1428 847
f 846 844 1427
f 1427 847 846
f 848 847 1428
f 1428 1429 851
f 1428 851 850
f 849 848 1428
f 1428 850 849
f 852 851 1429
f 1429 1430 854
f 853 852 1429
f 1429 854 853
f 855 854 1430
f 1430 1431 857
f 856 855 1430
f 1430 857 856
f 858 857 1431
f 1431 1432 860
f 859 858 1431
f 1431 860 859
f 861 860 1432
f 1432 1433 862
f 1432 862 861
f 863 862 1433
f 1433 1434 865
f 864 863 1433
f 1433 865 864
f 866 865 1434
f 1434 1403 868
f 867 866 1434
f 1434 868 867
f 1409 1408 1407
f 1407 1406 1405
f 1405 1404 1403
f 1403 1434 1187
f 1187 1188 1189
f 1403 1187 1189
f 1407 1405 1403
f 1410 1409 1407
f 1198 1199 1410
f 1195 1196 1197
f 1197 1198 1410
f 1410 1407 1403
f 1403 1189 1190
f 1191 1192 1193
f 1403 1190 1191
f 1195 1197 1410
f 1193 1194 1195
f 1403 1191 1193
f 1195 1410 1403
f 1403 1193 1195
f 1429 1428 1427
f 1427 1426 1425
f 1425 1424 1423
f 1423 1422 1421
f 1421 1420 1419
f 1419 1418 1417
f 1417 1416 1415
f 1415 1414 1413
f 1413 1412 1411
f 1411 1410 1199
f 1199 1200 1201
f 1201 1202 1203
f 1203 1204 1205
f 1411 1199 1201
f 1415 1413 1411
f 1419 1417 1415
f 1423 1421 1419
f 1427 1425 1423
f 1430 1429 1427
f 1432 1431 1430
f 1434 1433 1432
f 1186 1187 1434
f 1183 1184 1185
f 1185 1186 1434
f 1434 1432 1430
f 1430 1427 1423
f 1423 1419 1415
f 1415 1411 1201
f 1415 1201 1203
f 1185 1434 1430
f 1181 1182 1183
f 1183 1185 1430
f 1415 1203 1205
f 1415 1205 1206
f 1181 1183 1430
f 1179 1180 1181
f 1179 1181 1430
f 1415 1206 1207
f 1207 1208 1209
f 1415 1207 1209
f 1178 1179 1430
f 1177 1178 1430
f 1415 1209 1210
f 1164 1163 1165
f 1415 1210 1164
f 1177 1430 1423
f 1176 1177 1423
f 1415 1164 1165
f 1423 1415 1165
f 1175 1176 1423
f 1174 1175 1423
f 1423 1165 1166
f 1167 1168 1169
f 1423 1166 1167
f 1173 1174 1423
f 1171 1172 1173
f 1171 1173 1423
f 1423 1167 1169
f 1170 1171 1423
f 1423 1169 1170
f 669 769 2
f 232 766 231
f 766 620 231
f 769 766 3
f 769 3 2
f 669 770 769
f 765 992 766
f 669 767 770
f 992 620 766
f 766 232 3
f 737 752 765
f 765 766 737
f 992 765 993
f 767 669 996
f 768 764 752
f 993 765 764
f 993 764 994
f 768 995 994
f 768 994 764
f 996 995 768
f 996 768 767
f 768 752 703
f 384 1435 386
f 597 1436 1437
f 590 1438 1436
f 590 1436 597
f 386 1435 1439
f 386 1439 1440
f 771 774 83
f 386 1440 771
f 771 83 386
f 597 1437 1441
f 597 1441 392
f 384 390 1442
f 384 1442 1435
f 262 701 263
f 262 263 261
f 1443 1444 1445
f 1443 1445 1446
f 1444 1443 1447
f 1444 1447 1448
f 263 392 1441
f 263 1441 1449
f 1446 1442 390
f 1443 1446 390
f 263 1449 1447
f 267 263 1447
f 1443 390 267
f 267 1447 1443
f 1439 1435 1442
f 1442 1446 1445
f 1445 1440 1439
f 1442 1445 1439
f 1450 775 772
f 772 771 1440
f 772 1440 1445
f 1448 1450 772
f 772 1445 1444
f 772 1444 1448
f 394 263 701
f 394 701 393
f 50 753 71
f 353 355 148
f 263 394 392
f 1451 758 757
f 1451 757 1452
f 1451 1452 1453
f 51 62 63
f 753 50 51
f 747 746 1454
f 1454 753 51
f 1454 51 63
f 95 96 1455
f 1454 63 95
f 1453 747 1454
f 1455 1451 1453
f 1453 1454 95
f 95 1455 1453
f 1450 1449 1441
f 776 1441 1437
f 776 1437 1436
f 776 775 1450
f 776 1450 1441
f 1456 1457 1458
f 1456 1458 1459
f 1459 1458 1460
f 1459 1460 1461
f 1461 1460 1462
f 1461 1462 1463
f 1463 1462 1457
f 1463 1457 1456
f 747 1457 1462
f 747 1462 748
f 1453 1458 1457
f 1453 1457 747
f 1461 1463 1456
f 1461 1456 1459
f 1452 1460 1458
f 1452 1458 1453
f 757 748 1462
f 1462 1460 1452
f 1462 1452 757
f 1464 1465 1466
f 1464 1466 1467
f 1467 1466 1468
f 1467 1468 1469
f 1469 1468 1470
f 1469 1470 1471
f 1471 1470 1465
f 1471 1465 1464
f 753 1465 1470
f 753 1470 751
f 1454 1466 1465
f 1454 1465 753
f 1469 1471 1464
f 1469 1464 1467
f 746 1468 1466
f 746 1466 1454
f 1472 1473 1474
f 1472 1474 1475
f 1475 1474 1476
f 1475 1476 1477
f 1477 1476 1478
f 1477 1478 1479
f 1479 1478 1473
f 1479 1473 1472
f 758 1473 1478
f 758 1478 759
f 1477 1479 1472
f 1477 1472 1475
f 754 1476 1474
f 754 1474 1455
f 1470 1468 746
f 1470 746 751
f 759 1478 1476
f 759 1476 754
f 1451 1455 1474
f 1474 1473 758
f 1474 758 1451
f 1448 1447 1449
f 1448 1449 1450
f 1480 1481 1482
f 1482 1483 1484
f 1482 1484 1480
f 774 1481 1480
f 1482 1481 774
f 194 912 1485
f 1482 774 194
f 194 1485 1482
f 1438 590 1486
f 590 212 1487
f 590 1487 1486
f 1485 912 776
f 776 1436 1486
f 1487 1488 1489
f 776 1486 1487
f 1487 1489 1485
f 776 1487 1485
f 212 755 1488
f 212 1488 1487
f 84 83 774
f 774 1480 1484
f 1484 1488 755
f 755 754 1455
f 1455 96 80
f 1455 80 81
f 1484 755 1455
f 84 774 1484
f 1455 81 88
f 88 84 1484
f 1484 1455 88
f 1436 1438 1486
f 1484 1483 1489
f 1484 1489 1488
f 1485 1489 1483
f 1485 1483 1482
f 85 86 59
f 85 59 58
f 9 85 58
f 9 58 38
